<?xml version="1.0" encoding="UTF-8"?>
<svg version="1.1" xmlns="http://www.w3.org/2000/svg" width="400" height="400">
<path d="M0 0 C132 0 264 0 400 0 C400 132 400 264 400 400 C268 400 136 400 0 400 C0 268 0 136 0 0 Z " fill="#FEFEFE" transform="translate(0,0)"/>
<path d="M0 0 C1.05517822 0.00563965 2.11035645 0.0112793 3.19750977 0.01708984 C30.86426862 0.44179425 56.02853224 11.08738312 77.5 28.3125 C78.80500578 29.23980466 80.11639009 30.15828618 81.4375 31.0625 C84.46613693 33.28762101 86.90911482 35.59523018 89.5 38.3125 C90.53253906 39.31410156 90.53253906 39.31410156 91.5859375 40.3359375 C92.32070313 41.05007812 93.05546875 41.76421875 93.8125 42.5 C94.85857422 43.51126953 94.85857422 43.51126953 95.92578125 44.54296875 C97.5 46.3125 97.5 46.3125 97.5 48.3125 C98.49 48.6425 99.48 48.9725 100.5 49.3125 C101.43375542 50.62667429 102.35319388 51.95286415 103.20703125 53.3203125 C104.82647991 55.81553551 106.59999655 58.17554298 108.375 60.5625 C133.46847167 95.05444907 143.34792717 137.49542053 137.31640625 179.66796875 C129.61697698 226.12085029 107.22002846 266.93177366 68.79296875 295.00927734 C40.50861913 315.03242544 7.71272993 326.67119794 -26.5 331.3125 C-27.51380737 331.46392456 -27.51380737 331.46392456 -28.5480957 331.6184082 C-70.77034673 337.25849565 -116.29689594 328.44541741 -150.5 302.3125 C-155.32142252 298.48478675 -159.9455497 294.45219526 -164.5 290.3125 C-165.51126953 289.40951172 -165.51126953 289.40951172 -166.54296875 288.48828125 C-191.44687333 265.0040767 -207.6741875 228.49262216 -208.72853088 194.41275024 C-209.10574863 178.96571097 -209.39017682 163.36968486 -205.5 148.3125 C-205.31775879 147.59368652 -205.13551758 146.87487305 -204.94775391 146.13427734 C-197.41401613 117.16368839 -182.62257737 89.52742087 -156.41918945 73.61108398 C-148.36019299 68.91632708 -140.06256365 64.78326411 -130.5 66.3125 C-125.21887272 68.23290992 -122.80030701 72.41985754 -120.5 77.3125 C-117.81489976 85.99265475 -116.95136686 94.69973327 -116.53372192 103.73861694 C-116.43447749 105.87764444 -116.32053047 108.01547413 -116.20288086 110.15356445 C-116.041027 113.10429425 -115.88336699 116.05519118 -115.72949219 119.00634766 C-113.21880034 166.64946027 -108.32636052 213.58834114 -73.5 249.3125 C-72.96576416 249.87517578 -72.43152832 250.43785156 -71.88110352 251.01757812 C-67.76315124 255.27483551 -63.42613224 258.81644101 -58.5625 262.1875 C-57.45334229 262.9594873 -57.45334229 262.9594873 -56.32177734 263.74707031 C-37.22488671 276.84138434 -16.76468254 285.19945123 5.5 291.3125 C6.66789063 291.6425 7.83578125 291.9725 9.0390625 292.3125 C15.50403006 294.04985562 21.8186412 294.93108385 28.5 295.3125 C28.75136719 294.80332031 29.00273437 294.29414063 29.26171875 293.76953125 C30.24456405 291.81934295 31.25268649 289.88189721 32.26953125 287.94921875 C41.41809525 270.38890288 46.76918847 252.21636689 47.5 232.3125 C47.53254883 231.5896582 47.56509766 230.86681641 47.59863281 230.12207031 C48.13399121 217.03012393 46.80690202 204.98895773 43.5 192.3125 C43.30696289 191.56822754 43.11392578 190.82395508 42.91503906 190.05712891 C38.55196147 173.96245927 30.55134756 158.74643321 21.38500977 144.87548828 C20.5 143.3125 20.5 143.3125 20.5 141.3125 C19.84 141.3125 19.18 141.3125 18.5 141.3125 C17.08777747 139.25503787 15.78511114 137.19761246 14.5 135.0625 C10.05778763 127.91558275 4.99743293 121.69126742 -0.5 115.3125 C-1.96386165 113.52534734 -3.42228593 111.73372588 -4.875 109.9375 C-8.31731165 105.71945615 -11.82672918 101.56621181 -15.375 97.4375 C-15.88546875 96.84308105 -16.3959375 96.24866211 -16.921875 95.63623047 C-18.90669019 93.32625142 -20.89176413 91.01652443 -22.8828125 88.71191406 C-26.13190809 84.94742831 -29.33349677 81.14671348 -32.5 77.3125 C-33.06009766 76.63703125 -33.62019531 75.9615625 -34.19726562 75.265625 C-56.65481582 47.97295198 -56.65481582 47.97295198 -56.7734375 32.1171875 C-56.08888945 25.0956804 -53.46711491 20.34757713 -48.5 15.3125 C-34.19965438 5.21276676 -17.43867122 -0.09805663 0 0 Z " fill="#1AD5BB" transform="translate(235.5,31.6875)"/>
<path d="M0 0 C8.70936395 7.74165684 10.12891073 19.36962644 10.91015625 30.46875 C11.01747118 32.45426093 11.12450083 34.43982716 11.21627808 36.42611694 C11.31552251 38.56514444 11.42946953 40.70297413 11.54711914 42.84106445 C11.708973 45.79179425 11.86663301 48.74269118 12.02050781 51.69384766 C14.53119966 99.33696027 19.42363948 146.27584114 54.25 182 C54.78423584 182.56267578 55.31847168 183.12535156 55.86889648 183.70507812 C59.98684876 187.96233551 64.32386776 191.50394101 69.1875 194.875 C69.92693848 195.3896582 70.66637695 195.90431641 71.42822266 196.43457031 C90.52511329 209.52888434 110.98531746 217.88695123 133.25 224 C134.41789063 224.33 135.58578125 224.66 136.7890625 225 C143.25403006 226.73735562 149.5686412 227.61858385 156.25 228 C156.50136719 227.49082031 156.75273437 226.98164063 157.01171875 226.45703125 C157.99456405 224.50684295 159.00268649 222.56939721 160.01953125 220.63671875 C171.72552161 198.16752158 175.49145044 175.86445098 175.3125 150.6875 C175.30573242 148.84381836 175.30573242 148.84381836 175.29882812 146.96289062 C175.28720289 143.97520644 175.27086559 140.98763145 175.25 138 C177.40194081 141.22791122 177.5236139 142.2653636 177.62890625 146.0078125 C177.66306641 146.99523437 177.69722656 147.98265625 177.73242188 149 C177.77206055 150.546875 177.77206055 150.546875 177.8125 152.125 C178.00363215 158.48522715 178.26952089 164.75677195 179.04272461 171.07470703 C179.30591127 173.51933605 179.31359318 175.91871341 179.25 178.375 C179.17349274 181.3874735 179.2795748 183.08872439 180.25 186 C178.4375 189.1875 178.4375 189.1875 176.25 192 C175.59 192 174.93 192 174.25 192 C174.29125 192.7425 174.3325 193.485 174.375 194.25 C174.25 197 174.25 197 173.1875 199.0625 C172.0151027 200.9528467 172.0151027 200.9528467 172.75 202.9375 C173.45279254 205.83651924 172.50977196 207.34784849 171.25 210 C170.92 210.7425 170.59 211.485 170.25 212.25 C169.25 214 169.25 214 167.25 215 C165.44438847 217.65531107 165.09606962 220.00006274 164.8125 223.125 C164.626875 224.40375 164.44125 225.6825 164.25 227 C163.26 227.66 162.27 228.32 161.25 229 C160.26 228.67 159.27 228.34 158.25 228 C158.25 228.66 158.25 229.32 158.25 230 C157.59 230 156.93 230 156.25 230 C156.1675 230.763125 156.085 231.52625 156 232.3125 C155.09332371 235.56142336 153.96144236 236.15079631 151.25 238 C152.83323688 238.027193 154.41661062 238.04648306 156 238.0625 C157.32257813 238.07990234 157.32257813 238.07990234 158.671875 238.09765625 C161.18663123 238.10146022 161.18663123 238.10146022 163.28125 237.4375 C165.79200499 236.87955445 167.51774171 237.31693543 170 237.9375 C171.19882812 238.22947266 171.19882812 238.22947266 172.421875 238.52734375 C173.02515625 238.68332031 173.6284375 238.83929688 174.25 239 C174.25 238.34 174.25 237.68 174.25 237 C176.23 236.34 178.21 235.68 180.25 235 C180.58 233.35 180.91 231.7 181.25 230 C182.136875 229.773125 183.02375 229.54625 183.9375 229.3125 C187.71401385 227.81614546 189.55538208 225.99401991 192.25 223 C194.25 221 194.25 221 197.375 220.875 C198.32375 220.91625 199.2725 220.9575 200.25 221 C200.58 220.34 200.91 219.68 201.25 219 C201.91 219.33 202.57 219.66 203.25 220 C203.58 217.36 203.91 214.72 204.25 212 C205.57 211.67 206.89 211.34 208.25 211 C208.58 211.66 208.91 212.32 209.25 213 C210.24 212.67 211.23 212.34 212.25 212 C211.59 210.68 210.93 209.36 210.25 208 C210.91 207.01 211.57 206.02 212.25 205 C212.91 205 213.57 205 214.25 205 C214.25 204.01 214.25 203.02 214.25 202 C214.91 202 215.57 202 216.25 202 C216.91 200.35 217.57 198.7 218.25 197 C220.89 197 223.53 197 226.25 197 C226.188125 195.88625 226.188125 195.88625 226.125 194.75 C226.25398134 191.91241048 226.82051222 190.41226062 228.25 188 C228.91 188 229.57 188 230.25 188 C230.25 187.01 230.25 186.02 230.25 185 C230.91 185 231.57 185 232.25 185 C232.58 182.36 232.91 179.72 233.25 177 C235.56 177 237.87 177 240.25 177 C240.25 175.68 240.25 174.36 240.25 173 C241.24 173 242.23 173 243.25 173 C243.58 171.35 243.91 169.7 244.25 168 C244.91 168 245.57 168 246.25 168 C246.35441406 167.48050781 246.45882813 166.96101562 246.56640625 166.42578125 C247.82100421 161.97375077 249.90411352 157.82598992 251.77734375 153.60546875 C253.21822845 150.07778552 254.2757522 146.67578516 255.25 143 C255.91 143 256.57 143 257.25 143 C250.35704634 178.25706183 221.2133535 210.82436941 192.47216797 230.53222656 C164.90784537 248.7388523 133.92194362 259.56772115 101.25 264 C100.23619263 264.15142456 100.23619263 264.15142456 99.2019043 264.3059082 C56.97965327 269.94599565 11.45310406 261.13291741 -22.75 235 C-27.57142252 231.17228675 -32.1955497 227.13969526 -36.75 223 C-37.76126953 222.09701172 -37.76126953 222.09701172 -38.79296875 221.17578125 C-63.69687333 197.6915767 -79.9241875 161.18012216 -80.97853088 127.10025024 C-81.35574863 111.65321097 -81.64017682 96.05718486 -77.75 81 C-77.56775879 80.28118652 -77.38551758 79.56237305 -77.19775391 78.82177734 C-69.66401613 49.85118839 -54.87257737 22.21492087 -28.66918945 6.29858398 C-19.87951959 1.17817433 -10.20362703 -3.71040983 0 0 Z " fill="#1B8CBE" transform="translate(107.75,99)"/>
<path d="M0 0 C2.15194081 3.22791122 2.2736139 4.2653636 2.37890625 8.0078125 C2.41306641 8.99523437 2.44722656 9.98265625 2.48242188 11 C2.52206055 12.546875 2.52206055 12.546875 2.5625 14.125 C2.75363215 20.48522715 3.01952089 26.75677195 3.79272461 33.07470703 C4.05591127 35.51933605 4.06359318 37.91871341 4 40.375 C3.92349274 43.3874735 4.0295748 45.08872439 5 48 C3.1875 51.1875 3.1875 51.1875 1 54 C0.34 54 -0.32 54 -1 54 C-0.95875 54.7425 -0.9175 55.485 -0.875 56.25 C-1 59 -1 59 -2.0625 61.0625 C-3.2348973 62.9528467 -3.2348973 62.9528467 -2.5 64.9375 C-1.79720746 67.83651924 -2.74022804 69.34784849 -4 72 C-4.33 72.7425 -4.66 73.485 -5 74.25 C-6 76 -6 76 -8 77 C-9.80561153 79.65531107 -10.15393038 82.00006274 -10.4375 85.125 C-10.623125 86.40375 -10.80875 87.6825 -11 89 C-11.99 89.66 -12.98 90.32 -14 91 C-14.99 90.67 -15.98 90.34 -17 90 C-17 90.66 -17 91.32 -17 92 C-17.66 92 -18.32 92 -19 92 C-19.0825 92.763125 -19.165 93.52625 -19.25 94.3125 C-20.15667629 97.56142336 -21.28855764 98.15079631 -24 100 C-22.41676312 100.027193 -20.83338938 100.04648306 -19.25 100.0625 C-18.36828125 100.07410156 -17.4865625 100.08570313 -16.578125 100.09765625 C-14.06336877 100.10146022 -14.06336877 100.10146022 -11.96875 99.4375 C-9.45799501 98.87955445 -7.73225829 99.31693543 -5.25 99.9375 C-4.45078125 100.13214844 -3.6515625 100.32679688 -2.828125 100.52734375 C-2.22484375 100.68332031 -1.6215625 100.83929688 -1 101 C-1 100.34 -1 99.68 -1 99 C0.98 98.34 2.96 97.68 5 97 C5.33 95.35 5.66 93.7 6 92 C6.886875 91.773125 7.77375 91.54625 8.6875 91.3125 C12.46401385 89.81614546 14.30538208 87.99401991 17 85 C19 83 19 83 22.125 82.875 C23.07375 82.91625 24.0225 82.9575 25 83 C25.33 82.34 25.66 81.68 26 81 C26.66 81.33 27.32 81.66 28 82 C28.33 79.36 28.66 76.72 29 74 C30.32 73.67 31.64 73.34 33 73 C33.33 73.66 33.66 74.32 34 75 C35.485 74.505 35.485 74.505 37 74 C36.34 72.68 35.68 71.36 35 70 C35.66 69.01 36.32 68.02 37 67 C37.66 67 38.32 67 39 67 C39 66.01 39 65.02 39 64 C39.66 64 40.32 64 41 64 C41.66 62.35 42.32 60.7 43 59 C45.64 59 48.28 59 51 59 C50.938125 57.88625 50.938125 57.88625 50.875 56.75 C51.00398134 53.91241048 51.57051222 52.41226062 53 50 C53.66 50 54.32 50 55 50 C55 49.01 55 48.02 55 47 C55.66 47 56.32 47 57 47 C57.33 44.36 57.66 41.72 58 39 C60.31 39 62.62 39 65 39 C65 37.68 65 36.36 65 35 C65.99 35 66.98 35 68 35 C68.33 33.35 68.66 31.7 69 30 C69.66 30 70.32 30 71 30 C71.10441406 29.48050781 71.20882813 28.96101563 71.31640625 28.42578125 C72.57100421 23.97375077 74.65411352 19.82598992 76.52734375 15.60546875 C77.96822845 12.07778552 79.0257522 8.67578516 80 5 C80.66 5 81.32 5 82 5 C75.10704634 40.25706183 45.9633535 72.82436941 17.22216797 92.53222656 C-10.34215463 110.7388523 -41.32805638 121.56772115 -74 126 C-75.01380737 126.15142456 -75.01380737 126.15142456 -76.0480957 126.3059082 C-118.27034673 131.94599565 -163.79689594 123.13291741 -198 97 C-202.82142252 93.17228675 -207.4455497 89.13969526 -212 85 C-213.01126953 84.09701172 -213.01126953 84.09701172 -214.04296875 83.17578125 C-221.68223206 75.97201038 -228.4744325 66.91596255 -234 58 C-234 57.34 -234 56.68 -234 56 C-232.515 55.505 -232.515 55.505 -231 55 C-230.5978125 56.3921875 -230.5978125 56.3921875 -230.1875 57.8125 C-229.01789044 60.95197829 -228.35360054 61.82744565 -226 64 C-225.38125 64.94875 -224.7625 65.8975 -224.125 66.875 C-221.96829957 70.04661828 -219.95387009 72.55044919 -217 75 C-214.28836222 75.41986946 -214.28836222 75.41986946 -212 75 C-211.01 77.97 -210.02 80.94 -209 84 C-206.03 83.505 -206.03 83.505 -203 83 C-203 86 -203 86 -204 89 C-201.03 89 -198.06 89 -195 89 C-194.67 89.99 -194.34 90.98 -194 92 C-191.98491642 92.73323796 -191.98491642 92.73323796 -190 93 C-190.33 94.98 -190.66 96.96 -191 99 C-190.30132812 98.98839844 -189.60265625 98.97679687 -188.8828125 98.96484375 C-187.97273438 98.95582031 -187.06265625 98.94679688 -186.125 98.9375 C-185.22007812 98.92589844 -184.31515625 98.91429687 -183.3828125 98.90234375 C-181 99 -181 99 -179 100 C-179 101.98 -179 103.96 -179 106 C-173.52110566 107.82104117 -173.52110566 107.82104117 -168 107 C-165.75 107.4375 -165.75 107.4375 -164 108 C-163.67 109.65 -163.34 111.3 -163 113 C-162.1028125 112.690625 -162.1028125 112.690625 -161.1875 112.375 C-159 112 -159 112 -156 114 C-156 114.66 -156 115.32 -156 116 C-154.85660156 115.98839844 -153.71320313 115.97679687 -152.53515625 115.96484375 C-151.04427246 115.95546712 -149.55338691 115.94636679 -148.0625 115.9375 C-147.30775391 115.92912109 -146.55300781 115.92074219 -145.77539062 115.91210938 C-143.85005687 115.90347559 -141.92464419 115.94775667 -140 116 C-139.67 116.33 -139.34 116.66 -139 117 C-137.33382885 117.04063832 -135.66611905 117.042721 -134 117 C-134.99 117.99 -135.98 118.98 -137 120 C-133.09774837 121.68746017 -129.87454004 122.09409079 -125.6875 122 C-122.13443033 121.9235899 -119.11762388 122.07847418 -115.6875 123 C-110.59194661 124.30819414 -105.62548082 124.09067735 -100.39453125 124 C-97.42726283 124 -94.62625558 124.18753916 -91.6875 124.5625 C-89.8621875 124.7790625 -89.8621875 124.7790625 -88 125 C-87.67 124.67 -87.34 124.34 -87 124 C-85.3826026 123.73912945 -83.75493414 123.54035564 -82.125 123.375 C-81.24070313 123.27960938 -80.35640625 123.18421875 -79.4453125 123.0859375 C-77 123 -77 123 -74 124 C-74 123.01 -74 122.02 -74 121 C-73.01 121 -72.02 121 -71 121 C-71 120.34 -71 119.68 -71 119 C-69.35 119 -67.7 119 -66 119 C-66 118.34 -66 117.68 -66 117 C-62.7 117 -59.4 117 -56 117 C-56 116.34 -56 115.68 -56 115 C-52.535 114.505 -52.535 114.505 -49 114 C-48.67 113.01 -48.34 112.02 -48 111 C-47.01 110.67 -46.02 110.34 -45 110 C-44.34 109.34 -43.68 108.68 -43 108 C-40.04233164 106.05416555 -37.49441549 104.64711398 -34 104 C-33.938125 103.21625 -33.87625 102.4325 -33.8125 101.625 C-33.4103125 100.325625 -33.4103125 100.325625 -33 99 C-32.195625 98.690625 -31.39125 98.38125 -30.5625 98.0625 C-29.716875 97.711875 -28.87125 97.36125 -28 97 C-26.81026883 93.98324557 -26.81026883 93.98324557 -26 91 C-27.21558594 91.01160156 -28.43117187 91.02320313 -29.68359375 91.03515625 C-31.26822764 91.04453278 -32.85286318 91.05363313 -34.4375 91.0625 C-35.23994141 91.07087891 -36.04238281 91.07925781 -36.86914062 91.08789062 C-38.91295221 91.0965143 -40.95683902 91.0522815 -43 91 C-43.33 90.67 -43.66 90.34 -44 90 C-46.32817964 89.63239269 -48.6618385 89.29758419 -51 89 C-51 88.34 -51 87.68 -51 87 C-53.97 87.495 -53.97 87.495 -57 88 C-57 87.01 -57 86.02 -57 85 C-57.86882812 84.86722656 -58.73765625 84.73445313 -59.6328125 84.59765625 C-61.36144531 84.33275391 -61.36144531 84.33275391 -63.125 84.0625 C-64.83042969 83.80146484 -64.83042969 83.80146484 -66.5703125 83.53515625 C-69.71732669 83.04410734 -72.85930783 82.52981281 -76 82 C-77 79 -77 79 -77 76 C-79.97 75.505 -79.97 75.505 -83 75 C-83.33 76.32 -83.66 77.64 -84 79 C-85.32 78.67 -86.64 78.34 -88 78 C-87.67 77.01 -87.34 76.02 -87 75 C-88.32 74.67 -89.64 74.34 -91 74 C-91 73.236875 -91 72.47375 -91 71.6875 C-91.70738078 68.93596946 -91.70738078 68.93596946 -93.70703125 67.96484375 C-97.67924137 66.38038146 -99.8519449 65.90619237 -104 67 C-104.99 66.67 -105.98 66.34 -107 66 C-107 63.36 -107 60.72 -107 58 C-107.94875 58.04125 -108.8975 58.0825 -109.875 58.125 C-113 58 -113 58 -115 56 C-115 55.01 -115 54.02 -115 53 C-115.66 52.67 -116.32 52.34 -117 52 C-117 51.34 -117 50.68 -117 50 C-119.64 50.33 -122.28 50.66 -125 51 C-124.505 50.01 -124.505 50.01 -124 49 C-123.34 49 -122.68 49 -122 49 C-122.99 46.03 -122.99 46.03 -124 43 C-124.99 43 -125.98 43 -127 43 C-127.33 42.01 -127.66 41.02 -128 40 C-128.598125 39.401875 -129.19625 38.80375 -129.8125 38.1875 C-132.31510265 35.68489735 -134.10423043 32.97906647 -136 30 C-135.67 29.34 -135.34 28.68 -135 28 C-134.23429687 28.98226563 -134.23429687 28.98226563 -133.453125 29.984375 C-109.85847438 59.60319174 -78.0806102 76.09361443 -42 86 C-40.83210937 86.33 -39.66421875 86.66 -38.4609375 87 C-31.99596994 88.73735562 -25.6813588 89.61858385 -19 90 C-18.62294922 89.23623047 -18.62294922 89.23623047 -18.23828125 88.45703125 C-17.25543595 86.50684295 -16.24731351 84.56939721 -15.23046875 82.63671875 C-3.52447839 60.16752158 0.24145044 37.86445098 0.0625 12.6875 C0.05573242 10.84381836 0.05573242 10.84381836 0.04882812 8.96289062 C0.03720289 5.97520644 0.02086559 2.98763145 0 0 Z " fill="#1E81BD" transform="translate(283,237)"/>
<path d="M0 0 C3.25395894 3.14899252 6.30045098 6.4304588 9.3125 9.8125 C10.87422255 11.54236886 12.43668763 13.27156775 14 15 C14.58136719 15.66128906 15.16273438 16.32257813 15.76171875 17.00390625 C35.83062132 38.60616317 66.24445161 50.42524164 94 58 C95.20269531 58.33 96.40539062 58.66 97.64453125 59 C101.99194191 60.13743574 106.21628964 61.09101912 110.6875 61.5625 C111.780625 61.706875 112.87375 61.85125 114 62 C114.33 62.66 114.66 63.32 115 64 C101.11983442 80.30919455 84.47216057 92.84409795 63 97 C62.67 97.33 62.34 97.66 62 98 C20.79428787 104.39954635 -24.20311661 95.8955071 -58.42578125 71.6796875 C-64.58986225 67.14772363 -70.34234685 62.14243396 -76 57 C-76.67417969 56.39800781 -77.34835938 55.79601562 -78.04296875 55.17578125 C-85.68223206 47.97201038 -92.4744325 38.91596255 -98 30 C-98 29.34 -98 28.68 -98 28 C-97.01 27.67 -96.02 27.34 -95 27 C-94.731875 27.928125 -94.46375 28.85625 -94.1875 29.8125 C-93.01789044 32.95197829 -92.35360054 33.82744565 -90 36 C-89.38125 36.94875 -88.7625 37.8975 -88.125 38.875 C-85.96829957 42.04661828 -83.95387009 44.55044919 -81 47 C-78.28836222 47.41986946 -78.28836222 47.41986946 -76 47 C-75.01 49.97 -74.02 52.94 -73 56 C-70.03 55.505 -70.03 55.505 -67 55 C-67 58 -67 58 -68 61 C-65.03 61 -62.06 61 -59 61 C-58.67 61.99 -58.34 62.98 -58 64 C-55.98491642 64.73323796 -55.98491642 64.73323796 -54 65 C-54.33 66.98 -54.66 68.96 -55 71 C-54.30132812 70.98839844 -53.60265625 70.97679687 -52.8828125 70.96484375 C-51.97273438 70.95582031 -51.06265625 70.94679688 -50.125 70.9375 C-49.22007813 70.92589844 -48.31515625 70.91429687 -47.3828125 70.90234375 C-45 71 -45 71 -43 72 C-43 73.98 -43 75.96 -43 78 C-37.52110566 79.82104117 -37.52110566 79.82104117 -32 79 C-29.75 79.4375 -29.75 79.4375 -28 80 C-27.67 81.65 -27.34 83.3 -27 85 C-26.1028125 84.690625 -26.1028125 84.690625 -25.1875 84.375 C-23 84 -23 84 -20 86 C-20 86.66 -20 87.32 -20 88 C-18.85660156 87.98839844 -17.71320313 87.97679687 -16.53515625 87.96484375 C-15.04427246 87.95546712 -13.55338691 87.94636679 -12.0625 87.9375 C-11.30775391 87.92912109 -10.55300781 87.92074219 -9.77539062 87.91210938 C-7.85005687 87.90347559 -5.92464419 87.94775667 -4 88 C-3.67 88.33 -3.34 88.66 -3 89 C-1.33382885 89.04063832 0.33388095 89.042721 2 89 C1.01 89.99 0.02 90.98 -1 92 C2.90225163 93.68746017 6.12545996 94.09409079 10.3125 94 C13.86556967 93.9235899 16.88237612 94.07847418 20.3125 95 C25.40805339 96.30819414 30.37451918 96.09067735 35.60546875 96 C38.57273717 96 41.37374442 96.18753916 44.3125 96.5625 C46.1378125 96.7790625 46.1378125 96.7790625 48 97 C48.33 96.67 48.66 96.34 49 96 C50.6173974 95.73912945 52.24506586 95.54035564 53.875 95.375 C54.75929687 95.27960938 55.64359375 95.18421875 56.5546875 95.0859375 C59 95 59 95 62 96 C62 95.01 62 94.02 62 93 C62.99 93 63.98 93 65 93 C65 92.34 65 91.68 65 91 C66.65 91 68.3 91 70 91 C70 90.34 70 89.68 70 89 C73.3 89 76.6 89 80 89 C80 88.34 80 87.68 80 87 C83.465 86.505 83.465 86.505 87 86 C87.33 85.01 87.66 84.02 88 83 C88.99 82.67 89.98 82.34 91 82 C91.66 81.34 92.32 80.68 93 80 C95.95766836 78.05416555 98.50558451 76.64711398 102 76 C102.061875 75.21625 102.12375 74.4325 102.1875 73.625 C102.5896875 72.325625 102.5896875 72.325625 103 71 C103.804375 70.690625 104.60875 70.38125 105.4375 70.0625 C106.283125 69.711875 107.12875 69.36125 108 69 C109.18973117 65.98324557 109.18973117 65.98324557 110 63 C108.78441406 63.01160156 107.56882813 63.02320313 106.31640625 63.03515625 C104.73177236 63.04453278 103.14713682 63.05363313 101.5625 63.0625 C100.76005859 63.07087891 99.95761719 63.07925781 99.13085938 63.08789062 C97.08704779 63.0965143 95.04316098 63.0522815 93 63 C92.67 62.67 92.34 62.34 92 62 C89.67182036 61.63239269 87.3381615 61.29758419 85 61 C85 60.34 85 59.68 85 59 C82.03 59.495 82.03 59.495 79 60 C79 59.01 79 58.02 79 57 C78.13117188 56.86722656 77.26234375 56.73445313 76.3671875 56.59765625 C75.21476563 56.42105469 74.06234375 56.24445313 72.875 56.0625 C71.73804688 55.88847656 70.60109375 55.71445312 69.4296875 55.53515625 C66.28267331 55.04410734 63.14069217 54.52981281 60 54 C59 51 59 51 59 48 C56.03 47.505 56.03 47.505 53 47 C52.67 48.32 52.34 49.64 52 51 C50.68 50.67 49.36 50.34 48 50 C48.33 49.01 48.66 48.02 49 47 C47.68 46.67 46.36 46.34 45 46 C45 45.236875 45 44.47375 45 43.6875 C44.29261922 40.93596946 44.29261922 40.93596946 42.29296875 39.96484375 C38.32075863 38.38038146 36.1480551 37.90619237 32 39 C31.01 38.67 30.02 38.34 29 38 C29 35.36 29 32.72 29 30 C28.05125 30.04125 27.1025 30.0825 26.125 30.125 C23 30 23 30 21 28 C21 27.01 21 26.02 21 25 C20.34 24.67 19.68 24.34 19 24 C19 23.34 19 22.68 19 22 C15.04 22.495 15.04 22.495 11 23 C11.33 22.34 11.66 21.68 12 21 C12.66 21 13.32 21 14 21 C13.01 18.03 13.01 18.03 12 15 C11.01 15 10.02 15 9 15 C8.505 13.515 8.505 13.515 8 12 C7.401875 11.401875 6.80375 10.80375 6.1875 10.1875 C3.67029203 7.67029203 1.84830051 5.03649369 0 2 C0 1.34 0 0.68 0 0 Z " fill="#1F4DB9" transform="translate(147,265)"/>
<path d="M0 0 C8.70936395 7.74165684 10.12891073 19.36962644 10.91015625 30.46875 C11.01747118 32.45426093 11.12450083 34.43982716 11.21627808 36.42611694 C11.31552251 38.56514444 11.42946953 40.70297413 11.54711914 42.84106445 C11.708973 45.79179425 11.86663301 48.74269118 12.02050781 51.69384766 C13.23933424 74.82240673 14.64928943 97.80075178 20.33203125 120.32421875 C21.46354113 124.85507322 22.39298223 129.41044431 23.25 134 C18.00443451 127.43554947 15.8610622 120.25734115 15.5234375 111.93359375 C15.43320313 111.29550781 15.34296875 110.65742188 15.25 110 C14.59 109.67 13.93 109.34 13.25 109 C13.91 109 14.57 109 15.25 109 C15.05664062 108.42636719 14.86328125 107.85273438 14.6640625 107.26171875 C12.74783366 101.01025933 11.74105919 94.85682569 11.0625 88.375 C10.97887207 87.58826904 10.89524414 86.80153809 10.80908203 85.9909668 C10.29040129 80.63963163 10.18025499 75.3757305 10.25 70 C9.59 70.66 8.93 71.32 8.25 72 C7.92 68.04 7.59 64.08 7.25 60 C7.91 60 8.57 60 9.25 60 C9.09402344 58.78054687 8.93804687 57.56109375 8.77734375 56.3046875 C7.98134618 49.15050198 7.90403905 41.96070947 7.73242188 34.76953125 C7.54603377 19.11434187 7.54603377 19.11434187 0.25 6 C0.25 5.34 0.25 4.68 0.25 4 C-1.07 4.33 -2.39 4.66 -3.75 5 C-3.75 4.34 -3.75 3.68 -3.75 3 C-4.41 3 -5.07 3 -5.75 3 C-5.75 3.66 -5.75 4.32 -5.75 5 C-7.07 5 -8.39 5 -9.75 5 C-10.245 4.01 -10.245 4.01 -10.75 3 C-12.07 3.33 -13.39 3.66 -14.75 4 C-15.08 6.31 -15.41 8.62 -15.75 11 C-27.21341463 14.43902439 -27.21341463 14.43902439 -30.9375 13.375 C-31.535625 13.25125 -32.13375 13.1275 -32.75 13 C-35.10216876 14.62842452 -35.71698707 15.90096121 -36.625 18.625 C-36.99625 19.40875 -37.3675 20.1925 -37.75 21 C-40.375 21.8125 -40.375 21.8125 -42.75 22 C-42.894375 22.78375 -43.03875 23.5675 -43.1875 24.375 C-43.75 27 -43.75 27 -44.75 29 C-46.4 29 -48.05 29 -49.75 29 C-51.17485332 32.34398321 -51.17485332 32.34398321 -52.0625 35.8515625 C-53.02202167 38.85006772 -54.78723916 40.73183463 -56.8125 43.125 C-59.7680494 46.17317644 -59.7680494 46.17317644 -60.75 50 C-61.41 50 -62.07 50 -62.75 50 C-62.87375 50.639375 -62.9975 51.27875 -63.125 51.9375 C-63.434375 52.9584375 -63.434375 52.9584375 -63.75 54 C-64.74 54.495 -64.74 54.495 -65.75 55 C-65.688125 55.94875 -65.62625 56.8975 -65.5625 57.875 C-65.624375 58.90625 -65.68625 59.9375 -65.75 61 C-66.74 61.66 -67.73 62.32 -68.75 63 C-68.792721 64.66611905 -68.79063832 66.33382885 -68.75 68 C-69.41 68.99 -70.07 69.98 -70.75 71 C-70.4378236 73.64632287 -70.4378236 73.64632287 -69.75 76 C-72.225 76.495 -72.225 76.495 -74.75 77 C-74.729375 77.9075 -74.70875 78.815 -74.6875 79.75 C-74.73996428 82.47814246 -75.08126265 84.40864277 -75.75 87 C-75.75 87.86625 -75.75 88.7325 -75.75 89.625 C-75.75 92 -75.75 92 -76.75 94 C-76.97239689 95.95643473 -77.14215854 97.91897725 -77.28515625 99.8828125 C-77.37216797 101.04941406 -77.45917969 102.21601563 -77.54882812 103.41796875 C-77.63583984 104.64128906 -77.72285156 105.86460937 -77.8125 107.125 C-77.90337891 108.35605469 -77.99425781 109.58710938 -78.08789062 110.85546875 C-78.31235003 113.90339115 -78.53288542 116.95154703 -78.75 120 C-78.09 120 -77.43 120 -76.75 120 C-76.15667939 124.37573952 -75.61172764 128.57528444 -75.75 133 C-76.41 133 -77.07 133 -77.75 133 C-77.42 133.66 -77.09 134.32 -76.75 135 C-76.54620266 136.80870138 -76.38499005 138.62236592 -76.25 140.4375 C-76.01693358 143.56308718 -75.74525057 146.01424829 -74.75 149 C-74.62218214 151.67394964 -74.70608129 154.32095857 -74.75 157 C-76.87882365 153.80676452 -77.47968503 151.53182552 -78.3125 147.8125 C-78.56128906 146.72582031 -78.81007813 145.63914063 -79.06640625 144.51953125 C-80.87007822 135.23319727 -80.99251986 126.05035253 -81 116.625 C-81.00067474 115.86333527 -81.00134949 115.10167053 -81.00204468 114.31692505 C-80.98607067 102.97433276 -80.59926765 92.02827757 -77.75 81 C-77.56775879 80.28118652 -77.38551758 79.56237305 -77.19775391 78.82177734 C-69.66401613 49.85118839 -54.87257737 22.21492087 -28.66918945 6.29858398 C-19.87951959 1.17817433 -10.20362703 -3.71040983 0 0 Z " fill="#1DE6BA" transform="translate(107.75,99)"/>
<path d="M0 0 C0.268125 0.928125 0.53625 1.85625 0.8125 2.8125 C1.98210956 5.95197829 2.64639946 6.82744565 5 9 C5.61875 9.94875 6.2375 10.8975 6.875 11.875 C9.03170043 15.04661828 11.04612991 17.55044919 14 20 C16.71163778 20.41986946 16.71163778 20.41986946 19 20 C20.485 24.455 20.485 24.455 22 29 C23.98 28.67 25.96 28.34 28 28 C28 31 28 31 27 34 C29.97 34 32.94 34 36 34 C36.33 34.99 36.66 35.98 37 37 C39.01508358 37.73323796 39.01508358 37.73323796 41 38 C40.67 39.98 40.34 41.96 40 44 C40.69867188 43.98839844 41.39734375 43.97679687 42.1171875 43.96484375 C43.02726562 43.95582031 43.93734375 43.94679688 44.875 43.9375 C45.77992187 43.92589844 46.68484375 43.91429687 47.6171875 43.90234375 C50 44 50 44 52 45 C52 46.98 52 48.96 52 51 C57.47889434 52.82104117 57.47889434 52.82104117 63 52 C65.25 52.4375 65.25 52.4375 67 53 C67.495 55.475 67.495 55.475 68 58 C68.598125 57.79375 69.19625 57.5875 69.8125 57.375 C72 57 72 57 75 59 C75 59.66 75 60.32 75 61 C76.14339844 60.98839844 77.28679687 60.97679687 78.46484375 60.96484375 C79.95572754 60.95546712 81.44661309 60.94636679 82.9375 60.9375 C83.69224609 60.92912109 84.44699219 60.92074219 85.22460938 60.91210938 C87.14994313 60.90347559 89.07535581 60.94775667 91 61 C91.33 61.33 91.66 61.66 92 62 C93.66617115 62.04063832 95.33388095 62.042721 97 62 C96.01 62.99 95.02 63.98 94 65 C99.91909699 67.32379363 105.36542478 68.41399134 111.71484375 68.7890625 C114 69 114 69 116 70 C116 70.66 116 71.32 116 72 C73.66217571 68.23663784 35.71911558 50.87913027 7.9375 18.1875 C-3 5.00447402 -3 5.00447402 -3 1 C-1 0 -1 0 0 0 Z " fill="#254AB6" transform="translate(52,292)"/>
<path d="M0 0 C0.66 0 1.32 0 2 0 C-4.88522645 35.21753758 -33.99669974 67.78515377 -62.69433594 87.49707031 C-70.21333287 92.39827161 -78.13484609 96.68501815 -86 101 C-87.32 100.01 -88.64 99.02 -90 98 C-88.875 96.4375 -88.875 96.4375 -87 95 C-83.8125 95.3125 -83.8125 95.3125 -81 96 C-81 95.34 -81 94.68 -81 94 C-78.03 93.01 -78.03 93.01 -75 92 C-74.67 90.35 -74.34 88.7 -74 87 C-73.113125 86.773125 -72.22625 86.54625 -71.3125 86.3125 C-67.53598615 84.81614546 -65.69461792 82.99401991 -63 80 C-61 78 -61 78 -57.875 77.875 C-56.92625 77.91625 -55.9775 77.9575 -55 78 C-54.67 77.34 -54.34 76.68 -54 76 C-53.01 76.495 -53.01 76.495 -52 77 C-51.67 74.36 -51.34 71.72 -51 69 C-49.02 68.505 -49.02 68.505 -47 68 C-46.67 68.66 -46.34 69.32 -46 70 C-45.01 69.67 -44.02 69.34 -43 69 C-43.66 67.68 -44.32 66.36 -45 65 C-44.34 64.01 -43.68 63.02 -43 62 C-42.34 62 -41.68 62 -41 62 C-41 61.01 -41 60.02 -41 59 C-40.34 59 -39.68 59 -39 59 C-38.34 57.35 -37.68 55.7 -37 54 C-34.36 54 -31.72 54 -29 54 C-29.04125 53.2575 -29.0825 52.515 -29.125 51.75 C-28.99601866 48.91241048 -28.42948778 47.41226062 -27 45 C-26.34 45 -25.68 45 -25 45 C-25 44.01 -25 43.02 -25 42 C-24.34 42 -23.68 42 -23 42 C-22.67 39.36 -22.34 36.72 -22 34 C-19.69 34 -17.38 34 -15 34 C-15 32.68 -15 31.36 -15 30 C-14.01 30 -13.02 30 -12 30 C-11.67 28.35 -11.34 26.7 -11 25 C-10.34 25 -9.68 25 -9 25 C-8.89558594 24.48050781 -8.79117188 23.96101563 -8.68359375 23.42578125 C-7.42899579 18.97375077 -5.34588648 14.82598992 -3.47265625 10.60546875 C-2.03177155 7.07778552 -0.9742478 3.67578516 0 0 Z " fill="#1D8EBA" transform="translate(363,242)"/>
<path d="M0 0 C1.32 0 2.64 0 4 0 C2.36699466 4.14225745 -0.63925535 6.93477844 -3.75 10 C-4.26304687 10.52078125 -4.77609375 11.0415625 -5.3046875 11.578125 C-16.16850604 22.38735148 -32.04232502 30.10496613 -47 33 C-47.33 33.33 -47.66 33.66 -48 34 C-56.47790593 35.34256982 -65.00560259 35.11256243 -73.5625 35.0625 C-75.06314955 35.0574746 -76.56380072 35.05291353 -78.06445312 35.04882812 C-81.70966977 35.03790576 -85.35482422 35.02069856 -89 35 C-89 34.34 -89 33.68 -89 33 C-93.29 32.67 -97.58 32.34 -102 32 C-102 31.67 -102 31.34 -102 31 C-97.59785627 30.19961023 -94.21458268 29.77322172 -89.875 30.9375 C-84.70031196 32.28041212 -79.71112096 32.0921619 -74.39453125 32 C-71.42726283 32 -68.62625558 32.18753916 -65.6875 32.5625 C-64.470625 32.706875 -63.25375 32.85125 -62 33 C-61.67 32.67 -61.34 32.34 -61 32 C-59.3826026 31.73912945 -57.75493414 31.54035564 -56.125 31.375 C-55.24070313 31.27960938 -54.35640625 31.18421875 -53.4453125 31.0859375 C-51 31 -51 31 -48 32 C-48 31.01 -48 30.02 -48 29 C-47.01 29 -46.02 29 -45 29 C-45 28.34 -45 27.68 -45 27 C-43.35 27 -41.7 27 -40 27 C-40 26.34 -40 25.68 -40 25 C-36.7 25 -33.4 25 -30 25 C-30 24.34 -30 23.68 -30 23 C-27.69 22.67 -25.38 22.34 -23 22 C-22.505 20.515 -22.505 20.515 -22 19 C-21.01 18.67 -20.02 18.34 -19 18 C-18.34 17.34 -17.68 16.68 -17 16 C-14.04233164 14.05416555 -11.49441549 12.64711398 -8 12 C-7.938125 11.21625 -7.87625 10.4325 -7.8125 9.625 C-7.544375 8.75875 -7.27625 7.8925 -7 7 C-5.33927151 6.31867549 -3.672233 5.65257873 -2 5 C-0.63921965 2.47627099 -0.63921965 2.47627099 0 0 Z " fill="#1536B6" transform="translate(257,329)"/>
<path d="M0 0 C0.268125 0.928125 0.53625 1.85625 0.8125 2.8125 C1.98210956 5.95197829 2.64639946 6.82744565 5 9 C5.61875 9.94875 6.2375 10.8975 6.875 11.875 C9.03170043 15.04661828 11.04612991 17.55044919 14 20 C16.71163778 20.41986946 16.71163778 20.41986946 19 20 C20.485 24.455 20.485 24.455 22 29 C23.98 28.67 25.96 28.34 28 28 C28 31 28 31 27 34 C29.97 34 32.94 34 36 34 C36.33 34.99 36.66 35.98 37 37 C39.01508358 37.73323796 39.01508358 37.73323796 41 38 C40.67 39.98 40.34 41.96 40 44 C43.3 44 46.6 44 50 44 C49.34 44.99 48.68 45.98 48 47 C47.34 47 46.68 47 46 47 C46 47.66 46 48.32 46 49 C47.65 49.66 49.3 50.32 51 51 C50.505 51.99 50.505 51.99 50 53 C33.27251325 43.26244858 18.18087774 31.35785266 6.3125 15.9375 C5.62317383 15.05868164 5.62317383 15.05868164 4.91992188 14.16210938 C-3 3.98258069 -3 3.98258069 -3 1 C-1 0 -1 0 0 0 Z " fill="#2063B9" transform="translate(52,292)"/>
<path d="M0 0 C0.66 0.33 1.32 0.66 2 1 C1.67 2.65 1.34 4.3 1 6 C-1.31 6.66 -3.62 7.32 -6 8 C-6 10.31 -6 12.62 -6 15 C-7.65 15 -9.3 15 -11 15 C-10.773125 15.5775 -10.54625 16.155 -10.3125 16.75 C-10 19 -10 19 -11.3125 21.25 C-11.869375 21.8275 -12.42625 22.405 -13 23 C-13.66 23 -14.32 23 -15 23 C-15.07654536 27.51617599 -15.10228696 31.59085217 -14 36 C-13.34 36 -12.68 36 -12 36 C-11.73445312 36.71027344 -11.46890625 37.42054687 -11.1953125 38.15234375 C-10.84210938 39.07144531 -10.48890625 39.99054688 -10.125 40.9375 C-9.77695313 41.85402344 -9.42890625 42.77054688 -9.0703125 43.71484375 C-8.2180914 46.14941056 -8.2180914 46.14941056 -6 47 C-6 47.99 -6 48.98 -6 50 C-5.34 50 -4.68 50 -4 50 C-2.67578125 51.6796875 -2.67578125 51.6796875 -1.3125 53.875 C-0.85488281 54.59429687 -0.39726562 55.31359375 0.07421875 56.0546875 C0.37972656 56.69664063 0.68523437 57.33859375 1 58 C0.67 58.66 0.34 59.32 0 60 C-9.69239553 48.25991527 -19.12198083 36.07453302 -18 20 C-16.71704144 13.26446755 -13.09377213 8.17149621 -7.5234375 4.26171875 C-2.64043657 1.20104814 -2.64043657 1.20104814 0 0 Z " fill="#1EE7BA" transform="translate(197,41)"/>
<path d="M0 0 C3.25395894 3.14899252 6.30045098 6.4304588 9.3125 9.8125 C10.87422255 11.54236886 12.43668763 13.27156775 14 15 C14.87205078 15.99193359 14.87205078 15.99193359 15.76171875 17.00390625 C25.99987433 28.02430293 39.8671809 35.92367909 53 43 C49.89984991 43.85432111 48.05817494 44.18380965 45 43 C44.54625 42.525625 44.0925 42.05125 43.625 41.5625 C41.31463089 39.34099124 39.08368849 38.75518902 36 38 C33.85744207 38.38932856 33.85744207 38.38932856 32 39 C30.515 38.505 30.515 38.505 29 38 C29 35.36 29 32.72 29 30 C28.05125 30.04125 27.1025 30.0825 26.125 30.125 C23 30 23 30 21 28 C21 27.01 21 26.02 21 25 C20.34 24.67 19.68 24.34 19 24 C19 23.34 19 22.68 19 22 C15.04 22.495 15.04 22.495 11 23 C11.33 22.34 11.66 21.68 12 21 C12.66 21 13.32 21 14 21 C13.34 19.02 12.68 17.04 12 15 C11.01 15 10.02 15 9 15 C8.67 14.01 8.34 13.02 8 12 C7.1028125 11.1028125 7.1028125 11.1028125 6.1875 10.1875 C3.67029203 7.67029203 1.84830051 5.03649369 0 2 C0 1.34 0 0.68 0 0 Z " fill="#2A65B0" transform="translate(147,265)"/>
<path d="M0 0 C0.66 0 1.32 0 2 0 C-2.34114673 22.20471602 -16.97599401 45.32816996 -33 61 C-33.125 56.25 -33.125 56.25 -32 54 C-31.01 54 -30.02 54 -29 54 C-29.04125 53.2575 -29.0825 52.515 -29.125 51.75 C-28.99601866 48.91241048 -28.42948778 47.41226062 -27 45 C-26.34 45 -25.68 45 -25 45 C-25 44.01 -25 43.02 -25 42 C-24.34 42 -23.68 42 -23 42 C-22.67 39.36 -22.34 36.72 -22 34 C-19.69 34 -17.38 34 -15 34 C-15 32.68 -15 31.36 -15 30 C-14.01 30 -13.02 30 -12 30 C-11.67 28.35 -11.34 26.7 -11 25 C-10.34 25 -9.68 25 -9 25 C-8.89558594 24.48050781 -8.79117187 23.96101563 -8.68359375 23.42578125 C-7.42899579 18.97375077 -5.34588648 14.82598992 -3.47265625 10.60546875 C-2.03177155 7.07778552 -0.9742478 3.67578516 0 0 Z " fill="#309DAF" transform="translate(363,242)"/>
<path d="M0 0 C4.79080625 2.58703538 8.91575086 5.38739634 13 9 C13.61746094 9.5259375 14.23492187 10.051875 14.87109375 10.59375 C19.77911401 14.80335802 24.76554817 19.10109961 29 24 C29 24.66 29 25.32 29 26 C29.99 26.33 30.98 26.66 32 27 C32.93041138 28.30946787 33.84726185 29.63037222 34.69921875 30.9921875 C36.36894897 33.56948881 38.18245071 36.02489578 40 38.5 C48 49.47014925 48 49.47014925 48 52 C47.01 51.67 46.02 51.34 45 51 C44.71125 50.2575 44.4225 49.515 44.125 48.75 C43.13262742 45.81841199 43.13262742 45.81841199 40.5625 43.5625 C38 41 38 41 36.5625 37.875 C34.60275945 34.26907739 32.67396705 33.64155974 29 32 C27 29 27 29 27 26 C26.1028125 25.566875 26.1028125 25.566875 25.1875 25.125 C20.18390805 22.55172414 20.18390805 22.55172414 19 19 C18.34 18.67 17.68 18.34 17 18 C17 17.34 17 16.68 17 16 C16.34 15.67 15.68 15.34 15 15 C11.45174129 13.08939916 9.21684408 11.38360412 7 8 C5.35 8.33 3.7 8.66 2 9 C0 3.375 0 3.375 0 0 Z " fill="#43DEBC" transform="translate(304,54)"/>
<path d="M0 0 C0.33 0 0.66 0 1 0 C2.64728033 11.79808888 1.2947885 23.22962767 0 35 C0.66 35 1.32 35 2 35 C2.59332061 39.37573952 3.13827236 43.57528444 3 48 C2.34 48 1.68 48 1 48 C1.33 48.66 1.66 49.32 2 50 C2.20379734 51.80870138 2.36500995 53.62236592 2.5 55.4375 C2.73306642 58.56308718 3.00474943 61.01424829 4 64 C4.12781786 66.67394964 4.04391871 69.32095857 4 72 C1.87117635 68.80676452 1.27031497 66.53182552 0.4375 62.8125 C0.06431641 61.18248047 0.06431641 61.18248047 -0.31640625 59.51953125 C-1.99506229 50.87685073 -2.18625282 42.41603073 -2.18530273 33.63916016 C-2.1874746 31.40116929 -2.20563574 29.16368435 -2.22460938 26.92578125 C-2.25917721 17.75656834 -1.59130634 9.05376671 0 0 Z " fill="#42AEB1" transform="translate(29,184)"/>
<path d="M0 0 C2.15194081 3.22791122 2.2736139 4.2653636 2.37890625 8.0078125 C2.43014648 9.48894531 2.43014648 9.48894531 2.48242188 11 C2.50884766 12.03125 2.53527344 13.0625 2.5625 14.125 C2.75363215 20.48522715 3.01952089 26.75677195 3.79272461 33.07470703 C4.05591127 35.51933605 4.06359318 37.91871341 4 40.375 C3.92349274 43.3874735 4.0295748 45.08872439 5 48 C3.1875 51.1875 3.1875 51.1875 1 54 C0.34 54 -0.32 54 -1 54 C-0.87625 55.0209375 -0.87625 55.0209375 -0.75 56.0625 C-1.03081622 59.36209057 -2.18847796 61.36457285 -3.91015625 64.15234375 C-5.58044012 66.98404364 -6.75881428 69.95909498 -8 73 C-8.66 72.67 -9.32 72.34 -10 72 C-9.68546875 71.28199219 -9.3709375 70.56398438 -9.046875 69.82421875 C-6.27969406 63.13130824 -4.25690194 56.57375092 -2.75 49.5 C-2.50588379 48.38177856 -2.50588379 48.38177856 -2.25683594 47.2409668 C0.05252641 35.83266779 0.14493075 24.28487193 0.0625 12.6875 C0.05798828 11.45837891 0.05347656 10.22925781 0.04882812 8.96289062 C0.03720289 5.97520644 0.02086559 2.98763145 0 0 Z " fill="#40A3B2" transform="translate(283,237)"/>
<path d="M0 0 C1.14881789 3.95123728 0.89779343 6.95992957 0 11 C-0.99 11.66 -1.98 12.32 -3 13 C-3 13.99 -3 14.98 -3 16 C-3 16.99 -3 17.98 -3 19 C-3.99 19.66 -4.98 20.32 -6 21 C-6.042721 22.66611905 -6.04063832 24.33382885 -6 26 C-6.66 26.99 -7.32 27.98 -8 29 C-7.6878236 31.64632287 -7.6878236 31.64632287 -7 34 C-9.475 34.495 -9.475 34.495 -12 35 C-11.979375 35.9075 -11.95875 36.815 -11.9375 37.75 C-11.98996428 40.47814246 -12.33126265 42.40864277 -13 45 C-13.03786901 46.66623639 -13.04627845 48.33397597 -13 50 C-13.99 50.495 -13.99 50.495 -15 51 C-16.56271665 32.97666796 -8.12007392 15.61818472 0 0 Z " fill="#20D3B9" transform="translate(45,141)"/>
<path d="M0 0 C13.34954246 26.69908493 4.0466322 65.72164488 -3 93 C-3.33 93 -3.66 93 -4 93 C-3.34958332 86.17062481 -2.19637084 79.67419307 -0.49609375 73.03125 C2.32888558 61.46440549 3.17712726 49.68305855 3.1875 37.8125 C3.18830566 36.92788086 3.18911133 36.04326172 3.18994141 35.13183594 C3.15130579 30.64838704 2.90249449 26.41139309 2 22 C1.34 22 0.68 22 0 22 C0 14.74 0 7.48 0 0 Z " fill="#40BAB1" transform="translate(369,148)"/>
<path d="M0 0 C0.33 0 0.66 0 1 0 C1.06731323 1.1449292 1.06731323 1.1449292 1.13598633 2.31298828 C2.3959094 23.24685333 3.93568757 43.92675825 9.08203125 64.32421875 C10.21354113 68.85507322 11.14298223 73.41044431 12 78 C6.75443451 71.43554947 4.6110622 64.25734115 4.2734375 55.93359375 C4.18320313 55.29550781 4.09296875 54.65742188 4 54 C3.34 53.67 2.68 53.34 2 53 C2.66 53 3.32 53 4 53 C3.70996094 52.13955078 3.70996094 52.13955078 3.4140625 51.26171875 C-1.74260338 34.43873453 -1.18517833 17.36309683 0 0 Z " fill="#34A9AC" transform="translate(119,155)"/>
<path d="M0 0 C11.64849737 21.79750214 6.52115665 53.10560374 1 76 C0.67 76 0.34 76 0 76 C0.43402723 68.69006766 1.03603128 61.50080032 2.0625 54.25 C4.14117387 38.88809311 3.94569872 22.32327047 0.40234375 7.21875 C-0.04114245 4.77311734 -0.06550062 2.48029021 0 0 Z " fill="#D7FBFB" transform="translate(278,220)"/>
<path d="M0 0 C0.66 0 1.32 0 2 0 C2.97099482 2.62168601 3.06599958 3.79692438 2.1875 6.5 C1.795625 7.325 1.40375 8.15 1 9 C0.67 9.7425 0.34 10.485 0 11.25 C-1 13 -1 13 -3 14 C-4.80561153 16.65531107 -5.15393038 19.00006274 -5.4375 22.125 C-5.623125 23.40375 -5.80875 24.6825 -6 26 C-6.99 26.66 -7.98 27.32 -9 28 C-9.99 27.67 -10.98 27.34 -12 27 C-12 27.66 -12 28.32 -12 29 C-12.66 29 -13.32 29 -14 29 C-14.33 29.99 -14.66 30.98 -15 32 C-15.33 31.34 -15.66 30.68 -16 30 C-15.67 29.34 -15.34 28.68 -15 28 C-15.66 27.67 -16.32 27.34 -17 27 C-16.01 27 -15.02 27 -14 27 C-13.74476563 26.47921875 -13.48953125 25.9584375 -13.2265625 25.421875 C-11.66311906 22.33482108 -10.01918305 19.29478342 -8.375 16.25 C-8.05015625 15.64800781 -7.7253125 15.04601562 -7.390625 14.42578125 C-6.59429415 12.95022703 -5.79722161 11.47507314 -5 10 C-4.34 10 -3.68 10 -3 10 C-2.01 6.7 -1.02 3.4 0 0 Z " fill="#248EB8" transform="translate(278,300)"/>
<path d="M0 0 C0.33 0 0.66 0 1 0 C1.08564209 0.78648926 1.17128418 1.57297852 1.25952148 2.38330078 C1.65043297 5.96406051 2.04394121 9.54453031 2.4375 13.125 C2.57220703 14.3625 2.70691406 15.6 2.84570312 16.875 C2.97783203 18.07382813 3.10996094 19.27265625 3.24609375 20.5078125 C3.36654053 21.60754395 3.4869873 22.70727539 3.61108398 23.84033203 C3.87280059 25.96659459 4.18593824 28.08708741 4.54711914 30.19873047 C5.02770572 33.17137219 5 35.99514016 5 39 C5.33 39.33 5.66 39.66 6 40 C6.08700342 41.63472882 6.10701063 43.27314055 6.09765625 44.91015625 C6.09443359 45.89951172 6.09121094 46.88886719 6.08789062 47.90820312 C6.07951172 48.94912109 6.07113281 49.99003906 6.0625 51.0625 C6.05798828 52.10728516 6.05347656 53.15207031 6.04882812 54.22851562 C6.03699913 56.8190666 6.02051689 59.40950559 6 62 C5.67 62 5.34 62 5 62 C3.08939963 49.63204696 1.66977286 37.3006421 0.8125 24.8125 C0.72887207 23.60891846 0.64524414 22.40533691 0.55908203 21.1652832 C0.10342252 14.09962104 -0.10529241 7.07978973 0 0 Z " fill="#DCFCFC" transform="translate(119,144)"/>
<path d="M0 0 C5.82924373 1.07683074 11.35968673 1.16740024 17.2734375 1.0625 C20.20267149 1.0625 22.97310627 1.25650556 25.875 1.625 C27.091875 1.769375 28.30875 1.91375 29.5625 2.0625 C29.8925 1.7325 30.2225 1.4025 30.5625 1.0625 C32.15723162 0.77492545 33.76474767 0.5565365 35.375 0.375 C36.24769531 0.26800781 37.12039062 0.16101563 38.01953125 0.05078125 C40.78836307 0.06354084 42.22269519 0.63898239 44.5625 2.0625 C41.11513742 5.50986258 31.3281309 4.15133261 26.68359375 4.16015625 C23.78898731 4.15729133 20.89455307 4.14193469 18 4.125 C16.49935045 4.1199746 14.99869928 4.11541353 13.49804688 4.11132812 C9.85283023 4.10040576 6.20767578 4.08319856 2.5625 4.0625 C2.5625 3.4025 2.5625 2.7425 2.5625 2.0625 C-1.7275 1.7325 -6.0175 1.4025 -10.4375 1.0625 C-10.4375 0.7325 -10.4375 0.4025 -10.4375 0.0625 C-6.58808542 -0.93291824 -3.87175375 -0.82160655 0 0 Z " fill="#2636AB" transform="translate(165.4375,359.9375)"/>
<path d="M0 0 C0.66 0 1.32 0 2 0 C2.83196195 5.09680898 3.17262669 10.06715224 3.203125 15.234375 C3.20882507 15.99421692 3.21452515 16.75405884 3.22039795 17.53692627 C3.22978168 19.13023511 3.2363553 20.72356278 3.24023438 22.31689453 C3.25002878 24.75717142 3.2811478 27.19663576 3.3125 29.63671875 C3.31902294 31.1900992 3.32427619 32.74348562 3.328125 34.296875 C3.3404718 35.02501404 3.3528186 35.75315308 3.36553955 36.50335693 C3.34607752 40.89955431 3.26941435 41.73058565 0 45 C-0.33 41.04 -0.66 37.08 -1 33 C-0.34 33 0.32 33 1 33 C0.83628906 31.77410156 0.67257813 30.54820312 0.50390625 29.28515625 C-0.15729113 23.33437982 -0.10936261 17.41789017 -0.0625 11.4375 C-0.05798828 10.33341797 -0.05347656 9.22933594 -0.04882812 8.09179688 C-0.0371514 5.394473 -0.02077525 2.69726653 0 0 Z " fill="#32C4B8" transform="translate(116,126)"/>
<path d="M0 0 C0.268125 0.928125 0.53625 1.85625 0.8125 2.8125 C1.98210956 5.95197829 2.64639946 6.82744565 5 9 C5.61875 9.94875 6.2375 10.8975 6.875 11.875 C9.03170043 15.04661828 11.04612991 17.55044919 14 20 C16.71163778 20.41986946 16.71163778 20.41986946 19 20 C19.18175781 20.61488281 19.36351563 21.22976563 19.55078125 21.86328125 C19.80214844 22.67152344 20.05351563 23.47976563 20.3125 24.3125 C20.55613281 25.11300781 20.79976562 25.91351563 21.05078125 26.73828125 C22.04182023 29.09964573 23.08074943 30.33879993 25 32 C24.34 32.66 23.68 33.32 23 34 C13.16237747 24.67614112 4.17938952 14.54365879 -3 3 C-3 2.34 -3 1.68 -3 1 C-1 0 -1 0 0 0 Z M24 29 C26 30 26 30 26 30 Z " fill="#2371B6" transform="translate(52,292)"/>
<path d="M0 0 C6.82731101 -0.26868328 12.50091638 0.61511679 19.0625 2.4375 C26.23059871 4.38990004 26.23059871 4.38990004 33.55859375 5.53515625 C34.69425781 5.68855469 35.82992187 5.84195312 37 6 C37.495 6.99 37.495 6.99 38 8 C34.6872733 9.10424223 33.6715846 8.86309912 30.375 8.0625 C26.81649486 7.27868829 23.5817194 6.87919249 19.9375 6.9375 C18.638125 6.958125 17.33875 6.97875 16 7 C15.67 6.67 15.34 6.34 15 6 C12.67182036 5.63239269 10.3381615 5.29758419 8 5 C8 4.34 8 3.68 8 3 C6.02 3.33 4.04 3.66 2 4 C2 3.01 2 2.02 2 1 C1.34 0.67 0.68 0.34 0 0 Z " fill="#253EAF" transform="translate(224,321)"/>
<path d="M0 0 C1.65 0 3.3 0 5 0 C5.33 0.66 5.66 1.32 6 2 C5.34 2 4.68 2 4 2 C4.0928125 2.88945312 4.185625 3.77890625 4.28125 4.6953125 C3.91965874 8.94400975 2.5968641 10.03620791 -0.5 12.875 C-1.3353125 13.65617187 -2.170625 14.43734375 -3.03125 15.2421875 C-3.6809375 15.82226562 -4.330625 16.40234375 -5 17 C-5.99 16.34 -6.98 15.68 -8 15 C-7.34 15 -6.68 15 -6 15 C-6.66 13.68 -7.32 12.36 -8 11 C-7.34 10.01 -6.68 9.02 -6 8 C-5.34 8 -4.68 8 -4 8 C-4 7.01 -4 6.02 -4 5 C-3.34 5 -2.68 5 -2 5 C-1.34 3.35 -0.68 1.7 0 0 Z " fill="#2196BC" transform="translate(326,296)"/>
<path d="M0 0 C-18.41271822 8.83810474 -41.3184947 17.50136983 -62 17 C-62 16.67 -62 16.34 -62 16 C-55.72585014 14.12573066 -49.4449139 12.65243217 -43 11.5 C-33.88192847 9.85456108 -25.5005666 7.70933815 -17 4 C-14.45512332 3.20323955 -11.90072903 2.46209297 -9.33203125 1.74609375 C-6.97618107 1.07311831 -6.97618107 1.07311831 -4.88671875 -0.15234375 C-3 -1 -3 -1 0 0 Z " fill="#3C82AD" transform="translate(272,345)"/>
<path d="M0 0 C0.66 0 1.32 0 2 0 C2 0.66 2 1.32 2 2 C1.21625 2.763125 0.4325 3.52625 -0.375 4.3125 C-3.77017107 7.78850847 -4.87644188 10.30788199 -5.23046875 15.15625 C-5.21628906 16.2596875 -5.20210937 17.363125 -5.1875 18.5 C-5.18105469 19.6034375 -5.17460937 20.706875 -5.16796875 21.84375 C-5.01744156 24.67226083 -4.64204162 27.24692555 -4 30 C-3.34 30 -2.68 30 -2 30 C-1.73445312 30.71027344 -1.46890625 31.42054687 -1.1953125 32.15234375 C-0.84210938 33.07144531 -0.48890625 33.99054688 -0.125 34.9375 C0.22304687 35.85402344 0.57109375 36.77054688 0.9296875 37.71484375 C1.7819086 40.14941056 1.7819086 40.14941056 4 41 C4 41.99 4 42.98 4 44 C4.66 44 5.32 44 6 44 C7.32421875 45.6796875 7.32421875 45.6796875 8.6875 47.875 C9.14511719 48.59429687 9.60273438 49.31359375 10.07421875 50.0546875 C10.37972656 50.69664063 10.68523437 51.33859375 11 52 C10.67 52.66 10.34 53.32 10 54 C0.30760447 42.25991527 -9.12198083 30.07453302 -8 14 C-6.89978906 8.22389257 -4.05860106 4.16266775 0 0 Z " fill="#4CDCBA" transform="translate(187,47)"/>
<path d="M0 0 C0.66 0 1.32 0 2 0 C2.66 0.99 3.32 1.98 4 3 C4.99 2.67 5.98 2.34 7 2 C7.66 2.66 8.32 3.32 9 4 C8.01 4.33 7.02 4.66 6 5 C6 5.66 6 6.32 6 7 C6.66 7.33 7.32 7.66 8 8 C8.59765625 9.8203125 8.59765625 9.8203125 9.0625 12.125 C9.23007812 12.94355469 9.39765625 13.76210937 9.5703125 14.60546875 C9.9174468 16.53995354 10.18936188 18.48784334 10.4375 20.4375 C11.05305487 24.33601419 12.18122081 27.85066159 13.4765625 31.5703125 C14.07850271 34.36439317 13.73096595 36.26131425 13 39 C12.67 39 12.34 39 12 39 C11.78085937 37.9584375 11.56171875 36.916875 11.3359375 35.84375 C9.34794742 26.74158013 6.79868077 18.14968737 3.3671875 9.48828125 C2.13775818 6.35148014 1.03407257 3.20562498 0 0 Z " fill="#2CC2B4" transform="translate(270,198)"/>
<path d="M0 0 C0.99 0 1.98 0 3 0 C3.33 0.66 3.66 1.32 4 2 C4.99 2 5.98 2 7 2 C7 2.66 7 3.32 7 4 C-11.23443983 21 -11.23443983 21 -17 21 C-17 20.34 -17 19.68 -17 19 C-16.34 18.67 -15.68 18.34 -15 18 C-14.67 17.01 -14.34 16.02 -14 15 C-12.35 15 -10.7 15 -9 15 C-9 14.34 -9 13.68 -9 13 C-8.01 13 -7.02 13 -6 13 C-6 12.34 -6 11.68 -6 11 C-5.01 10.34 -4.02 9.68 -3 9 C-1.99194445 6.82102508 -1.99194445 6.82102508 -1.3125 4.375 C-1.06113281 3.55773437 -0.80976563 2.74046875 -0.55078125 1.8984375 C-0.36902344 1.27195312 -0.18726563 0.64546875 0 0 Z " fill="#398FAE" transform="translate(313,310)"/>
<path d="M0 0 C0.66 0 1.32 0 2 0 C6.43376457 8.57047791 10.6240649 17.04162445 13.89453125 26.1328125 C15.07742379 29.20080942 16.51742087 32.06707173 18 35 C19.84427995 40.24163775 20.19224574 44.52099641 20 50 C17.99945615 46.40811445 16.90981484 42.60669587 15.75 38.6875 C12.08363361 26.70256784 7.52089934 15.42314105 1.3203125 4.51171875 C0 2 0 2 0 0 Z " fill="#CEFDF8" transform="translate(351,102)"/>
<path d="M0 0 C2.21443632 3.32165449 3.65218602 6.7763338 5.1875 10.4375 C8.2687568 17.65809004 11.84343486 24.32928148 16 31 C15.34 31.33 14.68 31.66 14 32 C12.33333333 30.33333333 10.66666667 28.66666667 9 27 C8.21625 26.38125 7.4325 25.7625 6.625 25.125 C5 23 5 23 5.25 19.25 C5.4975 18.1775 5.745 17.105 6 16 C5.34 16 4.68 16 4 16 C2.07528683 10.66164461 0.60108576 5.65020618 0 0 Z " fill="#3384AE" transform="translate(131,233)"/>
<path d="M0 0 C0 0.66 0 1.32 0 2 C2.64 1.67 5.28 1.34 8 1 C7.67 2.32 7.34 3.64 7 5 C-6.125 8.9375 -6.125 8.9375 -12 6 C-7.9356402 1.59694355 -5.91662521 0 0 0 Z " fill="#24E4BC" transform="translate(85,105)"/>
<path d="M0 0 C0.75 1.75 0.75 1.75 1 4 C-1.58390132 7.37894788 -4.12446164 8.50263291 -8 10 C-10.71493314 11.59255854 -13.36133946 13.28454327 -16 15 C-15.01 15.66 -14.02 16.32 -13 17 C-17.92737019 18.97094808 -21.78020872 19.1799928 -27 19 C-24.08299161 16.68815186 -21.11971868 14.94894639 -17.8125 13.25 C-11.17918348 9.68914334 -5.24110564 5.42126865 0 0 Z " fill="#2575CA" transform="translate(253,338)"/>
<path d="M0 0 C2.31 0 4.62 0 7 0 C7.33 2.31 7.66 4.62 8 7 C8.66 7 9.32 7 10 7 C10 7.66 10 8.32 10 9 C11.32 9.66 12.64 10.32 14 11 C14 11.99 14 12.98 14 14 C14.804375 14.2475 15.60875 14.495 16.4375 14.75 C19 16 19 16 19.8125 18.125 C19.874375 18.74375 19.93625 19.3625 20 20 C20.66 20 21.32 20 22 20 C23.0625 21.8125 23.0625 21.8125 24 24 C23.67 24.99 23.34 25.98 23 27 C22.57589844 26.443125 22.15179688 25.88625 21.71484375 25.3125 C15.58558693 17.33773069 9.45084541 10.14077528 1.72265625 3.6640625 C1.15417969 3.11492187 0.58570313 2.56578125 0 2 C0 1.34 0 0.68 0 0 Z " fill="#D5FDF9" transform="translate(320,65)"/>
<path d="M0 0 C0.73605469 0.08378906 1.47210938 0.16757812 2.23046875 0.25390625 C3.20628906 0.35574219 4.18210938 0.45757812 5.1875 0.5625 C6.15042969 0.66691406 7.11335937 0.77132813 8.10546875 0.87890625 C10.99497744 1.12248668 10.99497744 1.12248668 13.73828125 0.40234375 C14.48464844 0.26957031 15.23101562 0.13679688 16 0 C18 2 18 2 18 4 C20.475 4.495 20.475 4.495 23 5 C23 5.66 23 6.32 23 7 C24.45833358 8.62514468 24.45833358 8.62514468 26 10 C16.95544533 7.85638413 8.55316512 4.56670448 0 1 C0 0.67 0 0.34 0 0 Z " fill="#EEF5FA" transform="translate(209,312)"/>
<path d="M0 0 C2.32100162 3.48150244 3.67675155 7.10566684 5.125 11 C5.40214844 11.72445312 5.67929687 12.44890625 5.96484375 13.1953125 C7.11095711 16.25537872 8 18.70542099 8 22 C6.35 22 4.7 22 3 22 C1.10216757 18.75754945 0.67370911 16.10408848 0.4375 12.375 C0.25661545 8.54278845 0.25661545 8.54278845 -1 5 C-0.72057545 3.32345271 -0.39171753 1.65391846 0 0 Z " fill="#1FE7BC" transform="translate(359,122)"/>
<path d="M0 0 C0.66 0.33 1.32 0.66 2 1 C1.34 9.58 0.68 18.16 0 27 C0.66 27 1.32 27 2 27 C2.59332061 31.37573952 3.13827236 35.57528444 3 40 C2.01 40 1.02 40 0 40 C-0.95438425 36.78191489 -1.12886115 33.87780332 -1.1328125 30.52734375 C-1.13410156 29.46193359 -1.13539062 28.39652344 -1.13671875 27.29882812 C-1.13285156 26.18958984 -1.12898438 25.08035156 -1.125 23.9375 C-1.12886719 22.85533203 -1.13273437 21.77316406 -1.13671875 20.65820312 C-1.12839275 13.71848441 -0.75773177 6.89812077 0 0 Z " fill="#27BAB5" transform="translate(29,192)"/>
<path d="M0 0 C2.78111753 0.29797688 3.94005776 0.94380415 6 2.875 C10.76314379 10.31741217 12.62034691 18.24899621 13 27 C12.34 27 11.68 27 11 27 C9.58556614 23.9825411 8.84249015 21.28790547 8.5 18 C8.06562221 14.0231964 7.49290008 10.49290008 4.5625 7.5625 C2.36386989 5.36386989 1.30466063 2.79570135 0 0 Z " fill="#3FD8B9" transform="translate(105,99)"/>
<path d="M0 0 C2.79262296 4.28202187 2.13741692 8.66848716 2.00976562 13.59960938 C1.95110368 16.70869235 2.00681637 19.0204491 3 22 C1.1875 25.1875 1.1875 25.1875 -1 28 C-1.66 28 -2.32 28 -3 28 C-3.33 28.66 -3.66 29.32 -4 30 C-3.69249629 27.85344499 -3.3788634 25.70776715 -3.0625 23.5625 C-2.88847656 22.36753906 -2.71445312 21.17257812 -2.53515625 19.94140625 C-2 17 -2 17 -1 16 C-0.76321284 13.30764224 -0.57801975 10.63501844 -0.4375 7.9375 C-0.39431641 7.17888672 -0.35113281 6.42027344 -0.30664062 5.63867188 C-0.20026367 3.75934562 -0.09960066 1.87969756 0 0 Z " fill="#1EA2BC" transform="translate(285,263)"/>
<path d="M0 0 C1.65612305 0.01353516 1.65612305 0.01353516 3.34570312 0.02734375 C6.0432017 0.05069872 8.74023077 0.08344946 11.4375 0.125 C11.4375 0.455 11.4375 0.785 11.4375 1.125 C10.84211426 1.15005615 10.24672852 1.1751123 9.63330078 1.20092773 C6.94280864 1.31677494 4.2526766 1.43955196 1.5625 1.5625 C0.62535156 1.60181641 -0.31179687 1.64113281 -1.27734375 1.68164062 C-2.62119141 1.74448242 -2.62119141 1.74448242 -3.9921875 1.80859375 C-5.23331299 1.86358032 -5.23331299 1.86358032 -6.49951172 1.91967773 C-8.62429429 2.00738327 -8.62429429 2.00738327 -10.5625 3.125 C-12.26952735 3.19496014 -13.97918003 3.20940154 -15.6875 3.1875 C-16.59757812 3.17847656 -17.50765625 3.16945312 -18.4453125 3.16015625 C-19.14398438 3.14855469 -19.84265625 3.13695312 -20.5625 3.125 C-20.5625 3.785 -20.5625 4.445 -20.5625 5.125 C-22.8725 5.125 -25.1825 5.125 -27.5625 5.125 C-27.8925 6.115 -28.2225 7.105 -28.5625 8.125 C-33.0175 8.62 -33.0175 8.62 -37.5625 9.125 C-34.49709276 6.56928042 -31.66301344 5.28555793 -27.875 4.0625 C-26.90175781 3.74152344 -25.92851562 3.42054687 -24.92578125 3.08984375 C-16.42301873 0.65060758 -8.87338782 -0.13906455 0 0 Z " fill="#42DBB9" transform="translate(236.5625,31.875)"/>
<path d="M0 0 C1.46366342 0.39753821 2.9208935 0.81881384 4.375 1.25 C5.18710938 1.48203125 5.99921875 1.7140625 6.8359375 1.953125 C9 3 9 3 10.01171875 5.06640625 C10.33785156 5.70449219 10.66398437 6.34257812 11 7 C13.08513849 7.6639246 13.08513849 7.6639246 15.4375 7.6875 C18.28275042 7.85155892 20.25718925 8.08572975 23 9 C21.02 9.99 21.02 9.99 19 11 C19 11.66 19 12.32 19 13 C20.65 13.66 22.3 14.32 24 15 C23.67 15.66 23.34 16.32 23 17 C20.47434962 15.46581141 17.95466666 13.92300205 15.4375 12.375 C14.73302734 11.94832031 14.02855469 11.52164062 13.30273438 11.08203125 C8.52124215 8.12940472 4.00845557 4.96485956 0 1 C0 0.67 0 0.34 0 0 Z " fill="#2B5FB0" transform="translate(79,328)"/>
<path d="M0 0 C1.05030573 3.7293684 0.91645338 6.75336184 0.5625 10.625 C0.15706453 14.80690988 0.15706453 14.80690988 0 19 C-0.66 19 -1.32 19 -2 19 C-2 19.66 -2 20.32 -2 21 C-2.99 21.66 -3.98 22.32 -5 23 C-5.2475 24.0209375 -5.2475 24.0209375 -5.5 25.0625 C-5.665 25.701875 -5.83 26.34125 -6 27 C-6.99 27.33 -7.98 27.66 -9 28 C-8.82041748 27.46705322 -8.64083496 26.93410645 -8.45581055 26.38500977 C-6.51188291 20.58835431 -4.64511714 14.77019997 -2.8125 8.9375 C-2.40354492 7.6390918 -2.40354492 7.6390918 -1.98632812 6.31445312 C-1.32355085 4.2098446 -0.66145111 2.10502562 0 0 Z " fill="#DAF9F9" transform="translate(367,234)"/>
<path d="M0 0 C2.24350271 4.48700543 2.88083886 8.28590799 3.625 13.1875 C3.7590625 14.00025391 3.893125 14.81300781 4.03125 15.65039062 C4.89059565 21.16160227 5.12330304 26.4233396 5 32 C3.2175082 28.66688525 2.51207144 25.75519057 2 22 C1.34 22 0.68 22 0 22 C0 14.74 0 7.48 0 0 Z " fill="#43D5BA" transform="translate(369,148)"/>
<path d="M0 0 C0.66 0 1.32 0 2 0 C0.55143768 7.40931303 -2.22042546 14.02902376 -5.4375 20.8125 C-5.82091553 21.62436768 -6.20433105 22.43623535 -6.59936523 23.27270508 C-8.77099194 27.76437071 -11.04817552 31.97124615 -14 36 C-14.33 36 -14.66 36 -15 36 C-15 34.02 -15 32.04 -15 30 C-14.01 30 -13.02 30 -12 30 C-11.67 28.35 -11.34 26.7 -11 25 C-10.34 25 -9.68 25 -9 25 C-8.89558594 24.48050781 -8.79117187 23.96101563 -8.68359375 23.42578125 C-7.42899579 18.97375077 -5.34588648 14.82598992 -3.47265625 10.60546875 C-2.03177155 7.07778552 -0.9742478 3.67578516 0 0 Z " fill="#43A9AF" transform="translate(363,242)"/>
<path d="M0 0 C1.916588 -0.02712153 3.8332873 -0.04645097 5.75 -0.0625 C7.35101563 -0.07990234 7.35101563 -0.07990234 8.984375 -0.09765625 C11.55635391 -0.01436678 13.5473726 0.32286157 16 1 C16.99 1 17.98 1 19 1 C19.12375 1.9590625 19.12375 1.9590625 19.25 2.9375 C19.93477204 5.73365251 20.83999254 7.91243121 22.0625 10.5 C23.59825935 13.8210103 24.48048748 16.27622202 24 20 C22.91298526 17.86071528 21.87204973 15.71581572 20.88671875 13.52734375 C20.49097656 12.67269531 20.09523438 11.81804687 19.6875 10.9375 C19.29949219 10.08027344 18.91148438 9.22304687 18.51171875 8.33984375 C16.63368815 5.43302119 15.16972369 4.38282563 12 3 C8.64707992 2.63931498 8.64707992 2.63931498 5.1875 2.8125 C4.02605469 2.83957031 2.86460938 2.86664063 1.66796875 2.89453125 C0.78753906 2.92933594 -0.09289062 2.96414062 -1 3 C-0.67 2.01 -0.34 1.02 0 0 Z " fill="#D3FCF8" transform="translate(93,96)"/>
<path d="M0 0 C5.75 0.75 5.75 0.75 8 3 C6.62328125 3.67095703 6.62328125 3.67095703 5.21875 4.35546875 C-1.40908656 7.61161237 -7.82593333 10.925116 -14 15 C-14 13.68 -14 12.36 -14 11 C-12.35 10.67 -10.7 10.34 -9 10 C-9 9.34 -9 8.68 -9 8 C-7.6078125 7.4121875 -7.6078125 7.4121875 -6.1875 6.8125 C-2.77449882 4.87177384 -1.68801596 3.46981059 0 0 Z " fill="#E5FCF9" transform="translate(84,97)"/>
<path d="M0 0 C2.97 0.495 2.97 0.495 6 1 C2.77085548 4.68579122 -0.88653531 6.68356245 -5.25 8.75 C-5.8996875 9.06582031 -6.549375 9.38164062 -7.21875 9.70703125 C-8.80893701 10.47873965 -10.40399229 11.24040275 -12 12 C-12.33 11.34 -12.66 10.68 -13 10 C-13.66 9.67 -14.32 9.34 -15 9 C-13.875 7.4375 -13.875 7.4375 -12 6 C-8.8125 6.3125 -8.8125 6.3125 -6 7 C-6 6.34 -6 5.68 -6 5 C-4.02 4.34 -2.04 3.68 0 3 C0 2.01 0 1.02 0 0 Z " fill="#2C8ABB" transform="translate(288,331)"/>
<path d="M0 0 C0.99823137 3.10560869 1.10172158 4.9261968 0 8 C-1.29304938 9.75504799 -2.65426864 11.46095236 -4.0625 13.125 C-7.0180494 16.17317644 -7.0180494 16.17317644 -8 20 C-8.66 20 -9.32 20 -10 20 C-9.64913558 14.64931756 -9.64913558 14.64931756 -9 12 C-7.0625 10.3125 -7.0625 10.3125 -5 9 C-4.28272222 7.35448038 -3.61674772 5.68577711 -3 4 C-2.04175747 2.63634717 -1.05278825 1.29205831 0 0 Z " fill="#1BE3B9" transform="translate(55,129)"/>
<path d="M0 0 C0.99 0.495 0.99 0.495 2 1 C2.625 4.0625 2.625 4.0625 3 7 C3.928125 7.2165625 3.928125 7.2165625 4.875 7.4375 C7 8 7 8 9 9 C9 12.63361578 8.57302699 14.8520812 7.5 18.25 C7.08234375 19.58804688 7.08234375 19.58804688 6.65625 20.953125 C6.4396875 21.62859375 6.223125 22.3040625 6 23 C4 20 4 20 4.125 17 C4.30195838 12.40891323 2.54654733 8.56335699 0.875 4.35546875 C0 2 0 2 0 0 Z " fill="#20BCBC" transform="translate(279,217)"/>
<path d="M0 0 C13.01683325 6.90689111 13.01683325 6.90689111 14.6953125 12.1875 C14.79585938 12.785625 14.89640625 13.38375 15 14 C11.08597051 12.73058503 9.20927127 11.48832306 7 8 C5.35 8.33 3.7 8.66 2 9 C0 3.375 0 3.375 0 0 Z " fill="#3CDBB9" transform="translate(304,54)"/>
<path d="M0 0 C0.66 0 1.32 0 2 0 C2.2475 0.639375 2.495 1.27875 2.75 1.9375 C3.1625 2.618125 3.575 3.29875 4 4 C4.99 4.2165625 4.99 4.2165625 6 4.4375 C6.66 4.623125 7.32 4.80875 8 5 C9.3125 7.4375 9.3125 7.4375 10 10 C9.67 10.66 9.34 11.32 9 12 C9.92647549 14.09793249 11.05488632 16.03409271 12.1875 18.02734375 C13 20 13 20 12 23 C11.46890625 21.98679688 10.9378125 20.97359375 10.390625 19.9296875 C9.67725306 18.57803541 8.96370183 17.22647793 8.25 15.875 C7.90195312 15.20984375 7.55390625 14.5446875 7.1953125 13.859375 C5.5079527 10.67213981 3.78242541 7.60374983 1.734375 4.6328125 C0 2 0 2 0 0 Z " fill="#3ACAB9" transform="translate(257,175)"/>
<path d="M0 0 C0.33 0 0.66 0 1 0 C1.33537469 4.64391284 1.65646819 9.28850981 1.96435547 13.93432617 C2.07110725 15.51467435 2.18175963 17.09476406 2.29638672 18.67456055 C2.46046302 20.94523387 2.61049588 23.21646672 2.7578125 25.48828125 C2.81188263 26.19463211 2.86595276 26.90098297 2.92166138 27.6287384 C3.15120421 31.4006661 3.1644578 32.75331329 1 36 C-1.78564588 24.00560742 -0.78996193 12.18196232 0 0 Z " fill="#44B3B6" transform="translate(119,155)"/>
<path d="M0 0 C-3.34609784 1.86075685 -6.67879543 2.78577272 -10.375 3.75 C-17.91938659 5.84214082 -24.8794168 8.75353349 -32 12 C-32 11.01 -32 10.02 -32 9 C-31.30132812 8.73445313 -30.60265625 8.46890625 -29.8828125 8.1953125 C-28.97273437 7.84210937 -28.06265625 7.48890625 -27.125 7.125 C-25.76761719 6.60292969 -25.76761719 6.60292969 -24.3828125 6.0703125 C-21.87782993 5.11469105 -21.87782993 5.11469105 -20 3 C-16.375 2.875 -16.375 2.875 -13 3 C-13 2.34 -13 1.68 -13 1 C-8.61414671 0.29826347 -4.44209357 -0.10834375 0 0 Z " fill="#C9FCF6" transform="translate(224,32)"/>
<path d="M0 0 C0.33 0 0.66 0 1 0 C0.33550849 4.93896094 -0.51166571 9.80018694 -1.5 14.6875 C-1.7578125 15.97011719 -2.015625 17.25273437 -2.28125 18.57421875 C-2.68226646 20.48558525 -3.10173888 22.39415394 -3.58984375 24.28515625 C-4.13024339 26.5445414 -4.06424735 28.68709544 -4 31 C-4.66 31.33 -5.32 31.66 -6 32 C-7.00056858 20.46010899 -3.59422065 10.78266196 0 0 Z " fill="#3BCAB6" transform="translate(36,160)"/>
<path d="M0 0 C1.485 0.99 1.485 0.99 3 2 C3.12375 2.66 3.2475 3.32 3.375 4 C3.684375 4.99 3.684375 4.99 4 6 C4.763125 6.226875 5.52625 6.45375 6.3125 6.6875 C10.11238566 8.54325811 10.7910434 11.12703334 12.3984375 14.90625 C13 17 13 17 12 19 C10.01524404 16.73384576 8.03711912 14.46245847 6.0625 12.1875 C5.21655273 11.22360352 5.21655273 11.22360352 4.35351562 10.24023438 C3.81533203 9.61826172 3.27714844 8.99628906 2.72265625 8.35546875 C2.22515869 7.78465576 1.72766113 7.21384277 1.21508789 6.62573242 C0 5 0 5 -1 2 C-0.67 1.34 -0.34 0.68 0 0 Z " fill="#36DFB8" transform="translate(225,130)"/>
<path d="M0 0 C0.268125 0.928125 0.53625 1.85625 0.8125 2.8125 C1.98210956 5.95197829 2.64639946 6.82744565 5 9 C6.3540932 10.98600337 7.68457624 12.98817543 9 15 C10.6490657 17.34638491 12.32421789 19.67252485 14 22 C13.34 22.33 12.68 22.66 12 23 C10.24717575 20.79385914 8.49769955 18.5851951 6.75 16.375 C6.01330078 15.44880859 6.01330078 15.44880859 5.26171875 14.50390625 C-3 4.0390625 -3 4.0390625 -3 1 C-1 0 -1 0 0 0 Z " fill="#347DAB" transform="translate(52,292)"/>
<path d="M0 0 C4 2 8 4 12 6 C12.33 6.99 12.66 7.98 13 9 C15.54672255 10.68749704 15.54672255 10.68749704 18.5625 12.1875 C19.57441406 12.71730469 20.58632812 13.24710937 21.62890625 13.79296875 C22.41136719 14.19128906 23.19382813 14.58960938 24 15 C23.67 15.99 23.34 16.98 23 18 C2.31979695 4.63959391 2.31979695 4.63959391 0 0 Z " fill="#DBF0FB" transform="translate(165,284)"/>
<path d="M0 0 C3.41021743 0.78697325 6.68885166 1.87119943 10 3 C10.33 5.97 10.66 8.94 11 12 C11.66 12 12.32 12 13 12 C12.67 12.99 12.34 13.98 12 15 C10.55726615 13.44233138 9.12103292 11.87864043 7.6875 10.3125 C6.88699219 9.44238281 6.08648437 8.57226562 5.26171875 7.67578125 C3.18451663 5.21829688 1.56168424 2.80496684 0 0 Z " fill="#32E2B8" transform="translate(198,102)"/>
<path d="M0 0 C5.73009559 0.52207538 10.45686407 1.65599619 15.75 3.875 C16.39582031 4.13152344 17.04164063 4.38804688 17.70703125 4.65234375 C21.17077482 6.0677133 24.13488813 7.58346625 27 10 C25.02 10 23.04 10 21 10 C21 9.34 21 8.68 21 8 C20.43152344 7.89042969 19.86304688 7.78085937 19.27734375 7.66796875 C15.43885835 6.87976557 11.8323418 6.05074002 8.25 4.4375 C5.42562217 3.18825596 3.03362138 2.4596396 0 2 C0 1.34 0 0.68 0 0 Z " fill="#43DCB9" transform="translate(261,35)"/>
<path d="M0 0 C1.93742341 -0.02703381 3.87495479 -0.04641125 5.8125 -0.0625 C6.89144531 -0.07410156 7.97039062 -0.08570313 9.08203125 -0.09765625 C12 0 12 0 15 1 C17.83168318 1.30294382 20.66402835 1.50755058 23.50390625 1.71875 C26 2 26 2 28 3 C28 3.66 28 4.32 28 5 C9.17995444 3.07289294 9.17995444 3.07289294 0 1 C0 0.67 0 0.34 0 0 Z " fill="#3043A1" transform="translate(140,359)"/>
<path d="M0 0 C5.03163018 4.29785078 10.02718443 8.63425542 15 13 C14.01 13.33 13.02 13.66 12 14 C9.5625 12.25 9.5625 12.25 7 10 C3.94413436 7.36973131 3.94413436 7.36973131 0 7 C0 6.34 0 5.68 0 5 C-0.66 5 -1.32 5 -2 5 C-1.34 3.35 -0.68 1.7 0 0 Z " fill="#EFFCF8" transform="translate(64,315)"/>
<path d="M0 0 C0.66 0.33 1.32 0.66 2 1 C1.67 2.65 1.34 4.3 1 6 C-1.31 6.66 -3.62 7.32 -6 8 C-6.33 9.65 -6.66 11.3 -7 13 C-7.66 13 -8.32 13 -9 13 C-9 12.34 -9 11.68 -9 11 C-9.66 11 -10.32 11 -11 11 C-10.67 10.01 -10.34 9.02 -10 8 C-9.34 8 -8.68 8 -8 8 C-7.979375 7.4225 -7.95875 6.845 -7.9375 6.25 C-6.39320987 2.5437037 -3.5632819 1.68787037 0 0 Z " fill="#28E4BA" transform="translate(197,41)"/>
<path d="M0 0 C1.25541557 3.76624671 0.37061958 5.37188934 -1 9 C-1.33 9 -1.66 9 -2 9 C-2 11.31 -2 13.62 -2 16 C-3.32 15.67 -4.64 15.34 -6 15 C-6 15.66 -6 16.32 -6 17 C-6.66 17 -7.32 17 -8 17 C-8.33 17.99 -8.66 18.98 -9 20 C-9.33 19.34 -9.66 18.68 -10 18 C-9.67 17.34 -9.34 16.68 -9 16 C-9.66 15.67 -10.32 15.34 -11 15 C-10.01 15 -9.02 15 -8 15 C-7.60167969 14.18789063 -7.60167969 14.18789063 -7.1953125 13.359375 C-5.80988695 10.62474418 -4.34741542 7.93875859 -2.875 5.25 C-2.33617187 4.26515625 -1.79734375 3.2803125 -1.2421875 2.265625 C-0.83226562 1.51796875 -0.42234375 0.7703125 0 0 Z " fill="#328EB1" transform="translate(272,312)"/>
<path d="M0 0 C0.33 0.66 0.66 1.32 1 2 C1.66 2 2.32 2 3 2 C3.26554688 2.71027344 3.53109375 3.42054687 3.8046875 4.15234375 C4.15789062 5.07144531 4.51109375 5.99054688 4.875 6.9375 C5.22304687 7.85402344 5.57109375 8.77054688 5.9296875 9.71484375 C6.7819086 12.14941056 6.7819086 12.14941056 9 13 C9 13.99 9 14.98 9 16 C9.66 16 10.32 16 11 16 C12.32421875 17.6796875 12.32421875 17.6796875 13.6875 19.875 C14.14511719 20.59429687 14.60273438 21.31359375 15.07421875 22.0546875 C15.37972656 22.69664063 15.68523437 23.33859375 16 24 C15.67 24.66 15.34 25.32 15 26 C0 7.41747573 0 7.41747573 0 0 Z " fill="#42D9B6" transform="translate(182,75)"/>
<path d="M0 0 C6.44994917 6.2418863 12.4481036 12.94997282 18 20 C15 20 15 20 13.3125 18.625 C12 17 12 17 12 15 C11.01 15 10.02 15 9 15 C8.67 14.01 8.34 13.02 8 12 C7.1028125 11.1028125 7.1028125 11.1028125 6.1875 10.1875 C3.67029203 7.67029203 1.84830051 5.03649369 0 2 C0 1.34 0 0.68 0 0 Z " fill="#3F79AD" transform="translate(147,265)"/>
<path d="M0 0 C0.66 0 1.32 0 2 0 C2.16435547 0.84884766 2.16435547 0.84884766 2.33203125 1.71484375 C2.49058594 2.44832031 2.64914063 3.18179687 2.8125 3.9375 C2.96332031 4.66839844 3.11414062 5.39929688 3.26953125 6.15234375 C3.51058594 6.76207031 3.75164063 7.37179687 4 8 C4.99 8.33 5.98 8.66 7 9 C7 11.64 7 14.28 7 17 C6.34 17.33 5.68 17.66 5 18 C4.15875684 15.75267898 3.32685168 13.50261215 2.5 11.25 C2.26152344 10.61578125 2.02304687 9.9815625 1.77734375 9.328125 C0.55198242 5.96713393 0 3.63128413 0 0 Z " fill="#2B98AC" transform="translate(33,256)"/>
<path d="M0 0 C2.5 0.125 2.5 0.125 3.5 1.125 C5.16617115 1.16563832 6.83388095 1.167721 8.5 1.125 C7.015 2.61 7.015 2.61 5.5 4.125 C5.83 4.785 6.16 5.445 6.5 6.125 C3.53 6.125 0.56 6.125 -2.5 6.125 C-2.88218767 4.46885343 -3.21395102 2.80042976 -3.5 1.125 C-2.5 0.125 -2.5 0.125 0 0 Z " fill="#1E41B7" transform="translate(140.5,352.875)"/>
<path d="M0 0 C7.11791847 3.81607036 14.11027102 7.78545863 21 12 C17.86801152 12.84648337 16.05801913 13.29734145 13 12 C12.236875 11.21625 11.47375 10.4325 10.6875 9.625 C8.25626639 7.25030671 7.25498049 6.54977294 4.25 5.4375 C3.1775 4.963125 2.105 4.48875 1 4 C0.296875 1.91015625 0.296875 1.91015625 0 0 Z " fill="#315BAA" transform="translate(179,296)"/>
<path d="M0 0 C0.99 0 1.98 0 3 0 C3.33 1.32 3.66 2.64 4 4 C4.763125 4.103125 5.52625 4.20625 6.3125 4.3125 C9.17059424 5.04364039 10.15742885 5.76951913 12 8 C11.2575 7.814375 10.515 7.62875 9.75 7.4375 C6.99353908 6.99897213 5.62796027 7.2992106 3 8 C2.01 7.67 1.02 7.34 0 7 C0 4.69 0 2.38 0 0 Z " fill="#1E58BB" transform="translate(176,296)"/>
<path d="M0 0 C1.1700097 3.91736581 0.69584017 6.97959015 0 11 C-1.2065625 11.3403125 -1.2065625 11.3403125 -2.4375 11.6875 C-3.283125 12.120625 -4.12875 12.55375 -5 13 C-5.89386164 15.54775306 -5.89386164 15.54775306 -6 18 C-6.66 18 -7.32 18 -8 18 C-6.65150163 13.64029169 -4.95092154 9.68658562 -2.875 5.625 C-2.33617187 4.56539062 -1.79734375 3.50578125 -1.2421875 2.4140625 C-0.83226562 1.61742187 -0.42234375 0.82078125 0 0 Z " fill="#39D6B6" transform="translate(45,141)"/>
<path d="M0 0 C0 3 0 3 -2.4375 5.5 C-3.283125 6.325 -4.12875 7.15 -5 8 C-5.33 8.99 -5.66 9.98 -6 11 C-6.804375 11.78375 -7.60875 12.5675 -8.4375 13.375 C-11.11166545 15.77608186 -11.11166545 15.77608186 -12.0625 18.6875 C-13 21 -13 21 -15.125 22.3125 C-16.053125 22.6528125 -16.053125 22.6528125 -17 23 C-15.51322484 18.54798052 -13.05968085 15.14627377 -10.1875 11.5 C-9.76146484 10.94441406 -9.33542969 10.38882813 -8.89648438 9.81640625 C-6.1469146 6.28065087 -3.22728401 3.10560903 0 0 Z " fill="#49DABA" transform="translate(63,118)"/>
<path d="M0 0 C1.134375 0.27714844 2.26875 0.55429687 3.4375 0.83984375 C4.95827848 1.20595709 6.47911495 1.57182963 8 1.9375 C8.74378906 2.11990234 9.48757812 2.30230469 10.25390625 2.49023438 C14.00704536 3.38772416 17.65801963 4.11370512 21.5 4.50390625 C23.2325 4.74947266 23.2325 4.74947266 25 5 C25.33 5.66 25.66 6.32 26 7 C22.77633495 8.07455502 21.91705406 7.93337394 18.75 7.125 C14.83640913 6.17702709 10.99293907 5.5097369 7 5 C7 4.34 7 3.68 7 3 C4.69 2.67 2.38 2.34 0 2 C0 1.34 0 0.68 0 0 Z " fill="#3847A8" transform="translate(236,322)"/>
<path d="M0 0 C0.33 0.99 0.66 1.98 1 3 C0.195625 3.763125 -0.60875 4.52625 -1.4375 5.3125 C-4.16799024 7.79430898 -4.16799024 7.79430898 -5 11 C-7.84937793 12.83174295 -10.68437443 13.44739574 -14 14 C-9.33333333 9.33333333 -4.66666667 4.66666667 0 0 Z " fill="#DFF8FB" transform="translate(329,304)"/>
<path d="M0 0 C2.64 0 5.28 0 8 0 C8 0.66 8 1.32 8 2 C9.65 2 11.3 2 13 2 C13 2.66 13 3.32 13 4 C14.98 4 16.96 4 19 4 C19 4.66 19 5.32 19 6 C21.475 6.495 21.475 6.495 24 7 C23.67 7.66 23.34 8.32 23 9 C18.01668872 7.3601244 13.06976488 5.6266201 8.125 3.875 C7.34125 3.59785156 6.5575 3.32070313 5.75 3.03515625 C3.83316356 2.35725068 1.9165581 1.67869207 0 1 C0 0.67 0 0.34 0 0 Z " fill="#D3FDF9" transform="translate(265,35)"/>
<path d="M0 0 C-1.32 0.33 -2.64 0.66 -4 1 C-4 1.66 -4 2.32 -4 3 C-4.61875 3.12375 -5.2375 3.2475 -5.875 3.375 C-8.19120832 3.87197356 -8.19120832 3.87197356 -10 6 C-12.8203125 6.1953125 -12.8203125 6.1953125 -16.125 6.125 C-17.22070312 6.10695313 -18.31640625 6.08890625 -19.4453125 6.0703125 C-20.28835937 6.04710937 -21.13140625 6.02390625 -22 6 C-18.1539873 3.85549554 -14.05620648 2.62520436 -9.875 1.3125 C-9.14667969 1.07466797 -8.41835937 0.83683594 -7.66796875 0.59179688 C-2.23860899 -1.11930449 -2.23860899 -1.11930449 0 0 Z " fill="#D9F1F7" transform="translate(257,352)"/>
<path d="M0 0 C3.3 0 6.6 0 10 0 C7.82813579 2.17186421 6.50023469 2.6793248 3.625 3.625 C2.85414063 3.88539063 2.08328125 4.14578125 1.2890625 4.4140625 C-1 5 -1 5 -5 5 C-5 5.66 -5 6.32 -5 7 C-5.99 7 -6.98 7 -8 7 C-8 6.01 -8 5.02 -8 4 C-7.01 4 -6.02 4 -5 4 C-5 3.34 -5 2.68 -5 2 C-3.35 2 -1.7 2 0 2 C0 1.34 0 0.68 0 0 Z " fill="#1C2CBE" transform="translate(217,354)"/>
<path d="M0 0 C4.03556445 0.8967921 5.60408189 1.3797283 7.875 4.9375 C9 8 9 8 9 11 C9.99 11 10.98 11 12 11 C12 12.65 12 14.3 12 16 C8.7311189 12.96461041 6.40084252 9.75131643 4 6 C3.2523651 4.87342686 2.50244387 3.74836691 1.75 2.625 C1.1725 1.75875 0.595 0.8925 0 0 Z " fill="#3AD8B7" transform="translate(240,152)"/>
<path d="M0 0 C4.9240432 4.7652031 9.44259642 9.88657333 14 15 C13.67 15.66 13.34 16.32 13 17 C11.68 16.34 10.36 15.68 9 15 C9 14.34 9 13.68 9 13 C8.34 12.67 7.68 12.34 7 12 C3.39849844 8.12838582 1.36449584 5.20989319 0 0 Z " fill="#C9FBF3" transform="translate(205,111)"/>
<path d="M0 0 C1.98 0 3.96 0 6 0 C6.33 3.63 6.66 7.26 7 11 C6.34 11 5.68 11 5 11 C5 10.01 5 9.02 5 8 C4.01 7.67 3.02 7.34 2 7 C0.35179805 4.39757586 0 3.13751221 0 0 Z " fill="#1DE8B8" transform="translate(186,80)"/>
<path d="M0 0 C2.20991419 3.31487129 3.08491625 6.17877112 4.1875 10 C4.55230469 11.2375 4.91710937 12.475 5.29296875 13.75 C6 17 6 17 5 20 C4.00107301 17.77423549 3.00813567 15.54633213 2.02734375 13.3125 C1.28025775 11.63084634 0.49501616 9.96598547 -0.3125 8.3125 C-1.21317474 5.28295768 -0.70729439 3.04136586 0 0 Z " fill="#419AB4" transform="translate(125,213)"/>
<path d="M0 0 C0.33 1.32 0.66 2.64 1 4 C0.01 4.495 0.01 4.495 -1 5 C-1.433125 5.7425 -1.86625 6.485 -2.3125 7.25 C-4.20560746 10.33506401 -6.31100031 12.58679515 -9 15 C-9.66 15 -10.32 15 -11 15 C-9.3718356 11.24269753 -6.98598083 8.383177 -4.375 5.25 C-3.55773437 4.26515625 -2.74046875 3.2803125 -1.8984375 2.265625 C-1.27195312 1.51796875 -0.64546875 0.7703125 0 0 Z " fill="#DAF7FB" transform="translate(342,288)"/>
<path d="M0 0 C2.64 0 5.28 0 8 0 C9 2 9 2 9 5 C9.3062434 6.33981486 9.63451555 7.67511887 10 9 C8.125 8.8125 8.125 8.8125 6 8 C4.75 5.4375 4.75 5.4375 4 3 C3.01 3.495 3.01 3.495 2 4 C1.34 2.68 0.68 1.36 0 0 Z " fill="#1CE8B9" transform="translate(222,128)"/>
<path d="M0 0 C1.32 0.99 2.64 1.98 4 3 C3.071875 4.1446875 3.071875 4.1446875 2.125 5.3125 C-0.872733 9.72405743 -1.29908821 14.8169418 -2 20 C-2.33 20 -2.66 20 -3 20 C-3.24692314 13.42910088 -2.97136251 7.31699374 -1 1 C-0.67 0.67 -0.34 0.34 0 0 Z " fill="#C5FEF6" transform="translate(181,48)"/>
<path d="M0 0 C1.77260631 0.45142775 3.5430368 0.91140523 5.3125 1.375 C6.79169922 1.75785156 6.79169922 1.75785156 8.30078125 2.1484375 C11 3 11 3 14 5 C11.89611431 5.05402274 9.79183286 5.09280256 7.6875 5.125 C5.92986328 5.15980469 5.92986328 5.15980469 4.13671875 5.1953125 C1 5 1 5 -2 3 C-1.34 2.01 -0.68 1.02 0 0 Z " fill="#2B49AA" transform="translate(216,316)"/>
<path d="M0 0 C0.99 0 1.98 0 3 0 C3 0.66 3 1.32 3 2 C6.62885324 2.15149298 6.62885324 2.15149298 10 1 C9.6875 2.9375 9.6875 2.9375 9 5 C5.71023192 6.09658936 4.28696233 5.79953138 1 5 C0.67 3.35 0.34 1.7 0 0 Z " fill="#2448C2" transform="translate(206,314)"/>
<path d="M0 0 C-2 7.33333333 -4 14.66666667 -6 22 C-6.33 22 -6.66 22 -7 22 C-6.85904936 20.3745692 -6.71207913 18.74965949 -6.5625 17.125 C-6.48128906 16.22007812 -6.40007813 15.31515625 -6.31640625 14.3828125 C-6 12 -6 12 -5 10 C-4.73044167 7.66810655 -4.55492623 5.33678493 -4.37890625 2.99609375 C-4.25386719 2.33738281 -4.12882812 1.67867187 -4 1 C-2 0 -2 0 0 0 Z " fill="#CFFBF8" transform="translate(37,158)"/>
<path d="M0 0 C0.66 0 1.32 0 2 0 C2.97099482 2.62168601 3.06599958 3.79692438 2.1875 6.5 C1.15119028 8.68170468 0.11182572 10.85576468 -1 13 C-1.66 13 -2.32 13 -3 13 C-2.68991116 11.39536551 -2.37683713 9.79130769 -2.0625 8.1875 C-1.88847656 7.29417969 -1.71445312 6.40085937 -1.53515625 5.48046875 C-1 3 -1 3 0 0 Z " fill="#1E96BB" transform="translate(278,300)"/>
<path d="M0 0 C2.31 0 4.62 0 7 0 C6.67 0.99 6.34 1.98 6 3 C5.34 3 4.68 3 4 3 C3.67 4.65 3.34 6.3 3 8 C1.68 7.67 0.36 7.34 -1 7 C-0.67 4.69 -0.34 2.38 0 0 Z " fill="#1DA3BD" transform="translate(341,276)"/>
<path d="M0 0 C0.33 0 0.66 0 1 0 C1.226875 1.11375 1.45375 2.2275 1.6875 3.375 C2.79545223 7.93715624 4.8224691 11.80088743 7.07421875 15.8984375 C7.37972656 16.59195313 7.68523437 17.28546875 8 18 C7.67 18.66 7.34 19.32 7 20 C3.03570707 16.2969642 0.29740027 11.95570111 -0.25390625 6.4765625 C-0.25047769 4.30285617 -0.18047441 2.16569295 0 0 Z " fill="#CAFCF6" transform="translate(179,68)"/>
<path d="M0 0 C4.02992782 0.55312735 8.02022924 1.1558062 12 2 C12 2.99 12 3.98 12 5 C10.68 5 9.36 5 8 5 C8 5.66 8 6.32 8 7 C7.34 7 6.68 7 6 7 C5.7525 6.38125 5.505 5.7625 5.25 5.125 C3.79371361 2.64931313 2.62187494 2.04874998 0 1 C0 0.67 0 0.34 0 0 Z " fill="#1BE9B9" transform="translate(244,33)"/>
<path d="M0 0 C1.65 0 3.3 0 5 0 C5 0.66 5 1.32 5 2 C7.64 2.33 10.28 2.66 13 3 C13 3.33 13 3.66 13 4 C7.72 4 2.44 4 -3 4 C-2.67 3.34 -2.34 2.68 -2 2 C-1.34 2 -0.68 2 0 2 C0 1.34 0 0.68 0 0 Z " fill="#D3FDF7" transform="translate(235,28)"/>
<path d="M0 0 C-0.33 0.66 -0.66 1.32 -1 2 C-3.94921875 2.8515625 -3.94921875 2.8515625 -7.6875 3.625 C-8.90824219 3.88539063 -10.12898437 4.14578125 -11.38671875 4.4140625 C-14.67549245 4.94737715 -17.67793207 5.1122665 -21 5 C-21 4.67 -21 4.34 -21 4 C-20.24074219 3.79503906 -19.48148438 3.59007812 -18.69921875 3.37890625 C-17.20841797 2.97478516 -17.20841797 2.97478516 -15.6875 2.5625 C-14.70136719 2.29566406 -13.71523437 2.02882813 -12.69921875 1.75390625 C-8.19198494 0.49501171 -4.72795054 -0.08920661 0 0 Z " fill="#3E77BD" transform="translate(231,357)"/>
<path d="M0 0 C2 1 2 1 3.03515625 3.80078125 C3.54369141 5.53908203 3.54369141 5.53908203 4.0625 7.3125 C4.40410156 8.46363281 4.74570312 9.61476562 5.09765625 10.80078125 C5.39542969 11.85652344 5.69320313 12.91226563 6 14 C6.32097656 15.11181641 6.32097656 15.11181641 6.6484375 16.24609375 C7.13406656 18.66884318 6.59256052 20.62975791 6 23 C5.67 23 5.34 23 5 23 C4.35170438 20.29223506 3.70629398 17.58383555 3.0625 14.875 C2.88009766 14.11445313 2.69769531 13.35390625 2.50976562 12.5703125 C1.52009827 8.39571566 0.64427021 4.24540161 0 0 Z " fill="#41B6B1" transform="translate(277,214)"/>
<path d="M0 0 C2.4375 0.75 2.4375 0.75 5 2 C5.8125 4.125 5.8125 4.125 6 6 C5.34 6 4.68 6 4 6 C4 5.34 4 4.68 4 4 C2.35 5.32 0.7 6.64 -1 8 C-1.66 6.02 -2.32 4.04 -3 2 C-2.01 1.67 -1.02 1.34 0 1 C0 0.67 0 0.34 0 0 Z " fill="#2191C0" transform="translate(42,273)"/>
<path d="M0 0 C1.32 0.99 2.64 1.98 4 3 C3.39301257 7.12751449 1.96189209 10.3321148 0 14 C-0.66 13.01 -1.32 12.02 -2 11 C-1.67 10.67 -1.34 10.34 -1 10 C-0.76712992 8.31816052 -0.58735834 6.6287584 -0.4375 4.9375 C-0.35371094 4.01839844 -0.26992188 3.09929687 -0.18359375 2.15234375 C-0.12300781 1.44207031 -0.06242187 0.73179687 0 0 Z " fill="#1FADBF" transform="translate(354,253)"/>
<path d="M0 0 C3.3 0 6.6 0 10 0 C10 0.66 10 1.32 10 2 C9.01 2 8.02 2 7 2 C7 2.66 7 3.32 7 4 C8.65 4.33 10.3 4.66 12 5 C11.67 5.99 11.34 6.98 11 8 C9.16399255 6.85845641 7.33125195 5.71165684 5.5 4.5625 C4.4790625 3.92441406 3.458125 3.28632812 2.40625 2.62890625 C1.6121875 2.09136719 0.818125 1.55382813 0 1 C0 0.67 0 0.34 0 0 Z " fill="#D7FCF8" transform="translate(296,48)"/>
<path d="M0 0 C1.46366342 0.39753821 2.9208935 0.81881384 4.375 1.25 C5.18710938 1.48203125 5.99921875 1.7140625 6.8359375 1.953125 C9.50729041 3.24540403 9.82023833 4.35323034 11 7 C11.99 7.66 12.98 8.32 14 9 C13.67 9.66 13.34 10.32 13 11 C11.01712504 9.54648985 9.03870613 8.08752713 7.0625 6.625 C6.49853516 6.2125 5.93457031 5.8 5.35351562 5.375 C1.11328125 2.2265625 1.11328125 2.2265625 0 0 Z " fill="#3C67AD" transform="translate(79,328)"/>
<path d="M0 0 C0.66 0 1.32 0 2 0 C2.59332061 4.37573952 3.13827236 8.57528444 3 13 C2.01 13 1.02 13 0 13 C0 8.71 0 4.42 0 0 Z " fill="#20B1BD" transform="translate(29,219)"/>
<path d="M0 0 C0.66 0.33 1.32 0.66 2 1 C1.195625 1.763125 0.39125 2.52625 -0.4375 3.3125 C-3.16799024 5.79430898 -3.16799024 5.79430898 -4 9 C-6.31 9.33 -8.62 9.66 -11 10 C-7.65996398 5.67760044 -4.67248931 2.82522609 0 0 Z " fill="#44DDB9" transform="translate(75,108)"/>
<path d="M0 0 C0 1.98 0 3.96 0 6 C0.99 6.33 1.98 6.66 3 7 C1.68 7.33 0.36 7.66 -1 8 C-1 7.34 -1 6.68 -1 6 C-3.475 5.01 -3.475 5.01 -6 4 C-6 3.34 -6 2.68 -6 2 C-3 0 -3 0 0 0 Z " fill="#1F55B5" transform="translate(104,337)"/>
<path d="M0 0 C0.66 0.33 1.32 0.66 2 1 C0.02 4.96 -1.96 8.92 -4 13 C-4.33 13 -4.66 13 -5 13 C-5.25 7.375 -5.25 7.375 -3 4 C-2.34 4 -1.68 4 -1 4 C-0.67 2.68 -0.34 1.36 0 0 Z " fill="#D7F6FA" transform="translate(272,308)"/>
<path d="M0 0 C4.95258714 3.77339973 8.43679155 7.90789714 12 13 C11.01 13.495 11.01 13.495 10 14 C10 13.34 10 12.68 10 12 C9.38125 11.938125 8.7625 11.87625 8.125 11.8125 C7.42375 11.544375 6.7225 11.27625 6 11 C5.29788106 9.34795544 4.63028587 7.68076231 4 6 C3.01 5.67 2.02 5.34 1 5 C0.67 3.35 0.34 1.7 0 0 Z " fill="#C9FCF5" transform="translate(219,128)"/>
<path d="M0 0 C2.5 2.25 2.5 2.25 5 5 C5 6.32 5 7.64 5 9 C4.01 9.33 3.02 9.66 2 10 C-1.07692308 4.58461538 -1.07692308 4.58461538 -0.6875 1.625 C-0.460625 1.08875 -0.23375 0.5525 0 0 Z " fill="#1FE7BB" transform="translate(337,87)"/>
<path d="M0 0 C-2.10171867 0.8394882 -4.20646625 1.67139656 -6.3125 2.5 C-7.48425781 2.9640625 -8.65601563 3.428125 -9.86328125 3.90625 C-13 5 -13 5 -16 5 C-16 4.34 -16 3.68 -16 3 C-13.89936424 2.30178583 -11.79434263 1.61675528 -9.6875 0.9375 C-8.51574219 0.55464844 -7.34398437 0.17179687 -6.13671875 -0.22265625 C-3 -1 -3 -1 0 0 Z " fill="#173BB1" transform="translate(228,356)"/>
<path d="M0 0 C2.97 0.495 2.97 0.495 6 1 C2.7129243 4.81300782 -0.39727838 6.22972246 -5 8 C-5.33 7.01 -5.66 6.02 -6 5 C-4.02 4.34 -2.04 3.68 0 3 C0 2.01 0 1.02 0 0 Z " fill="#3187AE" transform="translate(288,331)"/>
<path d="M0 0 C0 1.65 0 3.3 0 5 C-1.98 5.99 -1.98 5.99 -4 7 C-4.33 6.34 -4.66 5.68 -5 5 C-5.66 5 -6.32 5 -7 5 C-7 5.66 -7 6.32 -7 7 C-8.32 6.67 -9.64 6.34 -11 6 C-9.54550599 4.9944239 -8.08627557 3.99569565 -6.625 3 C-5.40683594 2.1646875 -5.40683594 2.1646875 -4.1640625 1.3125 C-2 0 -2 0 0 0 Z " fill="#E4F5F8" transform="translate(304,327)"/>
<path d="M0 0 C1.258125 -0.020625 2.51625 -0.04125 3.8125 -0.0625 C4.52019531 -0.07410156 5.22789062 -0.08570313 5.95703125 -0.09765625 C8 0 8 0 11 1 C11 1.66 11 2.32 11 3 C12.98 3 14.96 3 17 3 C17 3.33 17 3.66 17 4 C15.52093108 4.02689216 14.04172517 4.04634621 12.5625 4.0625 C11.32693359 4.07990234 11.32693359 4.07990234 10.06640625 4.09765625 C8 4 8 4 7 3 C4.67182036 2.63239269 2.3381615 2.29758419 0 2 C0 1.34 0 0.68 0 0 Z " fill="#1E37BA" transform="translate(232,324)"/>
<path d="M0 0 C2.06681445 2.61071299 3.93109607 5.33837839 5.75 8.125 C6.19859375 8.80820312 6.6471875 9.49140625 7.109375 10.1953125 C7.40328125 10.79085938 7.6971875 11.38640625 8 12 C7.67 12.66 7.34 13.32 7 14 C4.625 12.9375 4.625 12.9375 2 11 C0.50523561 7.08514087 0 4.19882528 0 0 Z " fill="#DAF6FC" transform="translate(41,281)"/>
<path d="M0 0 C2 0.75 2 0.75 4 3.75 C2.68 4.08 1.36 4.41 0 4.75 C0 4.09 0 3.43 0 2.75 C-0.66 2.75 -1.32 2.75 -2 2.75 C-2 3.41 -2 4.07 -2 4.75 C-3.32 4.75 -4.64 4.75 -6 4.75 C-3.64885496 -0.45610687 -3.64885496 -0.45610687 0 0 Z " fill="#1DE6BB" transform="translate(104,99.25)"/>
<path d="M0 0 C0.99 0.66 1.98 1.32 3 2 C3 2.99 3 3.98 3 5 C3.99 6.485 3.99 6.485 5 8 C4.625 10.1875 4.625 10.1875 4 12 C1.25722422 8.80009492 -0.6302836 5.99500618 -2 2 C-1.34 2 -0.68 2 0 2 C0 1.34 0 0.68 0 0 Z " fill="#24E8BC" transform="translate(195,89)"/>
<path d="M0 0 C1.09658936 3.28976808 0.79953138 4.71303767 0 8 C-0.66 8 -1.32 8 -2 8 C-2.268125 8.969375 -2.53625 9.93875 -2.8125 10.9375 C-3.204375 11.948125 -3.59625 12.95875 -4 14 C-4.99 14.33 -5.98 14.66 -7 15 C-5.63408831 11.45756548 -4.09068516 8.07372071 -2.375 4.6875 C-1.70597656 3.36298828 -1.70597656 3.36298828 -1.0234375 2.01171875 C-0.68570312 1.34785156 -0.34796875 0.68398438 0 0 Z " fill="#D6F8FA" transform="translate(357,262)"/>
<path d="M0 0 C0.66 0.33 1.32 0.66 2 1 C-2.455 7.93 -2.455 7.93 -7 15 C-8 11 -8 11 -6.6875 8.25 C-6.130625 7.5075 -5.57375 6.765 -5 6 C-4.34 6 -3.68 6 -3 6 C-2.690625 5.195625 -2.38125 4.39125 -2.0625 3.5625 C-1 1 -1 1 0 0 Z " fill="#D0FCF8" transform="translate(52,128)"/>
<path d="M0 0 C1.65 0 3.3 0 5 0 C5.0825 0.598125 5.165 1.19625 5.25 1.8125 C6.20455872 4.5966296 7.57132271 5.43311142 10 7 C9.67 8.32 9.34 9.64 9 11 C7.49703315 9.35687553 5.99769719 7.71042916 4.5 6.0625 C3.6646875 5.14597656 2.829375 4.22945313 1.96875 3.28515625 C0 1 0 1 0 0 Z " fill="#48DCBC" transform="translate(211,118)"/>
<path d="M0 0 C-1.79090758 1.1470194 -3.58274997 2.29257935 -5.375 3.4375 C-6.87160156 4.39462891 -6.87160156 4.39462891 -8.3984375 5.37109375 C-11 7 -11 7 -13 8 C-13 6.68 -13 5.36 -13 4 C-11.35 3.67 -9.7 3.34 -8 3 C-8 2.34 -8 1.68 -8 1 C-3.375 -1.125 -3.375 -1.125 0 0 Z " fill="#CDFDF8" transform="translate(83,104)"/>
<path d="M0 0 C10.09117362 3.09990301 10.09117362 3.09990301 14 6 C14 6.66 14 7.32 14 8 C8.76481294 6.56032356 4.36973991 4.18303389 0 1 C0 0.67 0 0.34 0 0 Z " fill="#DAEAF8" transform="translate(190,302)"/>
<path d="M0 0 C-0.33 1.32 -0.66 2.64 -1 4 C-7.75 6.125 -7.75 6.125 -10 5 C-7.89591568 0.79183137 -4.43462228 0 0 0 Z " fill="#13ECBA" transform="translate(93,106)"/>
<path d="M0 0 C1.9375 0.8125 1.9375 0.8125 4 2 C4.33 2.99 4.66 3.98 5 5 C5.66 5.66 6.32 6.32 7 7 C5.35 7.66 3.7 8.32 2 9 C0 3.375 0 3.375 0 0 Z " fill="#2CE4BA" transform="translate(304,54)"/>
<path d="M0 0 C0 0.66 0 1.32 0 2 C-2.79870027 3.39935013 -4.90498792 3.25265405 -8 3 C-9.875 1.5 -9.875 1.5 -11 0 C-7.18243176 -1.37432457 -3.92744671 -0.67975039 0 0 Z " fill="#1A4FBD" transform="translate(119,345)"/>
<path d="M0 0 C0.66 0.33 1.32 0.66 2 1 C1.67 1.61875 1.34 2.2375 1 2.875 C-0.14193235 4.91018344 -0.14193235 4.91018344 0 7 C-2.97 7 -5.94 7 -9 7 C-9 6.67 -9 6.34 -9 6 C-7.02 5.67 -5.04 5.34 -3 5 C-3.99 4.01 -4.98 3.02 -6 2 C-4.7934375 1.7834375 -4.7934375 1.7834375 -3.5625 1.5625 C-1.07896294 1.25864751 -1.07896294 1.25864751 0 0 Z " fill="#E6E8F3" transform="translate(262,320)"/>
<path d="M0 0 C2.375 0.1875 2.375 0.1875 5 1 C6.1875 3.5 6.1875 3.5 7 6 C7.66 6.33 8.32 6.66 9 7 C9 7.66 9 8.32 9 9 C9.66 9 10.32 9 11 9 C10.67 9.99 10.34 10.98 10 12 C8.33032474 10.19019128 6.66417692 8.3773524 5 6.5625 C4.28457031 5.7880957 4.28457031 5.7880957 3.5546875 4.99804688 C0 1.11328125 0 1.11328125 0 0 Z " fill="#DEF6FE" transform="translate(149,267)"/>
<path d="M0 0 C1.231394 3.69418201 0.64432764 6.2056261 0 10 C-0.66 10 -1.32 10 -2 10 C-2.33 10.99 -2.66 11.98 -3 13 C-3.84454356 9.62182575 -4.10844919 7.32534757 -3 4 C-2.34 4 -1.68 4 -1 4 C-0.67 2.68 -0.34 1.36 0 0 Z " fill="#1CBBB5" transform="translate(365,232)"/>
<path d="M0 0 C-2.28779038 1.03040167 -4.57951136 2.04952018 -6.875 3.0625 C-7.85146484 3.50432617 -7.85146484 3.50432617 -8.84765625 3.95507812 C-10.54010541 4.69661513 -12.26868575 5.35439001 -14 6 C-14.66 5.67 -15.32 5.34 -16 5 C-14.09118566 3.96455826 -12.17260796 2.94709915 -10.25 1.9375 C-8.64898437 1.08478516 -8.64898437 1.08478516 -7.015625 0.21484375 C-3.97406463 -1.01044806 -2.95106435 -1.25348607 0 0 Z " fill="#4ADABA" transform="translate(96,100)"/>
<path d="M0 0 C-2.91708924 1.98362069 -4.12380904 1.9876191 -7.75 1.625 C-8.8225 1.41875 -9.895 1.2125 -11 1 C-11 0.01 -11 -0.98 -11 -2 C-6.74891557 -3.87047715 -3.9091836 -1.87941519 0 0 Z " fill="#EBF4F8" transform="translate(112,349)"/>
<path d="M0 0 C0.99 0.99 1.98 1.98 3 3 C0.36 5.64 -2.28 8.28 -5 11 C-5 8 -5 8 -4 5 C-3.01 5 -2.02 5 -1 5 C-0.67 3.35 -0.34 1.7 0 0 Z " fill="#3898B2" transform="translate(327,301)"/>
<path d="M0 0 C1.9375 0.6875 1.9375 0.6875 4 2 C4.75 4.625 4.75 4.625 5 7 C3.68 6.34 2.36 5.68 1 5 C0.67 5.99 0.34 6.98 0 8 C-0.33 8 -0.66 8 -1 8 C-1.125 2.25 -1.125 2.25 0 0 Z " fill="#EDFBFA" transform="translate(33,267)"/>
<path d="M0 0 C4.97912521 0.64246777 9.616932 2.60017971 14 5 C14.33 5.66 14.66 6.32 15 7 C9.76727367 5.36041242 4.84803364 3.61047965 0 1 C0 0.67 0 0.34 0 0 Z " fill="#345AA1" transform="translate(104,345)"/>
<path d="M0 0 C0.99 0 1.98 0 3 0 C4.33333333 2.66666667 5.66666667 5.33333333 7 8 C2.25 7.125 2.25 7.125 0 6 C0 4.02 0 2.04 0 0 Z " fill="#1E74B6" transform="translate(144,264)"/>
<path d="M0 0 C0.33 2.64 0.66 5.28 1 8 C1.66 8 2.32 8 3 8 C2.67 8.99 2.34 9.98 2 11 C-0.31 8.36 -2.62 5.72 -5 3 C-1 0 -1 0 0 0 Z " fill="#3CDAB7" transform="translate(208,106)"/>
<path d="M0 0 C1.93719378 -0.05406122 3.87481921 -0.09282025 5.8125 -0.125 C6.89144531 -0.14820313 7.97039062 -0.17140625 9.08203125 -0.1953125 C12 0 12 0 15 2 C11.20431539 2.97798721 8.4994001 2.92653069 4.6875 2.0625 C3.80449219 1.86785156 2.92148438 1.67320312 2.01171875 1.47265625 C1.34785156 1.31667969 0.68398437 1.16070312 0 1 C0 0.67 0 0.34 0 0 Z " fill="#344DAC" transform="translate(140,359)"/>
<path d="M0 0 C3.63 1.65 7.26 3.3 11 5 C10.67 5.66 10.34 6.32 10 7 C8.35 6.67 6.7 6.34 5 6 C5 5.34 5 4.68 5 4 C3.35 3.67 1.7 3.34 0 3 C0 2.01 0 1.02 0 0 Z " fill="#2E53A7" transform="translate(204,310)"/>
<path d="M0 0 C0.99 0 1.98 0 3 0 C2.67 1.98 2.34 3.96 2 6 C1.01 6.33 0.02 6.66 -1 7 C-1.33 7.66 -1.66 8.32 -2 9 C-1.125 1.125 -1.125 1.125 0 0 Z " fill="#2190BA" transform="translate(313,310)"/>
<path d="M0 0 C2.5452129 5.09042581 3.79243257 9.46421577 2.0625 15 C1.711875 15.66 1.36125 16.32 1 17 C0.67 17 0.34 17 0 17 C0 11.39 0 5.78 0 0 Z " fill="#22AFBA" transform="translate(285,244)"/>
<path d="M0 0 C-0.33 4.62 -0.66 9.24 -1 14 C-1.33 14 -1.66 14 -2 14 C-2.33 9.71 -2.66 5.42 -3 1 C-1 0 -1 0 0 0 Z " fill="#EBFEFC" transform="translate(31,170)"/>
<path d="M0 0 C1.29608947 0.93137592 2.58671632 1.8703566 3.875 2.8125 C4.59429687 3.33457031 5.31359375 3.85664063 6.0546875 4.39453125 C8 6 8 6 10 9 C5.98720812 8.3826474 3.14509642 6.50178124 0 4 C0 2.68 0 1.36 0 0 Z " fill="#DEF3FB" transform="translate(69,320)"/>
<path d="M0 0 C0.33 0 0.66 0 1 0 C1 2.97 1 5.94 1 9 C-0.65 8.67 -2.3 8.34 -4 8 C-3.34 6.35 -2.68 4.7 -2 3 C-1.34 3 -0.68 3 0 3 C0 2.01 0 1.02 0 0 Z " fill="#219FB9" transform="translate(338,284)"/>
<path d="M0 0 C0.33 0.99 0.66 1.98 1 3 C1.99 3 2.98 3 4 3 C4.66 5.97 5.32 8.94 6 12 C3.42355713 9.42355713 2.31230641 7.96726521 0.8125 4.8125 C0.46832031 4.09707031 0.12414063 3.38164062 -0.23046875 2.64453125 C-0.48441406 2.10183594 -0.73835938 1.55914062 -1 1 C-0.67 0.67 -0.34 0.34 0 0 Z " fill="#3B8BAE" transform="translate(43,281)"/>
<path d="M0 0 C3.09592835 3.5087188 4.74194623 6.49197399 6 11 C3 10 3 10 1.3125 7.75 C-0.06511203 4.8635748 -0.26985151 3.14826764 0 0 Z " fill="#D3FBF9" transform="translate(262,185)"/>
<path d="M0 0 C2.64 0 5.28 0 8 0 C8 0.66 8 1.32 8 2 C9.98 2 11.96 2 14 2 C11 4 11 4 8.30078125 3.5390625 C7.31464844 3.23742187 6.32851562 2.93578125 5.3125 2.625 C4.31863281 2.32851563 3.32476562 2.03203125 2.30078125 1.7265625 C1.54152344 1.48679687 0.78226562 1.24703125 0 1 C0 0.67 0 0.34 0 0 Z " fill="#3F57AD" transform="translate(127,355)"/>
<path d="M0 0 C1.45880109 0.14107747 2.91703551 0.28802415 4.375 0.4375 C5.59316406 0.55931641 5.59316406 0.55931641 6.8359375 0.68359375 C9 1 9 1 11 2 C11 2.99 11 3.98 11 5 C9.53932801 4.54917531 8.08151968 4.08906463 6.625 3.625 C5.81289062 3.36976563 5.00078125 3.11453125 4.1640625 2.8515625 C2 2 2 2 0 0 Z " fill="#DDEAFA" transform="translate(209,312)"/>
<path d="M0 0 C2.33061852 3.49592778 2.70295038 5.84130536 3 10 C2.01 11.485 2.01 11.485 1 13 C0.87625 11.865625 0.7525 10.73125 0.625 9.5625 C0.41875 8.386875 0.2125 7.21125 0 6 C-0.66 5.67 -1.32 5.34 -2 5 C-1.34 5 -0.68 5 0 5 C0 3.35 0 1.7 0 0 Z " fill="#37A2B3" transform="translate(123,203)"/>
<path d="M0 0 C0.99 0 1.98 0 3 0 C6.22265625 5.17578125 6.22265625 5.17578125 7 7 C6.67 7.99 6.34 8.98 6 10 C4.99421411 8.71283353 3.99553202 7.42011342 3 6.125 C2.443125 5.40570313 1.88625 4.68640625 1.3125 3.9453125 C0 2 0 2 0 0 Z " fill="#C7FCF6" transform="translate(344,92)"/>
<path d="M0 0 C3.99500618 1.3697164 6.80009492 3.25722422 10 6 C8.02 6 6.04 6 4 6 C4 5.01 4 4.02 4 3 C2.68 3 1.36 3 0 3 C0 2.01 0 1.02 0 0 Z " fill="#42DCBA" transform="translate(294,48)"/>
<path d="M0 0 C3.37503669 1.1858237 5.64722731 2.27573689 8 5 C7.34 5.66 6.68 6.32 6 7 C4.02 4.69 2.04 2.38 0 0 Z M7 2 C9 3 9 3 9 3 Z " fill="#3772AF" transform="translate(69,319)"/>
<path d="M0 0 C0.99 0.33 1.98 0.66 3 1 C3.33 2.98 3.66 4.96 4 7 C3.01 7.495 3.01 7.495 2 8 C0.74335022 5.09399739 0 3.20395416 0 0 Z " fill="#1DE6BB" transform="translate(236,141)"/>
<path d="M0 0 C2.97 0 5.94 0 9 0 C6.66603411 1.55597726 4.57343171 2.92081896 2 4 C1.34 3.67 0.68 3.34 0 3 C0 2.01 0 1.02 0 0 Z " fill="#2FDFB3" transform="translate(96,98)"/>
<path d="M0 0 C0.66 0.33 1.32 0.66 2 1 C1.67 2.65 1.34 4.3 1 6 C-1.86724686 5.42655063 -2.8614515 5.1385485 -5 3 C-2.625 1.4375 -2.625 1.4375 0 0 Z " fill="#38DFB9" transform="translate(197,41)"/>
<path d="M0 0 C1.13643966 3.40931897 0.86747764 4.00335456 -0.4375 7.1875 C-0.86869141 8.26064453 -0.86869141 8.26064453 -1.30859375 9.35546875 C-1.53675781 9.89816406 -1.76492188 10.44085938 -2 11 C-3.21563174 7.05347724 -2.53534125 4.83835312 -1 1 C-0.67 0.67 -0.34 0.34 0 0 Z " fill="#D4F7F9" transform="translate(277,296)"/>
<path d="M0 0 C2.40072955 2.88087546 4.47291037 5.56404834 6 9 C5.01 8.67 4.02 8.34 3 8 C3 7.34 3 6.68 3 6 C2.01 5.67 1.02 5.34 0 5 C0 3.35 0 1.7 0 0 Z " fill="#DCF5FB" transform="translate(49,295)"/>
<path d="M0 0 C2.74277578 3.19990508 4.6302836 6.00499382 6 10 C2.64888166 7.76592111 1.18446044 6.73784176 0.1875 2.75 C0.125625 1.8425 0.06375 0.935 0 0 Z " fill="#CAFCF8" transform="translate(256,175)"/>
<path d="M0 0 C3 1 3 1 4.1875 2.75 C5.10819096 5.29960574 5.14948718 7.30923081 5 10 C4.67 9.01 4.34 8.02 4 7 C3.34 7 2.68 7 2 7 C1.34 4.69 0.68 2.38 0 0 Z " fill="#21E6B9" transform="translate(181,70)"/>
<path d="M0 0 C1.98 0 3.96 0 6 0 C5.01 1.485 5.01 1.485 4 3 C3.01 3 2.02 3 1 3 C0.67 3.66 0.34 4.32 0 5 C-0.33 4.01 -0.66 3.02 -1 2 C-0.67 1.34 -0.34 0.68 0 0 Z " fill="#1DE8B9" transform="translate(216,35)"/>
<path d="M0 0 C2.97 0.33 5.94 0.66 9 1 C5.77208445 3.1519437 4.71599191 3.20086443 1 3 C0.67 2.01 0.34 1.02 0 0 Z " fill="#EAF5FB" transform="translate(159,363)"/>
<path d="M0 0 C0.33 1.32 0.66 2.64 1 4 C-1.475 5.485 -1.475 5.485 -4 7 C-4.66 6.34 -5.32 5.68 -6 5 C-4.02 3.35 -2.04 1.7 0 0 Z " fill="#D8F4FA" transform="translate(311,320)"/>
<path d="M0 0 C0.99 0 1.98 0 3 0 C3 0.66 3 1.32 3 2 C3.99 2 4.98 2 6 2 C6 2.66 6 3.32 6 4 C4.35 4.33 2.7 4.66 1 5 C0.67 3.35 0.34 1.7 0 0 Z " fill="#1C48B8" transform="translate(206,314)"/>
<path d="M0 0 C0.6875 1.6875 0.6875 1.6875 1 4 C-0.375 6.75 -0.375 6.75 -2 9 C-2.33 9 -2.66 9 -3 9 C-3 7.02 -3 5.04 -3 3 C-2.01 3 -1.02 3 0 3 C0 2.01 0 1.02 0 0 Z " fill="#2FA2AF" transform="translate(351,269)"/>
<path d="M0 0 C0.95465783 2.16967689 1.14401212 3.56328793 0.3984375 5.82421875 C-0.35870385 7.5684743 -1.17609198 9.28627131 -2 11 C-2.33 11 -2.66 11 -3 11 C-3.39253254 6.55129785 -2.15305957 3.85756507 0 0 Z " fill="#20B3B8" transform="translate(361,245)"/>
<path d="M0 0 C3.63 0.33 7.26 0.66 11 1 C11 1.33 11 1.66 11 2 C5.06 2.495 5.06 2.495 -1 3 C-0.67 2.01 -0.34 1.02 0 0 Z " fill="#CCFEF4" transform="translate(93,96)"/>
<path d="M0 0 C1.32 0.99 2.64 1.98 4 3 C2.625 4.5 2.625 4.5 1 6 C0.34 6 -0.32 6 -1 6 C-1.042721 4.33388095 -1.04063832 2.66617115 -1 1 C-0.67 0.67 -0.34 0.34 0 0 Z " fill="#DCFBF8" transform="translate(181,48)"/>
<path d="M0 0 C2.31 0 4.62 0 7 0 C7.33 1.32 7.66 2.64 8 4 C2.25 2.25 2.25 2.25 0 0 Z " fill="#CDFCF7" transform="translate(288,44)"/>
<path d="M0 0 C3.37462715 0.54723683 5.08235 1.0549 8 3 C4.71023192 4.09658936 3.28696233 3.79953138 0 3 C0 2.01 0 1.02 0 0 Z " fill="#E2F0FA" transform="translate(119,353)"/>
<path d="M0 0 C3.63 0 7.26 0 11 0 C11.33 0.66 11.66 1.32 12 2 C8.70303895 3.09898702 7.59505097 2.87124444 4.3125 2.0625 C3.50425781 1.86785156 2.69601563 1.67320312 1.86328125 1.47265625 C0.94095703 1.23869141 0.94095703 1.23869141 0 1 C0 0.67 0 0.34 0 0 Z " fill="#2B35A2" transform="translate(250,327)"/>
<path d="M0 0 C3 0.1875 3 0.1875 6 1 C6.66 1.99 7.32 2.98 8 4 C4.7 3.34 1.4 2.68 -2 2 C-1.34 1.34 -0.68 0.68 0 0 Z " fill="#E2EEFC" transform="translate(239,321)"/>
<path d="M0 0 C1.32 0 2.64 0 4 0 C4 1.65 4 3.3 4 5 C2.68 4.67 1.36 4.34 0 4 C0 2.68 0 1.36 0 0 Z " fill="#2183B7" transform="translate(50,288)"/>
<path d="M0 0 C1.485 0.99 1.485 0.99 3 2 C2.67 3.65 2.34 5.3 2 7 C-0.13324818 4.86675182 -0.53238345 3.8992226 -1 1 C-0.67 0.67 -0.34 0.34 0 0 Z " fill="#3593B5" transform="translate(40,274)"/>
<path d="M0 0 C1.875 0.125 1.875 0.125 4 1 C5.25 4.0625 5.25 4.0625 6 7 C3.00675737 5.9024777 2.15389099 5.32317108 0.75 2.375 C0.5025 1.59125 0.255 0.8075 0 0 Z " fill="#E2FEFC" transform="translate(201,109)"/>
</svg>
