<svg width="60" height="60" viewBox="2 0 46 62" fill="none" xmlns="http://www.w3.org/2000/svg">
<path d="M14.0536 18.2542C14.0536 16.887 14.9232 15.7747 15.9922 15.7747C17.0613 15.7747 17.9304 16.887 17.9304 18.2542C17.9304 19.6218 17.0613 20.7336 15.9922 20.7336C14.9232 20.7336 14.0536 19.6218 14.0536 18.2542Z" fill="#020D26"/>
<path d="M25.6383 21.5286C25.574 20.5458 24.9136 19.8852 23.9941 19.8852C23.0751 19.8852 22.4142 20.5458 22.3505 21.5286C22.3407 21.675 22.3361 21.8249 22.3361 21.9743C22.3361 23.5399 22.6522 24.8165 23.3948 26.2429L23.4226 26.2977L23.4236 26.2996C23.5315 26.5109 23.6938 26.8288 23.9941 26.8288C24.2958 26.8288 24.4582 26.5095 24.5656 26.2977L24.5939 26.2429C25.3361 24.8165 25.6527 23.5399 25.6527 21.9743C25.6527 21.8249 25.648 21.675 25.6383 21.5286Z" fill="#020D26"/>
<path d="M34.504 17.8672C34.2485 17.0583 33.4982 16.4346 32.6363 16.3159C31.4326 16.1501 30.2093 16.869 29.3629 18.2377C29.1084 18.6475 29.2241 18.9949 29.4173 19.1827C29.5494 19.3116 29.7257 19.3822 29.9256 19.3868C29.9303 19.3873 29.9344 19.3873 29.9385 19.3873C30.1752 19.3873 30.3945 19.2322 30.5558 19.1182L30.5573 19.1172L30.6303 19.0665C31.503 18.4781 32.2379 18.4357 33.0145 18.9274C33.4442 19.1995 33.8883 19.2262 34.2023 18.998C34.5271 18.7611 34.6458 18.317 34.504 17.8672Z" fill="#020D26"/>
<path fill-rule="evenodd" clip-rule="evenodd" d="M43.5458 19.202L40.3618 16.8484C40.6866 13.7304 40.4199 7.61678 34.8424 2.65279C33.6742 1.63461 31.9026 1.63922 30.7225 2.66251C28.8589 4.2788 26.4716 5.16855 23.9994 5.16855C21.5278 5.16855 19.1405 4.2788 17.2774 2.66251C16.0968 1.63871 14.3247 1.63513 13.156 2.65381C7.41812 7.79074 7.33486 13.8711 7.64375 16.8438L4.46338 19.1948C2.8588 20.3578 1.90027 22.2335 1.90027 24.212V27.3208C1.90027 36.8722 5.66141 46.1969 11.7153 51.6557C16.5912 56.0517 20.4942 58.1019 24.002 58.108C27.5057 58.1019 31.4087 56.0517 36.2841 51.6557C42.3385 46.1969 46.0991 36.8722 46.0991 27.3208V24.212C46.0991 22.2335 45.1411 20.3578 43.5458 19.202ZM38.6822 44.8702L38.6812 44.8718C39.5279 42.479 40.0382 39.9731 40.1128 37.5634C40.1191 37.3593 40.1223 37.1559 40.1223 36.9533M38.6822 44.8702L38.6812 44.8718C40.4853 42.0264 41.8498 38.7034 42.6725 35.1553C43.2586 32.6277 43.5699 29.9858 43.5699 27.3208L43.57 24.2118C43.57 23.0181 43.0149 21.9319 42.0476 21.2309L39.8427 19.6008C39.7397 19.9608 39.6209 20.3252 39.4869 20.691C39.3868 20.9641 39.2782 21.2379 39.1613 21.5112C38.6751 22.6479 38.0453 23.7753 37.2878 24.7996C37.108 25.0425 36.9211 25.2797 36.7271 25.5098C38.1639 27.7139 39.162 30.1405 39.6881 32.6865C39.9758 34.0785 40.1223 35.5066 40.1223 36.9533M30.3427 53.1553C27.9137 54.7813 25.8163 55.5866 24.002 55.5892C23.0938 55.5882 22.1142 55.384 21.0601 54.9814C24.8747 51.0673 27.04 45.8142 27.04 40.3299C27.04 37.1249 26.3467 33.9957 25.0695 31.331C28.7808 31.1075 32.2264 29.7127 34.9503 27.3284C36.7168 30.2254 37.6481 33.5286 37.6481 36.953C37.6481 42.84 34.5232 49.736 30.3427 53.1553ZM4.42997 27.3208V24.212C4.42997 23.0183 4.98453 21.9316 5.96208 21.2235L8.19112 19.576C8.55734 20.8361 9.07215 22.045 9.72489 23.1789C9.77724 23.2698 9.83047 23.3602 9.88458 23.4502C10.2221 24.0111 10.594 24.5528 10.9988 25.0722L5.24915 34.8037C4.71464 32.3831 4.42997 29.8626 4.42997 27.3208ZM23.9994 17.8835C24.7808 17.8835 25.3903 17.1456 26.169 16.2029C26.49 15.8143 26.8397 15.391 27.242 14.9701C29.7224 12.3393 32.8925 11.6808 35.1965 12.5936C37.166 13.3733 38.1107 15.1733 37.8496 17.468C37.3618 20.3261 36.0358 22.9247 33.9892 24.9529C31.3732 27.5454 27.8618 28.9729 23.9994 28.9729C20.1376 28.9729 16.6262 27.5454 14.0101 24.9529C11.9631 22.9247 10.637 20.3261 10.1498 17.468C9.88821 15.1733 10.8334 13.3733 12.8023 12.5936C15.1075 11.6808 18.2775 12.3393 20.7574 14.9701C21.1599 15.3912 21.5097 15.8147 21.8307 16.2034C22.609 17.1459 23.2182 17.8835 23.9994 17.8835Z" fill="#020D26"/>
</svg>
