<?xml version="1.0" standalone="no"?>
<!DOCTYPE svg PUBLIC "-//W3C//DTD SVG 20010904//EN"
 "http://www.w3.org/TR/2001/REC-SVG-20010904/DTD/svg10.dtd">
<svg version="1.0" xmlns="http://www.w3.org/2000/svg"
 width="122.000000pt" height="116.000000pt" viewBox="0 0 122.000000 116.000000"
 preserveAspectRatio="xMidYMid meet">
<metadata>
Created by potrace 1.10, written by Peter Selinger 2001-2011
</metadata>
<g transform="translate(0.000000,116.000000) scale(0.100000,-0.100000)"
fill="#000000" stroke="none">
<path d="M493 976 c-101 -33 -188 -108 -233 -201 -19 -39 -26 -70 -28 -137 -4
-97 11 -161 54 -224 23 -33 24 -40 13 -61 -7 -14 -26 -34 -41 -45 -34 -24 -36
-46 -5 -57 29 -11 108 3 141 24 22 15 28 15 53 1 83 -42 227 -40 317 6 65 33
141 112 172 181 26 54 29 73 29 157 0 82 -4 103 -27 152 -34 73 -107 146 -180
182 -70 34 -196 45 -265 22z m255 -50 c70 -35 128 -95 161 -165 22 -47 26 -70
26 -146 0 -78 -4 -97 -28 -146 -47 -97 -137 -165 -246 -188 -63 -13 -123 -7
-198 21 -47 17 -54 18 -75 4 -25 -16 -107 -40 -114 -33 -2 2 12 21 31 41 41
44 44 66 10 110 -84 111 -75 302 21 414 45 53 82 79 147 103 75 28 193 21 265
-15z"/>
<path d="M590 766 c0 -19 -5 -26 -20 -26 -29 0 -60 -36 -60 -70 0 -46 31 -70
90 -70 59 0 79 -22 54 -58 -13 -18 -25 -22 -75 -22 -44 0 -60 -3 -56 -12 2 -7
17 -13 33 -13 24 -1 29 -5 29 -25 0 -15 6 -25 15 -25 9 0 15 10 15 25 0 14 6
26 13 26 6 1 16 2 21 3 21 3 41 34 41 65 0 45 -26 66 -82 66 -51 0 -71 16 -66
52 3 21 9 23 71 26 51 2 67 6 67 17 0 10 -11 15 -35 15 -30 0 -34 3 -32 21 1
12 -4 24 -10 26 -8 3 -13 -5 -13 -21z"/>
<path d="M754 419 c-10 -17 13 -36 27 -22 12 12 4 33 -11 33 -5 0 -12 -5 -16
-11z"/>
</g>
</svg>
