<?xml version="1.0" encoding="utf-8"?>
<!DOCTYPE svg PUBLIC "-//W3C//DTD SVG 1.0//EN" "http://www.w3.org/TR/2001/REC-SVG-20010904/DTD/svg10.dtd">
<svg version="1.0" xmlns="http://www.w3.org/2000/svg" width="309px" height="163px" viewBox="0 0 309 163" preserveAspectRatio="xMidYMid meet">
 <g fill="#ffffff">
  <path d="M191.50 138 c0 -1.95 0.05 -2 1.75 -2 1.70 0 1.75 0.05 1.75 2 0 1.95 -0.05 2 -1.75 2 -1.70 0 -1.75 -0.05 -1.75 -2z"/>
  <path d="M182 134.30 l0 -3.75 -1.60 -0.15 c-1.50 -0.15 -1.65 -0.30 -1.80 -2 l-0.15 -1.90 5 0 5.05 0 0 1.75 c0 1.60 -0.10 1.75 -1.50 1.75 -1.35 0 -1.50 0.15 -1.50 1.50 0 1.25 0.20 1.50 1.25 1.50 1.10 0 1.25 0.20 1.25 1.75 0 1.40 -0.20 1.75 -1 1.75 -0.55 0 -1 0.35 -1 0.75 0 0.55 -0.55 0.75 -2 0.75 l-2 0 0 -3.70z"/>
  <path d="M287.50 135.75 c0 -1.05 -0.25 -1.25 -1.50 -1.25 -1.40 0 -1.50 -0.15 -1.50 -1.75 0 -1.95 0.15 -2 4.20 -1.45 l2.30 0.35 0 2.65 0 2.70 -1.75 0 c-1.55 0 -1.75 -0.15 -1.75 -1.25z"/>
  <path d="M166.50 134.50 c0 -1.95 0.05 -2 1.75 -2 1.70 0 1.75 0.05 1.75 2 0 1.95 -0.05 2 -1.75 2 -1.70 0 -1.75 -0.05 -1.75 -2z"/>
  <path d="M202.50 134.50 c0 -1.95 0.05 -2 1.75 -2 1.70 0 1.75 0.05 1.75 2 0 1.95 -0.05 2 -1.75 2 -1.70 0 -1.75 -0.05 -1.75 -2z"/>
  <path d="M218 134.75 c0 -1.65 0.10 -1.75 1.75 -1.75 1.65 0 1.75 0.10 1.75 1.75 0 1.65 -0.10 1.75 -1.75 1.75 -1.65 0 -1.75 -0.10 -1.75 -1.75z"/>
  <path d="M227.80 135.40 c-0.15 -0.65 -0.30 -2.55 -0.30 -4.25 0 -2.45 -0.15 -3.15 -0.75 -3.15 -0.50 0 -0.75 -0.55 -0.75 -1.75 0 -1.65 0.10 -1.75 1.75 -1.75 1.40 0 1.75 0.20 1.75 1 0 0.90 0.35 1 4 1 l4 0 0 1.75 0 1.75 -2.90 0 -2.95 0 0.05 3.15 0.05 3.10 -1.80 0.15 c-1.55 0.15 -1.85 -0.05 -2.15 -1z"/>
  <path d="M249 133.75 c0 -1.65 0.10 -1.75 1.75 -1.75 1.65 0 1.75 0.10 1.75 1.75 0 1.65 -0.10 1.75 -1.75 1.75 -1.65 0 -1.75 -0.10 -1.75 -1.75z"/>
  <path d="M116 132.75 c0 -1.65 0.10 -1.75 1.75 -1.75 1.65 0 1.75 0.10 1.75 1.75 0 1.65 -0.10 1.75 -1.75 1.75 -1.65 0 -1.75 -0.10 -1.75 -1.75z"/>
  <path d="M132.50 130.55 l0 -4.05 3.55 0 3.50 0 -0.15 1.90 c-0.15 1.60 -0.35 1.85 -1.50 2 -1.15 0.15 -1.35 0.40 -1.50 2 -0.15 1.75 -0.25 1.85 -2 2 l-1.90 0.15 0 -4z"/>
  <path d="M276.50 131.75 c0 -1.40 0.20 -1.75 1 -1.75 0.80 0 1 -0.35 1 -1.75 0 -1.70 0.05 -1.75 2 -1.75 1.75 0 2 0.15 2 1.20 0 2.60 -0.60 4.30 -1.55 4.30 -0.55 0 -0.95 0.35 -0.95 0.75 0 0.50 -0.55 0.75 -1.75 0.75 -1.65 0 -1.75 -0.10 -1.75 -1.75z"/>
  <path d="M218 129.50 c0 -1.95 0.05 -2 1.75 -2 1.70 0 1.75 0.05 1.75 2 0 1.95 -0.05 2 -1.75 2 -1.70 0 -1.75 -0.05 -1.75 -2z"/>
  <path d="M241.15 130.15 l-2.65 -0.20 0 -1.75 0 -1.75 4.15 0.15 4.10 0.15 0.15 1.90 c0.20 2.10 0.70 1.95 -5.75 1.50z"/>
  <path d="M256 128.50 c0 -1.95 0.05 -2 1.75 -2 1.70 0 1.75 0.05 1.75 2 0 1.95 -0.05 2 -1.75 2 -1.70 0 -1.75 -0.05 -1.75 -2z"/>
  <path d="M265.50 128.55 l0 -2.05 2.05 0 2 0 -0.15 1.90 c-0.15 1.75 -0.25 1.85 -2 2 l-1.90 0.15 0 -2z"/>
  <path d="M284.50 128.30 c0 -1.60 0.10 -1.70 2.30 -2 4.15 -0.55 4.20 -0.50 4.20 1.70 l0 2 -3.25 0 -3.25 0 0 -1.70z"/>
  <path d="M202.50 126.25 c0 -2.25 0 -2.25 1.75 -2.25 1.75 0 1.75 0 1.75 2.25 0 2.25 0 2.25 -1.75 2.25 -1.75 0 -1.75 0 -1.75 -2.25z"/>
  <path d="M164 124.30 c0 -1.55 0.15 -1.70 1.90 -2 3.70 -0.60 4.10 -0.45 4.10 1.40 0 1.55 -0.15 1.70 -1.85 2 -3.75 0.60 -4.15 0.45 -4.15 -1.40z"/>
  <path d="M262 123.25 c0 -1.65 0.10 -1.75 1.75 -1.75 1.65 0 1.75 0.10 1.75 1.75 0 1.65 -0.10 1.75 -1.75 1.75 -1.65 0 -1.75 -0.10 -1.75 -1.75z"/>
  <path d="M29.50 116 c0 -1.95 0.05 -2 1.75 -2 1.70 0 1.75 0.05 1.75 2 0 1.95 -0.05 2 -1.75 2 -1.70 0 -1.75 -0.05 -1.75 -2z"/>
  <path d="M47.85 114.15 c-0.20 -0.15 -0.35 -1.10 -0.35 -2 0 -1.65 0.05 -1.70 1.90 -1.55 1.75 0.15 1.85 0.25 2 2.05 0.15 1.80 0.10 1.85 -1.55 1.85 -0.90 0 -1.85 -0.15 -2 -0.35z"/>
  <path d="M129 71.75 c0 -1.65 0.10 -1.75 1.75 -1.75 1.65 0 1.75 0.10 1.75 1.75 0 1.65 -0.10 1.75 -1.75 1.75 -1.65 0 -1.75 -0.10 -1.75 -1.75z"/>
  <path d="M111.75 63.65 c-3.30 -0.10 -6.50 -0.40 -7.10 -0.70 -2.15 -1.15 -2.65 -3.25 -2.65 -11.15 0 -11.85 0.45 -12.30 12.20 -12.30 11.85 0 11.80 -0.05 11.80 12.05 l0 8.95 -1.35 1.50 c-1.65 1.75 -3.15 1.95 -12.90 1.65z m5.85 -9.80 c0.85 -1.05 1.40 -2 1.30 -2.15 -0.15 -0.10 -0.90 0.70 -1.65 1.80 -1.15 1.70 -1.65 2 -3.15 2 -1.75 0 -1.75 0 -0.85 1 0.85 0.95 0.95 0.95 1.90 0.15 0.50 -0.50 1.65 -1.75 2.45 -2.80z m-5.65 -4.85 c1.75 0 2.65 -0.25 3.30 -1 0.50 -0.55 1.60 -1 2.45 -1.05 1.30 0 1.40 -0.10 0.55 -0.45 -1.40 -0.60 -5.65 -0.60 -7.85 0.05 -2 0.55 -2.30 1.30 -1.50 3.95 l0.35 1.25 0.15 -1.35 c0.15 -1.30 0.30 -1.40 2.55 -1.40z"/>
  <path d="M18.50 44 l0 -2.50 1.75 0 1.75 0 0 2.50 0 2.50 -1.75 0 -1.75 0 0 -2.50z"/>
  <path d="M18 36 l0 -4 1.75 0 1.75 0 0 4 0 4 -1.75 0 -1.75 0 0 -4z"/>
  <path d="M116 36.25 c0 -1.65 0.10 -1.75 1.75 -1.75 1.65 0 1.75 0.10 1.75 1.75 0 1.65 -0.10 1.75 -1.75 1.75 -1.65 0 -1.75 -0.10 -1.75 -1.75z"/>
  <path d="M92.50 32.25 c0 -1.65 0.10 -1.75 1.75 -1.75 1.65 0 1.75 0.10 1.75 1.75 0 1.65 -0.10 1.75 -1.75 1.75 -1.65 0 -1.75 -0.10 -1.75 -1.75z"/>
  <path d="M75.50 25.75 c0 -1.65 0.10 -1.75 1.75 -1.75 1.65 0 1.75 0.10 1.75 1.75 0 1.65 -0.10 1.75 -1.75 1.75 -1.65 0 -1.75 -0.10 -1.75 -1.75z"/>
  <path d="M20 25.25 c0 -1.40 0.20 -1.75 1 -1.75 0.75 0 1 -0.35 1 -1.25 0 -1.10 0.20 -1.25 1.75 -1.25 1.65 0 1.75 0.10 1.75 1.75 0 1.40 -0.20 1.75 -1 1.75 -0.75 0 -1 0.35 -1 1.25 0 1.10 -0.20 1.25 -1.75 1.25 -1.65 0 -1.75 -0.10 -1.75 -1.75z"/>
  <path d="M63.50 25.25 c0 -1.10 -0.20 -1.25 -1.75 -1.25 -1.65 0 -1.75 -0.10 -1.75 -1.75 0 -1.65 0.10 -1.75 1.75 -1.75 1.55 0 1.75 0.15 1.75 1.25 0 1.10 0.20 1.25 1.75 1.25 1.65 0 1.75 0.10 1.75 1.75 0 1.65 -0.10 1.75 -1.75 1.75 -1.55 0 -1.75 -0.15 -1.75 -1.25z"/>
 </g>
 <g fill="#e2e1df">
  <path d="M0 81.50 l0 -81.50 154.50 0 154.50 0 0 81.50 0 81.50 -154.50 0 -154.50 0 0 -81.50z m184.10 51.40 c-0.25 -5.40 -0.50 -5.75 -0.55 -0.75 0 2.40 0.15 4.35 0.35 4.35 0.20 0 0.30 -1.65 0.20 -3.60z m-139.30 0.75 c-0.15 -1.05 -0.45 -4.55 -0.60 -7.75 -0.35 -6.55 0.20 -10.55 2 -13.70 0.95 -1.75 1.30 -1.95 3.05 -1.95 1.95 0 2.05 0.10 3.50 3 1.50 3 1.50 3.05 1.40 10.75 -0.05 4.25 -0.15 8.55 -0.25 9.50 l-0.15 1.75 6 0.10 6 0.15 -1.70 -1.45 c-1.90 -1.70 -1.90 -1.95 -0.10 -10.05 0.80 -3.60 1.05 -6.45 1.05 -11.75 0.05 -9 -0.85 -13.65 -3.50 -18.15 -0.55 -0.90 -1 -2.30 -1 -3.15 l0 -1.45 8.05 0 c7.55 0 11.55 -0.45 13.55 -1.55 1.45 -0.75 4.05 -0.50 5.40 0.55 0.70 0.55 1.85 1 2.60 1 l1.40 0 0.15 22.90 0.10 22.85 0.15 -23.05 0.10 -23 1.50 -1.45 c0.85 -0.80 1.50 -1.85 1.50 -2.30 0 -0.50 -0.65 -1.15 -1.50 -1.55 l-1.50 -0.65 0 -8.85 0 -8.85 2.15 -0.60 c1.25 -0.35 4.15 -0.45 7.35 -0.30 4.70 0.20 6.05 0.50 13 2.90 9.40 3.20 13.10 3.55 17.25 1.45 l2.50 -1.25 0.15 -14.85 0.10 -14.80 -2.35 0.75 c-1.75 0.55 -3.80 0.65 -7.40 0.50 -4.35 -0.25 -6.05 -0.60 -13.25 -3.05 -8.70 -2.90 -10.10 -3.15 -15.85 -2.55 -3.50 0.40 -3.55 0.35 -3.80 -0.80 -0.10 -0.65 -0.25 10.40 -0.30 24.60 l-0.05 25.85 -1.55 0.30 c-0.85 0.15 -2.35 0.65 -3.30 1.15 -1.70 0.80 -2.05 0.80 -5.85 0 -2.25 -0.50 -7.05 -1.70 -10.65 -2.70 l-6.65 -1.85 0 -1.85 c0 -1.55 0.20 -1.90 1.50 -2.45 2.20 -0.90 5.75 -5.10 6.70 -7.85 0.45 -1.30 0.80 -3.50 0.80 -5 0 -2.50 0.05 -2.65 1.65 -3.35 0.95 -0.35 2.15 -1.30 2.75 -2.05 1 -1.25 1 -1.45 0.35 -2.75 -0.40 -0.75 -1.05 -1.50 -1.50 -1.65 -1 -0.40 -1 -2.95 0 -6.70 2.45 -9.40 2.10 -16.15 -1.05 -19.65 -2.25 -2.45 -3.10 -2.65 -6.20 -1.20 -3.35 1.55 -5.35 1.55 -6.50 0.05 -1.40 -1.75 -6.55 -4.30 -10.35 -5.10 -5.85 -1.25 -15.65 -0.75 -21.35 1.10 -3.30 1.05 -6.40 4.20 -7.55 7.65 -1 3 -1.15 9.30 -0.30 14.55 0.85 5.20 0.70 8.85 -0.45 10.30 -1.70 2.20 -1.10 3.50 2.55 5.75 1.10 0.70 1.35 1.30 1.60 4.05 0.15 1.80 0.65 4.05 1.05 5.05 1 2.45 4.55 6.15 6.60 6.90 1.50 0.55 1.70 0.80 1.70 2.35 0 1.30 -0.45 2.20 -1.70 3.55 -2.30 2.35 -5.05 7.55 -6.05 11.25 -0.90 3.50 -2.05 11.05 -2.45 15.85 -0.25 3 -0.15 3.50 0.75 4.35 0.85 0.75 1.35 0.85 2.60 0.50 0.90 -0.25 2.20 -0.45 2.95 -0.45 1.55 0 1.70 0.30 2.15 5.85 0.15 2 0.75 5.20 1.30 7.15 1.30 4.75 1.25 6.20 -0.30 7.20 -2.25 1.50 -1.45 1.80 4.55 1.80 l5.80 0 -0.30 -1.85z m185.35 -2.05 c-0.35 -3.85 -1.05 -4.40 -0.90 -0.75 0.15 4.05 0.20 4.25 0.70 3.90 0.25 -0.15 0.35 -1.55 0.20 -3.15z m-95.60 -1.25 c-0.20 -3.05 -0.55 -2.95 -0.55 0.15 0 1.45 0.15 2.50 0.35 2.30 0.20 -0.20 0.30 -1.30 0.20 -2.45z"/>
  <path d="M107 63.50 c0 -0.25 -0.60 -0.50 -1.30 -0.50 -1.70 0 -2.70 -1.10 -2.70 -2.95 0 -1.85 0.60 -2 1.45 -0.40 1.10 2.05 2.15 2.30 9.75 2.40 6.85 0.05 7.30 0.10 7.30 1 0 0.90 -0.45 0.95 -7.25 0.95 -4.50 0 -7.25 -0.20 -7.25 -0.50z"/>
  <path d="M123.95 59.25 c1.05 -2.25 2.05 -2.25 2.05 0 0 1.60 -0.15 1.75 -1.45 1.75 l-1.40 0 0.80 -1.75z"/>
  <path d="M111.55 57.70 c-2.85 -2.55 -4.35 -5.35 -4.85 -9.05 -0.30 -2.25 -0.20 -2.60 0.70 -3.10 0.55 -0.30 1.40 -0.55 1.80 -0.55 1.05 0 1 1.50 -0.05 2.25 -0.70 0.50 -0.75 0.90 -0.30 2.30 0.55 1.65 0.55 1.65 0.60 0.35 0.05 -1.25 0.25 -1.40 1.80 -1.40 1.50 0 1.75 0.15 1.75 1.20 0 1 -0.20 1.15 -1.10 0.90 -1.10 -0.25 -1.10 -0.25 -0.25 1.05 l0.85 1.35 -1.35 0.05 c-0.80 0 -1.10 0.15 -0.75 0.30 0.30 0.10 0.60 1 0.60 1.95 0 1.60 0.10 1.70 1.75 1.70 0.95 0 1.75 0.25 1.75 0.50 0 0.30 0.35 0.50 0.75 0.50 1.05 0 0.95 0.65 -0.20 1.35 -0.85 0.55 -1.30 0.30 -3.50 -1.65z"/>
  <path d="M118.50 54.10 c0 -1.10 -0.25 -1.60 -0.75 -1.60 -0.40 0 -0.75 0.45 -0.75 1 0 0.80 -0.35 1 -1.70 1 l-1.70 0 1.15 -1.35 c0.65 -0.80 1.75 -2.05 2.45 -2.90 l1.25 -1.50 0.05 1.65 c0 0.85 0.25 1.60 0.50 1.60 0.30 0 0.50 -0.40 0.50 -0.95 0 -0.50 0.15 -1.60 0.30 -2.45 0.30 -1.35 0.15 -1.55 -1.25 -1.85 -1.10 -0.25 -1.55 -0.60 -1.55 -1.30 0 -1.15 0.90 -1.20 3.25 -0.25 1.25 0.55 1.75 1.05 1.75 1.85 0 2.05 -1.60 6.90 -2.55 7.75 -0.90 0.80 -0.95 0.80 -0.95 -0.70z"/>
  <path d="M113.50 51.50 c0 -0.25 0.35 -0.50 0.75 -0.50 0.40 0 0.75 -0.45 0.75 -1 0 -0.70 0.35 -1 1.10 -1 1.05 0 1.05 0.05 -0.35 1.50 -1.45 1.55 -2.25 1.90 -2.25 1z"/>
 </g>
 <g fill="#ffcabf">
  <path d="M31.75 116.05 c-0.25 -0.85 -0.50 -0.90 -1.90 -0.50 -2.50 0.70 -4.05 0.55 -5.25 -0.55 -1.45 -1.35 -1.40 -2 0.15 -2 0.70 0 1.25 0.25 1.25 0.55 0 0.35 1.05 0.40 3.25 0.20 l3.25 -0.35 0 1.80 c0 2 -0.25 2.30 -0.75 0.85z"/>
  <path d="M23.70 108.65 c0.15 -1.35 0.40 -3.75 0.55 -5.40 0.40 -4.05 0.75 -5.25 1.55 -5.25 0.55 0 0.65 1 0.40 5.40 -0.35 6.95 -0.50 7.60 -1.75 7.60 -0.90 0 -0.95 -0.25 -0.75 -2.35z"/>
  <path d="M26.20 91.90 c0.40 -2.15 4.10 -9.60 5.35 -10.70 0.90 -0.85 0.95 -0.80 0.95 0.95 0 1.50 -0.20 1.85 -1 1.85 -0.80 0 -1 0.35 -1 1.75 0 0.95 -0.20 1.75 -0.50 1.75 -0.25 0 -0.50 0.45 -0.50 0.95 0 0.55 -0.35 1.30 -0.75 1.75 -0.40 0.40 -0.75 1.30 -0.75 2 0 1 -0.25 1.30 -1.05 1.30 -0.95 0 -1.05 -0.20 -0.75 -1.60z"/>
  <path d="M90.30 91.25 c-0.20 -0.55 -0.65 -0.70 -1.50 -0.45 -0.85 0.20 -1.75 -0.05 -2.80 -0.80 -1.15 -0.85 -1.70 -1 -2.15 -0.55 -0.95 0.95 -2.85 0.70 -2.85 -0.40 0 -0.80 0.50 -1.05 2.75 -1.30 2.45 -0.35 2.75 -0.50 2.75 -1.55 0 -1 -0.25 -1.20 -1.50 -1.20 -1 0 -1.50 -0.25 -1.50 -0.75 0 -0.40 0.15 -0.70 0.40 -0.65 0.20 0.05 1.05 -0.20 1.85 -0.55 0.85 -0.35 2.10 -0.75 2.90 -0.90 0.90 -0.20 1.35 -0.60 1.35 -1.20 0 -0.75 0.35 -0.95 1.75 -0.95 1.40 0 1.75 0.20 1.75 1 0 0.55 0.30 1 0.65 1 0.35 0 1.15 0.45 1.75 1 1.65 1.55 1.40 3.65 -0.65 5.95 -0.95 1.05 -1.75 2.20 -1.75 2.50 0 0.85 -2.85 0.65 -3.20 -0.20z"/>
  <path d="M40.15 84.75 c-0.35 -0.40 -0.65 -1.40 -0.65 -2.25 0 -1.35 0.15 -1.50 1.55 -1.50 1.95 0 2.95 1 2.95 2.95 0 1.40 -0.15 1.55 -1.60 1.55 -0.90 -0.05 -1.95 -0.35 -2.25 -0.75z"/>
  <path d="M42.50 80.20 c-3.05 -1.25 -5.05 -5.50 -6.30 -13.45 -0.35 -2.45 -0.70 -5.80 -0.70 -7.35 0 -2.55 -0.10 -2.90 -1 -2.90 -0.85 0 -1 -0.35 -1 -2 0 -1.65 0.20 -2 0.95 -2 0.85 0 0.95 -0.50 1.15 -5.85 0.10 -3.25 0.15 -6 0.05 -6.10 -0.10 -0.15 -0.80 0.40 -1.55 1.10 -0.95 0.90 -1.95 1.35 -3 1.35 -1.50 0 -1.60 -0.10 -1.60 -1.70 0 -1.30 0.35 -2.05 1.55 -3 1.65 -1.40 4.65 -1.80 5.10 -0.65 0.15 0.35 0.30 0.25 0.30 -0.25 0.10 -1.60 3.55 -1.15 6.35 0.75 5.05 3.50 7.65 3.50 12.70 0.10 2.40 -1.60 2.90 -1.75 6.25 -1.75 5 0 6.50 1.05 8.45 5.95 0.90 2.20 2.15 4.30 3.10 5.25 1.65 1.55 1.95 1.80 4 3.95 3.40 3.55 2.70 7.85 -1.65 9.65 -1.60 0.70 -1.65 0.85 -1.65 3.35 0 1.50 -0.35 3.70 -0.80 5 -0.95 2.75 -4.50 6.95 -6.70 7.85 -1.75 0.70 -2 1.50 -0.45 1.50 1.80 0 0.50 0.95 -1.70 1.20 -1.15 0.15 -6.15 0.35 -11.10 0.50 -7.05 0.15 -9.40 0.05 -10.75 -0.50z m8.50 -13.50 c0 -0.10 -0.85 -0.20 -1.85 -0.15 -1.45 0 -1.65 0.10 -0.90 0.40 0.90 0.35 2.75 0.20 2.75 -0.25z m26.20 -9.25 c0.20 -1.15 0 -2.05 -0.70 -3.15 l-1 -1.55 0 3.15 c0 2.30 0.20 3.10 0.70 3.10 0.35 0 0.80 -0.70 1 -1.55z m-39.25 -2.40 c0.40 -0.70 0.35 -1.10 -0.20 -1.55 -0.65 -0.55 -0.75 -0.40 -0.75 0.95 0 1.80 0.25 1.95 0.95 0.60z m23.25 -1.15 c-0.45 -0.70 -1.15 0.10 -0.85 0.90 0.20 0.60 0.40 0.65 0.70 0.15 0.20 -0.35 0.25 -0.85 0.15 -1.05z"/>
  <path d="M33.80 78.85 c0.15 -0.40 -0.45 -0.90 -1.50 -1.25 -2 -0.75 -5.60 -4.45 -6.60 -6.90 -0.40 -1 -0.90 -3.25 -1.05 -5.05 -0.30 -3.05 -0.40 -3.30 -2.10 -4.35 -2.40 -1.55 -3.05 -2.35 -3.40 -4.50 -0.20 -1.40 0 -2.10 1 -3.45 0.65 -0.90 1.30 -2.05 1.40 -2.60 0.15 -0.60 0.70 -1.05 1.40 -1.15 0.65 -0.10 1.75 -0.85 2.40 -1.65 0.95 -1.10 1.65 -1.45 2.95 -1.45 1.60 0 1.70 0.10 1.70 1.65 0 1.80 -1.65 3.85 -3.15 3.85 -0.45 0 -0.85 0.20 -0.85 0.45 0 0.25 -1.10 0.60 -2.50 0.80 -2.30 0.30 -2.50 0.45 -2.50 1.70 0 2.50 1.10 4.05 3.05 4.35 1.65 0.30 1.85 0.50 2.15 2.15 0.15 1 0.30 2.65 0.30 3.65 0 1.05 0.35 2.80 0.85 3.95 0.80 2 4.25 5.75 6.20 6.65 0.65 0.30 0.95 0.95 0.95 2.15 0 0.90 -0.20 1.65 -0.50 1.65 -0.25 0 -0.35 -0.30 -0.20 -0.65z"/>
  <path d="M121.40 71.65 c-1.65 -0.40 -1 -1.65 0.85 -1.65 1.40 0 1.75 0.20 1.75 1 0 1 -0.70 1.15 -2.60 0.65z"/>
  <path d="M128 71.05 c0 -0.85 0.30 -1.05 1.50 -1.05 0.85 0 1.50 -0.20 1.50 -0.50 0 -0.25 0.45 -0.50 1 -0.50 0.55 0 1 -0.20 1 -0.50 0 -0.25 0.70 -0.50 1.55 -0.50 1 0 1.45 0.20 1.35 0.65 -0.25 0.75 -4.10 2.70 -6.25 3.15 -1.45 0.30 -1.65 0.20 -1.65 -0.75z"/>
  <path d="M112.75 69 c-3 -1.10 -6.70 -2.20 -8.10 -2.50 -1.85 -0.40 -2.65 -0.80 -2.65 -1.35 0 -0.65 0.45 -0.75 2.90 -0.45 1.55 0.20 2.95 0.55 3 0.80 0.10 0.30 0.85 0.50 1.65 0.50 0.80 0 1.45 0.25 1.45 0.50 0 0.30 0.50 0.50 1.10 0.50 0.60 0 2.60 0.50 4.50 1.10 2.55 0.80 3.40 1.35 3.40 2 0 1.25 -0.95 1.10 -7.25 -1.10z"/>
  <path d="M92.50 66.80 c0 -1.50 0.20 -1.70 1.55 -2 2.55 -0.50 3.95 -0.35 3.95 0.40 0 0.40 -0.95 0.90 -2.25 1.25 -1.40 0.35 -2.25 0.85 -2.25 1.30 0 0.40 -0.20 0.75 -0.50 0.75 -0.25 0 -0.50 -0.75 -0.50 -1.70z"/>
  <path d="M106.50 63.05 c0 -0.85 0.45 -0.95 7.45 -0.85 l7.50 0.05 1.50 -1.45 1.55 -1.50 0 -7.60 c0 -7.45 -0.05 -7.70 -1.25 -8.90 -0.65 -0.65 -1.90 -1.35 -2.75 -1.55 -1.90 -0.40 -2 -1.75 -0.10 -1.80 1.55 -0.05 1.10 -0.25 -1.50 -0.70 -1.45 -0.20 -1.90 -0.55 -1.90 -1.25 0 -1.10 0.65 -1.25 2.80 -0.55 0.80 0.25 2.30 0.60 3.35 0.80 2.15 0.35 2.65 1.75 0.60 1.75 -0.80 0 -1.25 0.30 -1.25 0.75 0 0.45 0.45 0.75 1.25 0.75 1.05 0 1.25 0.25 1.25 1.50 0 1 0.25 1.50 0.75 1.50 0.65 0 0.75 1.20 0.75 7.75 0 4.85 -0.20 7.75 -0.50 7.75 -0.25 0 -0.50 0.50 -0.50 1.15 0 1.45 -0.90 2.35 -2.35 2.35 -0.65 0 -1.15 0.25 -1.15 0.50 0 0.30 -2.90 0.50 -7.75 0.50 -7.25 0 -7.75 -0.05 -7.75 -0.95z"/>
  <path d="M102 58.25 c0 -1.10 0.25 -1.75 0.65 -1.75 0.40 0 0.90 0.80 1.20 1.75 0.55 1.65 0.50 1.75 -0.65 1.75 -1.05 0 -1.20 -0.25 -1.20 -1.75z"/>
  <path d="M102 45.65 c0 -2.40 0.55 -3.65 1.55 -3.65 0.60 0 0.95 -0.35 0.95 -0.95 0 -1 1.25 -1.55 3.65 -1.55 2.05 0 1.65 1.25 -0.65 1.95 -2.10 0.60 -3.20 1.85 -3.75 4.20 -0.20 0.75 -0.65 1.35 -1.05 1.35 -0.45 0 -0.70 -0.55 -0.70 -1.35z"/>
  <path d="M127.50 38.90 c0 -0.50 0.85 -1 2.40 -1.35 1.30 -0.35 3.10 -1.05 4.05 -1.60 1.95 -1.15 2.30 -1 1.85 0.80 -0.25 0.90 -0.65 1.25 -1.50 1.25 -0.70 0 -1.30 0.25 -1.40 0.50 -0.10 0.30 -1.35 0.65 -2.80 0.85 -2.15 0.25 -2.60 0.15 -2.60 -0.45z"/>
  <path d="M111.15 36.40 c-0.90 -0.30 -1.65 -0.75 -1.65 -0.95 0 -0.25 -0.45 -0.45 -0.95 -0.45 -0.55 0 -2.40 -0.35 -4.10 -0.80 -3.05 -0.80 -3.95 -0.75 -10.05 0.10 l-2.40 0.35 0 -1.85 c0 -1.25 0.20 -1.80 0.75 -1.80 0.40 0 0.75 0.35 0.75 0.80 0 0.65 0.35 0.70 2.15 0.35 4.20 -0.80 8.40 -0.35 14.35 1.70 5.80 1.95 7.55 3.20 4.40 3.10 -0.90 -0.05 -2.40 -0.30 -3.25 -0.55z"/>
 </g>
 <g fill="#fbaa9f">
  <path d="M31.70 115.85 c-0.15 -0.45 -1.10 -0.60 -3.35 -0.45 -4.10 0.25 -5.10 -0.65 -4.65 -4.25 0.15 -1.30 0.30 -2.90 0.30 -3.50 0 -1.10 0.15 -1.15 4.85 -1.15 l4.80 0 -0.35 3.05 c-0.15 1.70 -0.30 3.95 -0.30 5 0 1.90 -0.75 2.65 -1.30 1.30z"/>
  <path d="M65 111 c0 -2.35 0.15 -3 0.75 -3 0.40 0 0.75 0.05 0.75 0.15 0.05 0.05 0.15 1.40 0.35 3 0.25 2.65 0.20 2.85 -0.80 2.85 -0.95 0 -1.05 -0.30 -1.05 -3z"/>
  <path d="M90 92 c0 -0.65 -0.35 -1 -1 -1 -1.25 0 -3.50 -1.05 -3.50 -1.60 0 -0.25 -0.65 -0.35 -1.50 -0.15 l-1.50 0.35 0 -3.05 c0 -2.85 0.05 -3.05 1.15 -3 0.60 0.05 1.75 -0.15 2.50 -0.50 1.90 -0.75 1.85 -0.80 1.85 1.25 0 1.95 1.65 4.70 2.80 4.70 0.40 0 0.85 0.35 1.05 0.80 0.15 0.40 0.60 0.65 0.95 0.50 0.50 -0.20 0.70 0.10 0.70 0.90 0 0.80 -0.35 1.30 -1.10 1.50 -1.90 0.50 -2.40 0.35 -2.40 -0.70z"/>
  <path d="M43.95 87.30 c-2.15 -0.75 -4.80 -3.50 -5.20 -5.40 -0.30 -1.25 -0.55 -1.40 -2.40 -1.40 -2.30 0 -3.80 -0.65 -2.90 -1.20 0.85 -0.55 0.65 -1.20 -0.55 -1.60 -1.70 -0.55 -5.95 -4.75 -6.95 -6.95 -0.50 -1.10 -0.95 -2.90 -0.95 -4 0 -2.95 -0.55 -5.75 -1.05 -5.45 -0.25 0.10 -1.05 -0.10 -1.85 -0.50 -1.30 -0.65 -2.10 -1.80 -2.80 -3.95 -0.35 -1.10 0.90 -4.25 1.85 -4.65 0.40 -0.15 0.60 -0.70 0.50 -1.40 -0.20 -0.95 0.10 -1.20 1.80 -1.80 1.15 -0.35 2.05 -0.90 2.05 -1.15 0 -0.30 0.30 -0.90 0.70 -1.30 0.35 -0.45 1.20 -2.20 1.80 -3.95 0.80 -2.20 1.70 -3.60 2.95 -4.65 1.65 -1.35 2.10 -1.45 5.90 -1.45 2.95 0 4.30 0.20 4.85 0.75 0.40 0.40 1 0.75 1.30 0.75 0.30 0 0.65 0.35 0.80 0.75 0.20 0.40 0.60 0.75 1 0.75 0.40 0 0.70 0.25 0.70 0.50 0 0.30 0.70 0.50 1.50 0.50 1.15 0 1.50 0.20 1.50 1 0 1.70 -3.15 0.90 -7.20 -1.85 -1.30 -0.90 -2.60 -1.65 -2.80 -1.65 -0.65 0 -0.95 1.95 -1.30 7.65 -0.30 4.55 -0.25 5.35 0.40 5.35 0.95 0 2.40 1.60 2.40 2.65 0 1 -1.80 1.15 -2.15 0.25 -0.15 -0.40 -0.30 -0.30 -0.30 0.25 -0.05 0.60 0.35 0.85 1.20 0.85 1.40 0 1.45 0.15 0.75 1.55 -0.30 0.50 -1 0.95 -1.50 0.95 -1.25 0 -1.30 1.35 -0.30 7.75 1.20 7.40 3.20 12.05 5.80 13.30 0.85 0.40 3.85 0.55 8.95 0.50 l7.70 -0.10 -0.30 2.10 c-0.60 4.50 -4.25 6.95 -10.35 6.90 -2.05 0 -4.55 -0.30 -5.55 -0.65z"/>
  <path d="M90 80.95 c0 -0.75 0.35 -0.95 1.75 -0.95 1.35 0 1.75 0.20 1.75 0.90 0 0.60 -0.45 0.85 -1.75 0.95 -1.45 0.05 -1.75 -0.10 -1.75 -0.90z"/>
  <path d="M120.25 71.25 c-1.35 -0.40 -5.20 -1.65 -8.50 -2.75 -6.55 -2.25 -12.85 -3.05 -16.35 -2.10 -1.80 0.50 -1.90 0.45 -1.90 -0.65 0 -1.10 0.25 -1.20 3.40 -1.55 4.70 -0.50 9.75 0.35 17.45 3 3.65 1.20 7.65 2.40 8.90 2.55 1.75 0.30 2.25 0.55 2.25 1.30 0 1.15 -1.55 1.20 -5.25 0.20z"/>
  <path d="M126.50 71.10 c0 -0.85 0.40 -1.10 2.75 -1.35 1.50 -0.20 2.75 -0.55 2.75 -0.80 0 -0.25 0.35 -0.45 0.75 -0.45 0.40 0 0.75 -0.20 0.75 -0.50 0 -0.25 0.60 -0.50 1.30 -0.50 3.65 0 -1.50 3.70 -6 4.30 -2.10 0.30 -2.30 0.25 -2.30 -0.70z"/>
  <path d="M46.20 68.30 c-2.10 -0.95 -3.80 -3.20 -3.60 -4.75 0.20 -1.90 1.85 -1.90 3.65 -0.05 1.95 2 3.90 2 6.05 -0.05 1.15 -1.10 1.90 -1.45 2.60 -1.25 2.25 0.75 1.55 3.15 -1.50 5.45 -1.65 1.25 -5.20 1.55 -7.20 0.65z"/>
  <path d="M105.40 63.65 c-0.50 -0.10 -0.90 -0.65 -0.90 -1.20 0 -0.60 -0.35 -0.95 -0.95 -0.95 -1.05 0 -1.55 -0.95 -1.55 -3.05 0 -2.10 1.10 -1.75 2.25 0.70 0.80 1.70 1.40 2.25 3.15 2.85 2.55 0.85 2.80 2.05 0.50 1.95 -0.90 -0.05 -2.05 -0.15 -2.50 -0.30z"/>
  <path d="M119 63.30 c0 -0.40 0.60 -0.85 1.40 -1.05 2.30 -0.55 3.55 -1.65 4.15 -3.75 0.70 -2.30 1.95 -2.70 1.95 -0.60 0 2.35 -0.55 3.60 -1.55 3.60 -0.60 0 -0.95 0.35 -0.95 0.95 0 1 -1.25 1.55 -3.60 1.55 -0.85 0 -1.40 -0.25 -1.40 -0.70z"/>
  <path d="M74.10 56.30 l0.15 -5.20 -1.55 -1 c-1 -0.65 -2.10 -2.15 -2.95 -3.95 -0.70 -1.60 -1.70 -3.75 -2.25 -4.75 l-0.90 -1.90 1.35 0 c1.25 0 1.50 0.35 2.80 3.75 0.80 2.05 1.65 3.75 1.85 3.75 0.20 0 0.40 0.40 0.40 0.95 0 0.70 0.50 1 1.95 1.25 1.55 0.25 1.90 0.50 1.70 1.20 -0.10 0.50 0.25 1.30 0.80 1.80 1.65 1.50 2.25 4.45 1.30 6.30 -0.70 1.40 -3 3 -4.25 3 -0.40 0 -0.50 -1.60 -0.40 -5.20z"/>
  <path d="M59 56.55 c-1.10 -2.15 -0.25 -5.55 1.45 -5.55 1.30 0 2.55 1.60 2.55 3.20 0 2.05 -0.85 3.30 -2.25 3.30 -0.70 0 -1.45 -0.40 -1.75 -0.95z"/>
  <path d="M124.50 44.90 c-0.60 -1.75 -1.15 -2.35 -2.85 -3.15 -2.10 -1 -2.70 -1.95 -1.50 -2.40 0.30 -0.15 0.15 -0.30 -0.45 -0.30 -0.60 -0.05 -4.40 -1.15 -8.50 -2.55 -4.10 -1.35 -7.95 -2.50 -8.55 -2.50 -0.85 0 -1.15 -0.30 -1.15 -1.05 0 -1 0.20 -1.05 2.30 -0.70 1.30 0.15 5.60 1.40 9.65 2.75 4 1.35 8.15 2.55 9.20 2.75 1.90 0.30 2.65 1.70 1 1.80 -0.55 0 -0.65 0.15 -0.25 0.30 0.30 0.10 0.60 0.65 0.60 1.20 0 0.60 0.35 0.95 0.95 0.95 1.10 0 1.55 0.95 1.55 3.30 0 2.40 -1.10 2.15 -2 -0.40z"/>
  <path d="M102 44.75 c0 -1.20 0.25 -1.75 0.75 -1.75 0.45 0 0.75 -0.45 0.75 -1.25 0 -0.90 0.25 -1.25 1 -1.25 0.55 0 1 -0.20 1 -0.50 0 -0.25 0.80 -0.50 1.75 -0.50 2.15 0 2.40 1.25 0.40 1.75 -1.90 0.45 -3.55 2.05 -3.90 3.80 -0.45 2.10 -1.75 1.90 -1.75 -0.30z"/>
  <path d="M50 41.55 c0 -0.75 0.60 -1.10 2.50 -1.60 1.40 -0.35 2.50 -0.95 2.50 -1.30 0 -0.35 0.25 -0.65 0.55 -0.65 0.30 0 0.85 -0.35 1.25 -0.75 0.45 -0.40 1.55 -0.75 2.50 -0.75 1.20 0 1.70 0.25 1.70 0.75 0 0.40 -0.30 0.75 -0.70 0.75 -0.40 0 -1.85 0.75 -3.20 1.70 -4.05 2.70 -7.10 3.50 -7.10 1.85z"/>
  <path d="M128 38.80 c0 -0.40 0.70 -0.85 1.65 -1.05 0.85 -0.20 2.65 -0.90 4 -1.55 l2.35 -1.15 0 1.20 c0 0.80 -0.30 1.25 -0.75 1.25 -0.40 0 -0.75 0.20 -0.75 0.45 0 0.65 -2.85 1.55 -4.80 1.55 -1.15 0 -1.70 -0.25 -1.70 -0.70z"/>
  <path d="M92.50 32.75 c0 -0.95 0.25 -1.75 0.50 -1.75 0.30 0 0.50 0.45 0.50 0.95 0 0.85 0.20 0.95 1.60 0.50 2.35 -0.65 2.90 -0.55 2.90 0.50 0 0.95 -1.70 1.55 -4.30 1.55 -1.05 0 -1.20 -0.25 -1.20 -1.75z"/>
 </g>
 <g fill="#ffd157">
  <path d="M31.80 108.75 c0.25 -0.60 -0.20 -0.75 -2.30 -0.75 l-2.65 0 0.35 -4.35 c0.40 -4.65 1.80 -11.10 3.15 -14.40 1.85 -4.55 2.85 -6.55 3.95 -8.35 1.10 -1.75 1.40 -1.90 3.40 -1.90 2.05 0 2.25 0.10 2.55 1.55 0.20 0.80 1.10 2.25 2.05 3.20 4.80 4.80 14.60 2.85 15.95 -3.20 0.30 -1.30 0.50 -1.45 3.25 -1.70 2.50 -0.20 4.15 0.05 9.80 1.70 3.75 1.05 8.15 2.20 9.75 2.50 l2.95 0.60 0.10 2.15 c0 1.20 0.05 2.45 0.10 2.80 0.10 1 -5.15 2.35 -9.20 2.35 -2.05 0 -5.40 -0.30 -7.40 -0.65 -3.05 -0.55 -3.60 -0.55 -3.40 0 0.20 0.50 -0.15 0.70 -0.95 0.70 l-1.20 0 0.95 1.65 c1.45 2.40 2.85 6.85 3.25 10.05 l0.35 2.80 -16.55 0 -16.55 0 0 2 c0 1.65 -0.15 2 -1 2 -0.65 0 -0.90 -0.25 -0.70 -0.75z"/>
 </g>
 <g fill="#84cfa8">
  <path d="M31 135.80 c0 -1.10 3.35 -5.25 4.35 -5.40 0.20 0 0.65 -0.10 0.90 -0.20 0.30 -0.05 2.55 -0.20 5.10 -0.30 5.25 -0.25 5.15 -0.35 5.15 4.50 l0 2.60 -7.75 0 -7.75 0 0 -1.20z"/>
  <path d="M52.15 136.25 c-0.30 -0.80 0 -6.15 0.40 -6.40 0.10 -0.10 2.85 -0.05 6.05 0.05 4.40 0.15 5.75 0.35 5.60 0.85 -0.15 0.30 0.30 0.95 1 1.40 1.30 0.90 2.95 3.70 2.50 4.40 -0.15 0.25 -3.65 0.45 -7.75 0.45 -6.25 0 -7.55 -0.10 -7.80 -0.75z"/>
  <path d="M111.60 57.75 c-2.45 -2.10 -4.50 -6.10 -4.70 -9.25 -0.15 -2.15 -0.10 -2.30 1.75 -3.20 2.35 -1.15 7.15 -1.30 10.50 -0.35 1.30 0.40 2.50 0.85 2.60 1.05 0.50 0.80 -0.85 6.35 -2 8.30 -1.30 2.25 -4.40 5.20 -5.45 5.20 -0.35 0 -1.55 -0.80 -2.70 -1.75z m5.40 -2.55 c0 -0.75 -0.30 -1.20 -0.75 -1.20 -0.40 0 -0.75 0.45 -0.75 1 0 0.70 -0.35 1 -1.05 1 -0.55 0 -0.90 0.20 -0.75 0.40 0.15 0.25 0.95 0.35 1.80 0.20 1.20 -0.15 1.50 -0.45 1.50 -1.40z m-0.75 -3.70 c2.25 -3.05 2.10 -3.65 -0.25 -1.25 -0.95 0.95 -1.90 1.75 -2.10 1.75 -0.20 0 -0.90 -0.50 -1.50 -1.10 -1.55 -1.55 -1.80 -0.30 -0.30 1.55 0.65 0.85 1.40 1.50 1.75 1.50 0.30 0.05 1.40 -1.10 2.40 -2.45z m2.75 -0.80 c0 -0.10 -0.35 -0.20 -0.75 -0.20 -0.55 0 -0.75 0.55 -0.75 1.90 l0.05 1.85 0.70 -1.70 c0.40 -0.90 0.75 -1.75 0.75 -1.85z m-7.20 -2.20 c1.10 0 1.70 0.25 1.70 0.70 0 0.35 0.45 0.80 1 0.95 0.85 0.20 1 0 1 -1.35 0 -0.90 0.25 -1.85 0.60 -2.20 0.80 -0.80 -2.30 -0.80 -5.35 0 -2.45 0.65 -2.55 0.90 -1.60 3.45 l0.60 1.70 0.15 -1.60 c0.15 -1.50 0.30 -1.65 1.90 -1.65z"/>
 </g>
 <g fill="#ffa752">
  <path d="M24 107.50 c0 -2.15 1.15 -10.90 1.85 -13.75 1.05 -4.65 3.80 -10.25 6.35 -13.05 1.90 -2.05 2.20 -2.20 3.90 -1.90 l1.80 0.30 -1.65 2.60 c-1.50 2.40 -2.40 4.20 -4.40 9.05 -1.40 3.40 -2.80 9.85 -2.95 13.65 l-0.15 3.60 -2.35 0 c-1.35 0 -2.40 -0.25 -2.40 -0.50z"/>
  <path d="M62.10 90.35 c-0.30 -0.30 -0.70 -1.25 -0.90 -2.05 -0.30 -1.35 -0.25 -1.45 0.85 -1.10 5.35 1.55 8.75 2 15.15 2 l6.90 0.05 -2.65 0.85 c-3.45 1.05 -18.50 1.30 -19.35 0.25z"/>
 </g>
 <g fill="#4eb77a">
  <path d="M113.10 58.90 c-0.35 -0.35 -0.60 -1.75 -0.60 -3.10 0 -1.65 0.15 -2.30 0.45 -1.85 0.60 0.95 1.25 0.45 3.60 -2.80 2.50 -3.35 2.20 -4.10 -0.50 -1.10 -1.65 1.90 -2 2.10 -2.75 1.50 -0.60 -0.50 -0.80 -1.55 -0.80 -3.90 l0 -3.25 3.15 0.20 c1.70 0.15 3.75 0.50 4.55 0.85 1.40 0.55 1.45 0.65 1.15 3.30 -0.35 3.40 -2.45 7.35 -4.90 9.30 -2.05 1.60 -2.50 1.70 -3.35 0.85z"/>
 </g>
 <g fill="#50aa84">
  <path d="M31 136.25 c0 -0.75 1.75 -3.60 2.60 -4.15 0.60 -0.45 0.85 -1 0.65 -1.65 -0.30 -0.90 0 -0.95 5.70 -0.95 5.70 0 6.05 0.05 6.05 1 0 0.90 -0.35 1 -4.20 1 -3.70 0 -4.30 0.15 -5.45 1.20 -0.70 0.65 -1.45 1.80 -1.65 2.50 -0.25 1.10 -0.60 1.30 -2 1.30 -0.95 0 -1.70 -0.10 -1.70 -0.25z"/>
  <path d="M52.85 131.15 c-0.20 -0.15 -0.35 -0.60 -0.35 -1 0 -0.50 1.35 -0.65 6.05 -0.65 5.30 0 6 0.10 5.75 0.80 -0.15 0.45 -0.30 0.90 -0.30 1 0 0.35 -10.80 0.20 -11.15 -0.15z"/>
  <path d="M166.65 124.75 c0 -1.10 0.10 -1.50 0.20 -0.85 0.10 0.60 0.10 1.50 0 2 -0.15 0.45 -0.25 -0.05 -0.20 -1.15z"/>
  <path d="M163.50 124.75 c0 -0.50 0.35 -0.75 0.90 -0.65 1.05 0.20 0.95 1.10 -0.10 1.30 -0.50 0.10 -0.80 -0.15 -0.80 -0.65z"/>
  <path d="M111.55 57.45 c-2.65 -2.55 -4.55 -6.45 -4.55 -9.35 0 -1.85 0.15 -2.20 1.40 -2.65 0.75 -0.30 2.20 -0.65 3.25 -0.80 1.70 -0.25 1.85 -0.20 1.85 1 0 1.15 -0.20 1.30 -2.10 1.45 -1.70 0.10 -2.15 0.35 -2.25 1.15 -0.10 0.55 0 0.70 0.15 0.40 0.15 -0.40 1.20 -0.65 2.50 -0.65 2.15 0 2.20 0.05 2.20 1.55 0 1.30 0.15 1.50 0.90 1.25 0.80 -0.35 0.80 -0.30 0 0.50 -0.85 0.85 -0.95 0.85 -2.05 -0.20 -2.10 -2 -2.55 -1.05 -0.70 1.55 0.60 0.90 1.25 1.70 1.40 1.85 0.15 0.15 0.30 1.15 0.40 2.25 0.05 1.10 0.35 2.15 0.70 2.35 0.45 0.25 0.40 0.40 -0.15 0.40 -0.45 0 -1.75 -0.95 -2.95 -2.05z"/>
  <path d="M21.50 50.45 c0 -0.60 0.35 -0.95 1 -0.95 0.55 0 1 0.30 1 0.70 0 0.35 -0.45 0.80 -1 0.95 -0.75 0.20 -1 0 -1 -0.70z"/>
 </g>
 <g fill="#4faf7f">
  <path d="M31 136.30 c0 -0.10 0.80 -0.30 1.75 -0.40 0.95 -0.10 1.75 0 1.75 0.20 0 0.20 -0.80 0.40 -1.75 0.40 -0.95 0 -1.75 -0.10 -1.75 -0.20z"/>
  <path d="M35.25 130.50 c0.15 -0.25 1.10 -0.50 2.05 -0.50 0.95 0 1.70 0.25 1.70 0.50 0 0.30 -0.90 0.50 -2.05 0.50 -1.20 0 -1.90 -0.20 -1.70 -0.50z"/>
  <path d="M112.35 57.85 c-0.80 -0.90 -1.25 -1.30 -1.05 -0.90 0.25 0.45 0.15 0.60 -0.20 0.35 -0.35 -0.20 -0.60 -0.70 -0.60 -1.10 0 -0.40 -0.20 -0.70 -0.40 -0.70 -0.45 0 -2.20 -3.30 -2.45 -4.50 -0.70 -4.10 -0.65 -4.95 0.50 -5.30 0.60 -0.20 1.80 -0.35 2.60 -0.25 1.15 0.05 1.35 0 0.75 -0.40 -0.60 -0.40 -0.40 -0.55 0.90 -0.55 l1.60 0 0 3.25 c0 1.80 0.15 3.25 0.35 3.25 0.15 0 0.95 -0.75 1.75 -1.60 0.80 -0.90 1.25 -1.20 0.95 -0.65 -0.25 0.55 -1 1.50 -1.70 2.15 l-1.20 1.15 -0.85 -1.30 c-0.95 -1.45 -2.05 -1.65 -2.55 -0.40 -0.20 0.60 0.05 1.20 0.70 1.70 0.55 0.45 0.90 0.95 0.75 1.10 -0.15 0.15 0.15 0.60 0.75 0.95 0.80 0.50 1.05 1.15 1.05 2.75 0 1.20 0.25 2.15 0.65 2.30 0.40 0.20 0.35 0.25 -0.15 0.25 -0.40 0 -1.40 -0.70 -2.15 -1.55z"/>
  <path d="M115.70 52.35 c0.80 -1 1.50 -1.85 1.65 -1.85 0.35 0 -1.80 2.90 -2.45 3.30 -0.35 0.20 0.05 -0.45 0.80 -1.45z"/>
 </g>
 <g fill="#f43b48">
  <path d="M31.50 112.90 c0 -3.85 0.40 -5.40 1.30 -5.40 0.55 0 0.70 0.95 0.70 4.25 0 3.90 -0.10 4.25 -1 4.25 -0.90 0 -1 -0.35 -1 -3.10z"/>
  <path d="M90.50 91.80 c0 -0.35 0.50 -0.80 1.15 -1 1.70 -0.45 1.85 -0.40 1.85 0.70 0 0.80 -0.35 1 -1.50 1 -0.95 0 -1.50 -0.25 -1.50 -0.70z"/>
  <path d="M121.25 71.25 c-1.65 -0.40 -5.60 -1.60 -8.75 -2.70 -7.10 -2.40 -11.35 -3.25 -14.70 -2.80 -3.25 0.45 -4.30 1 -4.30 2.35 0 1.15 -1.30 2.35 -2.60 2.40 -0.85 0 -0.90 -1.25 -0.90 -18.95 0 -20.05 -0.05 -19.60 2.40 -20.20 0.85 -0.20 1.10 -0.05 1.10 0.70 0 0.80 0.20 0.90 1.40 0.60 0.75 -0.25 3.25 -0.40 5.60 -0.35 3.75 0.05 5.15 0.35 12 2.65 6.60 2.25 8.50 2.70 12.55 2.90 4.45 0.25 5.05 0.20 7.70 -1.05 1.60 -0.70 2.95 -1.30 3.05 -1.30 0.10 0 0.20 7.50 0.20 16.65 l0 16.65 -1.85 1.05 c-2.05 1.10 -6.35 2.20 -8.55 2.10 -0.75 -0.05 -2.70 -0.35 -4.35 -0.70z m2.10 -10.40 c1.40 -1.35 1.40 -1.45 1.55 -8.85 l0.15 -7.55 -1.70 -1.70 -1.75 -1.75 -7.05 0 c-10.70 0 -11.05 0.35 -11.05 10.90 0 6.35 0.10 7.10 1.05 8.30 0.60 0.75 1.55 1.60 2.15 1.85 0.55 0.20 4.25 0.35 8.15 0.30 7.05 -0.10 7.15 -0.10 8.50 -1.50z"/>
  <path d="M47.75 68.50 c-3.30 -0.75 -6 -3.70 -4.95 -5.40 0.85 -1.35 1.60 -1.25 3.20 0.45 2.10 2.35 4.55 2.30 6.55 -0.05 1.15 -1.45 1.55 -1.65 2.30 -1.20 1.25 0.75 1.35 1.90 0.35 3.45 -1.45 2.20 -4.70 3.40 -7.45 2.75z"/>
  <path d="M35.50 54.20 c0 -1.05 0.90 -2.70 1.50 -2.70 0.30 0 0.50 0.80 0.50 1.75 0 1.40 -0.20 1.75 -1 1.75 -0.55 0 -1 -0.35 -1 -0.80z"/>
  <path d="M24.50 49.25 c0 -0.90 0.25 -1.25 1 -1.25 0.75 0 1 -0.35 1 -1.25 0 -1 0.25 -1.25 1.20 -1.25 1.55 0 1.30 1.25 -0.70 3.45 -1.75 1.90 -2.50 1.95 -2.50 0.30z"/>
  <path d="M31.50 38.50 c0 -1.40 0.15 -1.50 1.75 -1.50 2.20 0 2.20 0.45 0 1.90 l-1.75 1.10 0 -1.50z"/>
 </g>
 <g fill="#544f56">
  <path d="M186.50 140.75 c0 -0.55 0.85 -0.75 3.65 -0.85 3.50 -0.15 3.60 -0.20 3.75 -1.50 l0.15 -1.40 -4.15 0 c-2.60 0 -4.45 -0.25 -4.80 -0.60 -0.75 -0.75 -0.80 -2.40 -0.10 -2.40 0.30 0 0.50 0.35 0.50 0.75 0 0.60 0.80 0.75 4.25 0.75 3.45 0 4.25 -0.15 4.25 -0.75 0 -0.40 0.25 -0.75 0.50 -0.75 0.30 0 0.50 1.40 0.50 3.25 0 3.05 -0.10 3.30 -1.30 3.75 -0.70 0.30 -2.60 0.50 -4.25 0.50 -2.25 0 -2.95 -0.15 -2.95 -0.75z"/>
  <path d="M107.50 130.50 l0 -6.50 6.25 0 c7.05 0 7.25 0.10 7.25 4 0 3.05 -0.70 4 -2.85 4 l-1.85 0 2.10 2.15 c2.25 2.30 2.50 2.85 1.40 2.85 -0.40 0 -1.65 -1.10 -2.80 -2.50 -2.10 -2.50 -2.10 -2.50 -5.05 -2.50 l-2.95 0 0 2.50 c0 1.90 -0.20 2.50 -0.75 2.50 -0.65 0 -0.75 -1.05 -0.75 -6.50z m12 -2.50 l0 -2.50 -5.25 0 -5.25 0 0 2.50 0 2.50 5.25 0 5.25 0 0 -2.50z"/>
  <path d="M123.30 135.90 c-0.90 -1.30 -1.10 -6.10 -0.30 -8.10 0.35 -0.95 0.85 -1.30 1.75 -1.30 1.50 0 1.65 0.75 0.25 1.15 -0.75 0.20 -1 0.70 -1 1.80 l0 1.55 4.30 0 4.25 0 -0.15 -1.35 c-0.10 -0.85 -0.60 -1.60 -1.25 -1.90 -1.50 -0.65 -1.45 -1.25 0 -1.25 1.75 0 2.35 0.95 2.35 3.60 l0 2.40 -4.75 0 -4.75 0 0 1.50 0 1.50 5.05 0 c3.80 0 5 0.15 4.85 0.65 -0.15 0.40 -1.75 0.65 -5 0.75 -4.50 0.15 -4.85 0.05 -5.60 -1z"/>
  <path d="M136 136.50 c-0.50 -0.30 -0.80 -1.60 -0.90 -4.25 -0.25 -4.10 0.50 -5.75 2.50 -5.75 1.20 0 1.15 0.80 -0.10 1.15 -0.90 0.25 -1 0.70 -1 4.05 l0 3.80 4 0 4 0 0 -4 c0 -3.20 -0.15 -4 -0.75 -4 -0.40 0 -0.75 -0.20 -0.75 -0.50 0 -0.25 0.35 -0.50 0.75 -0.50 0.50 0 0.75 -0.55 0.75 -1.75 0 -1.20 0.25 -1.75 0.75 -1.75 0.65 0 0.75 1.10 0.75 7 l0 7 -4.60 0 c-2.55 0 -5 -0.25 -5.40 -0.50z"/>
  <path d="M153 130.50 l0 -6.50 6 0 c5.10 0 6 0.10 6 0.80 0 0.65 -0.75 0.75 -5.25 0.60 l-5.25 -0.15 0 2.10 0 2.10 4.10 0.15 c2.70 0.10 4.15 0.35 4.30 0.80 0.15 0.45 -0.90 0.60 -4.10 0.60 l-4.30 0 0 3 c0 2.35 -0.15 3 -0.75 3 -0.65 0 -0.75 -1.05 -0.75 -6.50z"/>
  <path d="M167.10 136.40 c-0.70 -0.70 -0.80 -2.40 -0.10 -2.40 0.30 0 0.50 0.30 0.50 0.70 0 0.40 0.55 0.80 1.25 0.90 0.70 0.10 1.30 0.40 1.30 0.65 0 0.75 -2.20 0.90 -2.95 0.15z"/>
  <path d="M172.90 136.45 c-0.65 -0.35 -0.90 -1.15 -0.90 -2.95 l0 -2.50 4.75 0 4.75 0 0 -1.55 c0 -1.10 -0.25 -1.60 -1 -1.80 -1.25 -0.35 -1.30 -1.15 -0.10 -1.15 1.95 0 2.60 1.55 2.60 6.15 l0 4.35 -4.60 0 c-2.55 0 -5.05 -0.25 -5.50 -0.55z m8.60 -2.45 l0 -1.50 -4.30 0 c-3.70 0 -4.25 0.10 -4 0.80 0.15 0.45 0.30 1.10 0.30 1.50 0 0.55 0.90 0.70 4 0.70 l4 0 0 -1.50z"/>
  <path d="M202.50 130.50 l0 -6.50 6.25 0 c7.60 0 7.40 -0.15 7.15 7.05 -0.10 3.75 -0.35 5.10 -0.90 5.45 -0.40 0.25 -3.40 0.50 -6.60 0.50 l-5.90 0 0 -6.50z m12 0 l0 -5 -5.25 0 -5.25 0 0 5 0 5 5.25 0 5.25 0 0 -5z"/>
  <path d="M218.60 136.40 c-0.80 -0.80 -0.80 -8.50 0 -9.30 0.70 -0.70 2.90 -0.80 2.90 -0.15 0 0.25 -0.45 0.55 -1 0.70 -0.90 0.25 -1 0.70 -1 4.05 l0 3.80 4 0 4 0 0 -3.80 c0 -3.35 -0.10 -3.80 -1 -4.05 -1.25 -0.35 -1.30 -1.15 -0.10 -1.15 1.85 0 2.30 0.85 2.50 4.45 0.15 2.70 0 3.85 -0.60 4.80 -0.75 1.15 -1.10 1.25 -4.95 1.25 -2.55 0 -4.40 -0.25 -4.75 -0.60z"/>
  <path d="M230.50 131.75 l0 -5.25 1.50 0 c0.85 0 1.50 0.25 1.50 0.50 0 0.30 -0.35 0.50 -0.75 0.50 -0.60 0 -0.75 0.85 -0.75 4.75 0 3.90 -0.15 4.75 -0.75 4.75 -0.60 0 -0.75 -0.90 -0.75 -5.25z"/>
  <path d="M238 132.25 c0 -3.90 -0.15 -4.75 -0.75 -4.75 -0.40 0 -0.75 -0.20 -0.75 -0.50 0 -0.25 0.80 -0.50 1.80 -0.50 1.45 0 1.75 0.15 1.50 0.80 -0.15 0.45 -0.30 2.80 -0.30 5.25 0 3.60 -0.15 4.45 -0.75 4.45 -0.60 0 -0.75 -0.85 -0.75 -4.75z"/>
  <path d="M245.85 136.65 c-0.20 -0.15 -0.35 -2.20 -0.35 -4.55 0 -3.75 -0.10 -4.20 -1 -4.45 -1.40 -0.35 -1.25 -1.15 0.25 -1.15 1.75 0 2.25 1.35 2.25 6.20 0 3.95 -0.25 4.85 -1.15 3.95z"/>
  <path d="M249.60 136.40 c-0.35 -0.35 -0.60 -1.70 -0.60 -3 l0 -2.40 4.75 0 c4.35 0 4.75 -0.10 4.75 -0.95 0 -1.50 -0.55 -2.55 -1.30 -2.55 -0.40 0 -0.70 -0.20 -0.70 -0.50 0 -0.80 1.80 -0.60 2.50 0.25 0.40 0.50 0.70 2.55 0.75 5.25 l0.15 4.50 -4.85 0 c-3.10 0 -5.05 -0.20 -5.45 -0.60z m8.90 -2.40 l0 -1.50 -4.25 0 c-4.10 0 -4.25 0.05 -4.25 1.15 0 0.65 0.15 1.35 0.35 1.50 0.15 0.20 2.10 0.35 4.25 0.35 l3.90 0 0 -1.50z"/>
  <path d="M261.90 136.70 c-0.40 -0.40 0.15 -2.20 0.65 -2.20 0.25 0 0.45 0.55 0.45 1.25 0 1.20 -0.50 1.60 -1.10 0.95z"/>
  <path d="M265 131.75 l0 -5.25 1.75 0 c1.90 0 2.35 0.70 0.75 1.15 -0.90 0.25 -1 0.70 -1 4.80 0 3.70 -0.15 4.55 -0.75 4.55 -0.60 0 -0.75 -0.90 -0.75 -5.25z"/>
  <path d="M274.90 136.75 c-0.40 -0.45 0.15 -2.25 0.65 -2.25 0.25 0 0.45 0.35 0.45 0.75 0 0.40 0 0.90 0.05 1.10 0.05 0.50 -0.80 0.75 -1.15 0.40z"/>
  <path d="M278.80 136.05 c-0.65 -0.75 -0.70 -1.05 -0.25 -1.35 0.35 -0.20 0.75 -0.10 0.85 0.20 0.10 0.40 1.55 0.60 4.15 0.60 l3.95 0 0 -1.50 0 -1.50 -3.90 0 c-3.20 0 -4.10 -0.20 -4.75 -0.90 -1.65 -1.80 -0.70 -5.10 1.40 -5.10 1.50 0 1.65 0.80 0.25 1.15 -0.75 0.20 -1 0.70 -1 1.80 l0 1.55 3.80 0 c4.55 0 5.70 0.50 5.70 2.55 0 3.05 -0.60 3.45 -5.20 3.45 -3.45 0 -4.30 -0.15 -5 -0.95z"/>
  <path d="M90 114.05 c0 -12.40 0.15 -22.60 0.40 -22.70 0.20 -0.10 0.95 -0.35 1.75 -0.55 1.15 -0.25 1.35 -0.15 1.35 0.70 0 0.55 -0.35 1 -0.75 1 -0.65 0 -0.75 2.80 -0.75 22 0 21.65 0 22 -1 22 -1 0 -1 -0.35 -1 -22.45z"/>
  <path d="M34.30 130.60 c-0.50 -0.80 -1.75 -6.55 -2.10 -9.45 -0.30 -2.95 -0.25 -3.15 0.65 -3.15 0.90 0 1.05 0.45 1.40 3.40 0.60 6 1.05 5.35 0.85 -1.35 -0.15 -3.60 -0.05 -8.70 0.15 -11.30 l0.35 -4.75 15.40 0 15.45 0 0.15 4.65 c0.25 6.30 -0.40 14.40 -1.45 18.60 l-0.90 3.50 -5.85 0.15 c-5.85 0.15 -5.90 0.10 -5.90 -1 0 -1.90 0.60 -3.40 1.25 -3.40 0.75 0 1.40 -3 0.95 -4.20 -0.15 -0.45 -0.60 -0.80 -1 -0.80 -0.35 0 -0.80 -0.80 -0.95 -1.85 -0.45 -2.65 -1.65 -5.95 -2.75 -7.25 l-0.90 -1.10 -1.05 1.70 c-1.85 3 -2.30 5.45 -2.25 11.90 l0 6.10 -5.60 0 c-3.10 0 -5.75 -0.15 -5.90 -0.40z"/>
  <path d="M184.50 128.85 c0 -0.65 0.25 -1.40 0.60 -1.75 0.75 -0.75 2.40 -0.80 2.40 -0.10 0 0.30 -0.35 0.50 -0.75 0.50 -0.40 0 -0.85 0.55 -1.05 1.25 -0.40 1.55 -1.20 1.65 -1.20 0.10z"/>
  <path d="M194 128.70 c0 -0.45 -0.45 -0.90 -1 -1.05 -1.15 -0.30 -1.35 -1.15 -0.30 -1.15 1.50 0 2.30 0.65 2.30 1.80 0 0.65 -0.20 1.20 -0.50 1.20 -0.25 0 -0.50 -0.35 -0.50 -0.80z"/>
  <path d="M275 128.70 c0 -0.45 -0.45 -0.90 -1 -1.05 -0.55 -0.15 -1 -0.45 -1 -0.70 0 -0.65 1.70 -0.55 2.40 0.15 0.75 0.75 0.80 2.40 0.10 2.40 -0.25 0 -0.50 -0.35 -0.50 -0.80z"/>
  <path d="M287.50 128.25 c-0.35 -0.40 -0.95 -0.75 -1.30 -0.75 -0.40 0 -0.70 -0.20 -0.70 -0.50 0 -0.25 0.55 -0.50 1.20 -0.50 1.45 0 2.70 1.30 1.95 2.05 -0.35 0.35 -0.70 0.25 -1.15 -0.30z"/>
  <path d="M248.50 127 c0 -0.25 0.45 -0.50 1 -0.50 0.55 0 1 0.25 1 0.50 0 0.30 -0.45 0.50 -1 0.50 -0.55 0 -1 -0.20 -1 -0.50z"/>
  <path d="M166.50 124.20 c0 -0.70 0.25 -1.20 0.55 -1.10 0.30 0.10 0.50 0.35 0.50 0.55 -0.05 0.20 -0.05 0.70 -0.05 1.10 0 0.40 -0.20 0.75 -0.50 0.75 -0.25 0 -0.50 -0.60 -0.50 -1.30z"/>
  <path d="M261.75 124.05 c-0.35 -0.60 0.60 -1.20 1.25 -0.80 0.55 0.35 0.20 1.25 -0.50 1.25 -0.25 0 -0.55 -0.20 -0.75 -0.45z"/>
  <path d="M31.90 116.40 c-0.20 -1 -0.20 -4.50 0.05 -7.50 0 -0.50 0.40 -0.90 0.80 -0.90 0.60 0 0.75 0.85 0.75 4.75 0 3.70 -0.15 4.75 -0.70 4.75 -0.40 0 -0.80 -0.50 -0.90 -1.10z"/>
  <path d="M32 105 c0 -0.65 0.35 -1 1 -1 0.65 0 1 0.35 1 1 0 0.65 -0.35 1 -1 1 -0.65 0 -1 -0.35 -1 -1z"/>
  <path d="M90.10 75.45 l0.15 -6.65 1.65 -0.95 1.60 -0.95 0 1.30 c0 0.85 -0.25 1.30 -0.80 1.30 -0.70 0 -0.80 0.75 -0.65 6 0.10 3.30 0.05 6 -0.15 6 -0.15 0 -0.70 0.15 -1.10 0.30 -0.75 0.30 -0.80 -0.40 -0.70 -6.35z"/>
  <path d="M36.20 56.25 c-1 -1.50 -0.50 -4.05 0.95 -4.95 1.95 -1.20 3.75 3.25 2.15 5.35 -0.95 1.20 -2.15 1.05 -3.10 -0.40z"/>
  <path d="M59 55.95 c-0.75 -1.80 -0.25 -3.80 1.15 -4.65 0.75 -0.45 1.10 -0.35 1.90 0.65 1.15 1.40 1.20 2.95 0.15 4.45 -1.10 1.60 -2.45 1.40 -3.20 -0.45z"/>
  <path d="M21.10 46.55 c-0.80 -6 -0.80 -6.55 0.35 -6.55 0.80 0 0.95 0.55 1.25 4.45 0.35 4.05 0.45 4.40 1.35 4.20 0.50 -0.15 0.95 -0.45 0.95 -0.70 0 -0.25 0.70 -0.45 1.50 -0.45 1.35 0 1.45 0.10 0.90 0.95 -0.80 1.25 -3.05 2.55 -4.50 2.55 -1.15 0 -1.25 -0.25 -1.80 -4.45z"/>
  <path d="M72.90 50.25 c-0.85 -0.50 -1.90 -1.95 -2.90 -4.10 -0.85 -1.90 -1.85 -3.95 -2.20 -4.65 -0.95 -2 -3.65 -3.50 -6.25 -3.50 -1.80 0 -2.85 0.35 -4.80 1.70 -5.10 3.55 -9.70 3.60 -14.60 0.25 -2.45 -1.65 -3.30 -1.95 -5.50 -1.95 -2.30 0 -2.65 -0.15 -2.65 -1 0 -0.55 0.35 -1 0.75 -1 0.60 0 0.65 -0.20 0.30 -0.90 -0.75 -1.40 -1.15 -9.05 -0.65 -11.70 l0.45 -2.30 -1.80 0.25 c-2.45 0.40 -5.50 1.85 -7.35 3.55 -2.15 1.95 -3.30 5.15 -3.60 10.25 -0.15 3.05 -0.45 4.35 -0.90 4.35 -0.90 0 -1.35 -2.60 -0.95 -6.15 0.95 -8.95 4.25 -12.55 13.05 -14.05 5.40 -0.95 15.65 -1 19.85 -0.10 3.80 0.85 8.95 3.40 10.35 5.15 l0.90 1.15 2.85 -1.30 c3.70 -1.70 6.15 -1.45 8.55 0.85 3.15 3.05 4 9.25 2.45 18.25 -1.40 8 -2 8.75 -5.35 6.95z"/>
  <path d="M27.50 45.20 c0 -2.10 1.10 -5.20 1.85 -5.20 0.35 0 0.65 -0.45 0.65 -1 0 -0.80 0.35 -1 1.85 -1 l1.85 0 -1.55 1.65 c-0.90 0.85 -2 2.70 -2.50 4.05 -1.05 2.80 -2.15 3.60 -2.15 1.50z"/>
  <path d="M90 32.80 c0 -2.45 0.90 -3.55 2.50 -3.05 1.70 0.55 1.30 2.80 -0.75 4.15 l-1.75 1.10 0 -2.20z"/>
 </g>
 <g fill="#403b3f">
  <path d="M194 136.95 c0 -0.30 -0.45 -0.40 -1 -0.20 -0.55 0.15 -1 0.10 -1 -0.15 0 -0.25 0.45 -0.60 1 -0.75 0.55 -0.15 1 -0.60 1 -1.05 0 -0.45 0.25 -0.80 0.50 -0.80 0.30 0 0.50 0.80 0.50 1.75 0 0.95 -0.20 1.75 -0.50 1.75 -0.25 0 -0.50 -0.25 -0.50 -0.55z"/>
  <path d="M107.95 136.80 c-0.40 -0.40 0.10 -8.80 0.55 -8.80 0.20 0 0.40 2.05 0.45 4.50 0 3.95 -0.25 5.05 -1 4.30z"/>
  <path d="M136.40 136.35 c-1.05 -0.80 -1.35 -1.90 -0.85 -3.10 0.35 -0.95 0.40 -0.95 0.40 0.15 0.05 0.60 0.50 1.55 1.05 2.10 1.05 1.05 0.60 1.80 -0.60 0.85z"/>
  <path d="M142.50 136.50 c0 -0.25 0.45 -0.50 1.05 -0.50 0.60 0 1.15 -0.40 1.30 -1 0.40 -1.50 1 -1.20 1.05 0.50 0.05 1.40 -0.10 1.50 -1.70 1.50 -0.95 0 -1.70 -0.20 -1.70 -0.50z"/>
  <path d="M153.10 130.55 l0.05 -6.55 1.45 0 c1.60 0 1.90 0.75 0.40 1.15 -0.80 0.20 -1 0.70 -1 2.35 0 1.65 0.20 2.15 1 2.35 1.25 0.35 1.35 1.25 0.15 1.05 -0.75 -0.15 -0.90 0.30 -0.95 2.85 -0.05 1.65 -0.30 3.05 -0.60 3.15 -0.40 0.10 -0.55 -1.75 -0.50 -6.35z"/>
  <path d="M167.40 136.45 c-0.50 -0.25 -0.90 -0.95 -0.90 -1.45 0 -1.30 0.80 -1.30 1.15 0 0.15 0.60 0.70 1 1.30 1 0.60 0 1.05 0.25 1.05 0.50 0 0.65 -1.50 0.60 -2.60 -0.05z"/>
  <path d="M174 136.55 c0 -0.35 1.40 -0.55 3.65 -0.55 2.05 0 3.80 -0.10 3.90 -0.25 0.15 -0.10 0.15 -1 0.05 -2 -0.20 -1.45 -0.40 -1.75 -1.40 -1.75 -0.65 0 -1.20 -0.25 -1.20 -0.55 0 -0.35 0.50 -0.45 1.25 -0.35 1.15 0.25 1.25 0.10 1.25 -1.40 0 -0.95 0.25 -1.70 0.50 -1.70 0.30 0 0.50 1.65 0.50 4 0 2.20 0 4.15 0 4.40 0 0.20 -1.90 0.40 -4.25 0.50 -2.75 0.10 -4.25 0 -4.25 -0.35z"/>
  <path d="M185.30 136.20 c-0.75 -0.75 -1.05 -1.70 -0.55 -1.70 0.15 0 0.70 0.45 1.25 1 0.55 0.55 1 1.10 1 1.25 0 0.50 -0.95 0.20 -1.70 -0.55z"/>
  <path d="M202.85 136.65 c-0.20 -0.15 -0.35 -3 -0.35 -6.25 0 -4.90 0.15 -6 0.75 -6.25 0.45 -0.15 0.95 -0.10 1.15 0.10 0.20 0.20 0.05 0.50 -0.25 0.60 -0.45 0.15 -0.65 1.75 -0.65 5.45 0 5.10 0 5.20 1.25 5.50 0.70 0.15 1.25 0.50 1.25 0.75 0 0.50 -2.65 0.60 -3.15 0.10z"/>
  <path d="M206.50 136.50 c0 -0.30 1.60 -0.50 3.75 -0.50 3.65 0 3.80 -0.05 4.30 -1.35 0.30 -0.80 0.45 -3.15 0.35 -5.25 -0.10 -2.45 0.05 -3.85 0.35 -3.75 0.30 0.10 0.50 2.25 0.55 4.85 0.05 6.05 -0.30 6.50 -5.55 6.50 -2.15 0 -3.75 -0.20 -3.75 -0.50z"/>
  <path d="M220.50 136.50 c0 -0.25 0.80 -0.50 1.75 -0.50 0.95 0 1.75 0.25 1.75 0.50 0 0.30 -0.80 0.50 -1.75 0.50 -0.95 0 -1.75 -0.20 -1.75 -0.50z"/>
  <path d="M230.95 136.80 c-0.40 -0.40 0.15 -5.80 0.60 -5.80 0.25 0 0.45 1.35 0.45 3 0 2.65 -0.35 3.50 -1.05 2.80z"/>
  <path d="M238 134 c0 -1.65 0.20 -3 0.50 -3 0.30 0 0.50 1.35 0.50 3 0 1.65 -0.20 3 -0.50 3 -0.30 0 -0.50 -1.35 -0.50 -3z"/>
  <path d="M246 135.80 c0 -1.55 0.30 -1.70 0.65 -0.30 0.15 0.55 0.05 1.15 -0.20 1.30 -0.25 0.15 -0.45 -0.30 -0.45 -1z"/>
  <path d="M249.90 136.45 c-0.50 -0.25 -0.90 -0.95 -0.90 -1.45 0 -1.30 0.80 -1.30 1.15 0 0.15 0.60 0.70 1 1.30 1 0.60 0 1.05 0.25 1.05 0.50 0 0.65 -1.50 0.60 -2.60 -0.05z"/>
  <path d="M256.50 136.50 c0 -0.25 0.45 -0.50 1 -0.50 0.55 0 1 -0.20 1 -0.50 0 -0.25 0.25 -0.50 0.50 -0.50 0.30 0 0.50 0.45 0.50 1 0 0.80 -0.35 1 -1.50 1 -0.80 0 -1.50 -0.20 -1.50 -0.50z"/>
  <path d="M285.50 136.50 c0 -0.25 0.45 -0.50 1 -0.50 0.80 0 1 -0.35 1 -1.80 0 -1.35 -0.25 -1.85 -1 -2.05 -0.55 -0.15 -1 -0.45 -1 -0.70 0 -0.60 0.85 -0.55 2.05 0.05 1.10 0.60 1.35 3.90 0.35 4.90 -0.75 0.75 -2.40 0.80 -2.40 0.10z"/>
  <path d="M90.50 113.80 l0 -22.70 1.50 -0.20 1.50 -0.25 0 22.95 0 22.90 -1.50 0 -1.50 0 0 -22.70z"/>
  <path d="M218.60 135.90 c-0.75 -0.75 -0.80 -2.40 -0.10 -2.40 0.30 0 0.50 0.40 0.50 0.90 0 0.50 0.25 1.15 0.60 1.50 0.35 0.35 0.40 0.60 0.10 0.60 -0.30 0 -0.75 -0.25 -1.10 -0.60z"/>
  <path d="M278.65 135.75 c-0.45 -1.25 0.10 -1.35 1.10 -0.25 0.85 0.90 0.85 1 0.05 1 -0.45 0 -0.95 -0.35 -1.15 -0.75z"/>
  <path d="M227.50 134.30 c0.50 -2.25 0.20 -6.50 -0.50 -6.70 -0.25 -0.10 -0.50 -0.40 -0.50 -0.65 0 -0.30 0.40 -0.25 1 0.05 0.95 0.50 1.05 0.95 0.90 4.60 -0.10 2.50 -0.35 4.15 -0.75 4.25 -0.40 0.15 -0.45 -0.30 -0.15 -1.55z"/>
  <path d="M116.50 133.75 c-0.70 -0.95 -1.55 -1.75 -1.85 -1.75 -0.35 0 -0.65 -0.20 -0.65 -0.50 0 -0.25 1.20 -0.50 2.65 -0.50 1.45 0 2.90 -0.25 3.25 -0.60 0.40 -0.40 0.60 -0.40 0.60 -0.05 0 1.05 -1.50 1.80 -3.10 1.45 l-1.60 -0.30 1 1.10 c2.10 2.40 2.40 2.90 1.65 2.90 -0.40 0 -1.25 -0.80 -1.95 -1.75z"/>
  <path d="M172 132.50 c0 -1.40 0.15 -1.50 1.75 -1.50 0.95 0 1.75 0.25 1.75 0.50 0 0.30 -0.45 0.50 -1.05 0.50 -0.60 0 -1.15 0.40 -1.30 1 -0.40 1.50 -1.15 1.20 -1.15 -0.50z"/>
  <path d="M123 131.25 c0 -0.95 0.25 -1.75 0.50 -1.75 0.30 0 0.50 0.35 0.50 0.75 0 0.40 0.45 0.75 1 0.75 0.55 0 1 0.25 1 0.50 0 0.30 -0.45 0.50 -1 0.50 -0.55 0 -1 0.25 -1 0.50 0 0.30 -0.20 0.50 -0.50 0.50 -0.25 0 -0.50 -0.80 -0.50 -1.75z"/>
  <path d="M109 131.50 c0 -0.25 0.45 -0.50 1 -0.50 0.55 0 1 0.25 1 0.50 0 0.30 -0.45 0.50 -1 0.50 -0.55 0 -1 -0.20 -1 -0.50z"/>
  <path d="M33.80 128.40 c-1.25 -4.35 -1.85 -10.75 -1.70 -17.65 l0.15 -6.50 2.90 -0.15 c2.80 -0.15 3.40 0.15 2.30 1.25 -1.25 1.25 -1.05 20 0.35 24.55 0.30 1 0.15 1.10 -1.45 1.10 -1.70 0 -1.80 -0.10 -2.55 -2.60z"/>
  <path d="M44.80 126.65 c-0.35 -4.60 0.60 -11.35 1.80 -12.40 0.40 -0.35 0.45 -0.20 0.15 0.50 -1.30 3.50 -1.80 9.75 -1.05 14.15 0.25 1.25 0.20 2.10 -0.10 2.10 -0.25 0 -0.60 -1.95 -0.80 -4.35z"/>
  <path d="M52.75 124.10 c0 -6.75 -0.05 -7 -1.55 -9.95 l-1.55 -3 1.90 1.05 c1.35 0.75 2.25 1.80 3.10 3.55 1.60 3.25 1.95 6 1.55 11.10 l-0.35 4.15 -1.55 0 -1.55 0 0 -6.90z"/>
  <path d="M63 130.80 c0 -0.10 0.35 -0.85 0.75 -1.60 0.80 -1.50 0.95 -1.25 0.45 0.70 -0.25 0.90 -1.20 1.65 -1.20 0.90z"/>
  <path d="M135.40 129.90 c-0.15 -0.80 0 -1.80 0.40 -2.25 0.95 -1.35 1.15 -0.65 0.50 1.60 -0.60 1.95 -0.60 1.95 -0.90 0.65z"/>
  <path d="M238.15 129.05 c0.20 -0.95 0.10 -1.55 -0.30 -1.75 -0.35 -0.10 0.30 -0.20 1.40 -0.20 1.10 0 1.60 0.10 1.15 0.25 -0.45 0.10 -1 0.85 -1.15 1.70 -0.45 1.90 -1.45 1.95 -1.10 0z"/>
  <path d="M230.90 128.25 c-0.20 -1.65 -0.10 -1.75 1.20 -1.75 0.75 0 1.40 0.25 1.40 0.50 0 0.30 -0.40 0.50 -0.95 0.50 -0.70 0 -0.85 0.30 -0.65 1.25 0.10 0.70 0 1.25 -0.30 1.25 -0.25 0 -0.60 -0.80 -0.70 -1.75z"/>
  <path d="M145 128.70 c0 -0.45 -0.45 -0.90 -1 -1.05 -0.55 -0.15 -1 -0.45 -1 -0.70 0 -0.25 0.45 -0.45 1 -0.45 0.65 0 1 -0.35 1 -1 0 -0.55 0.20 -1 0.45 -1 0.25 0 0.45 1.15 0.45 2.50 0 1.40 -0.20 2.50 -0.45 2.50 -0.25 0 -0.45 -0.35 -0.45 -0.80z"/>
  <path d="M194 128.50 c0 -0.65 -0.35 -1 -1 -1 -0.55 0 -1 -0.20 -1 -0.50 0 -0.70 1.65 -0.65 2.40 0.10 0.75 0.75 0.80 2.40 0.10 2.40 -0.25 0 -0.50 -0.45 -0.50 -1z"/>
  <path d="M258.30 128.65 c-0.15 -0.50 -0.45 -1.20 -0.60 -1.55 -0.25 -0.55 -0.10 -0.60 0.75 -0.15 0.55 0.35 1.05 1.05 1.05 1.55 0 1.25 -0.80 1.30 -1.20 0.15z"/>
  <path d="M245.35 127.90 c-1.05 -1.10 -0.90 -1.60 0.35 -1.10 0.45 0.15 0.80 0.75 0.80 1.25 0 1.15 0 1.15 -1.15 -0.15z"/>
  <path d="M218.45 127.55 c0.35 -0.55 1.05 -1.05 1.55 -1.05 1.25 0 1.30 0.80 0.15 1.20 -0.50 0.15 -1.20 0.45 -1.55 0.60 -0.55 0.25 -0.60 0.10 -0.15 -0.75z"/>
  <path d="M275 128 c0 -0.25 -0.45 -0.50 -1 -0.50 -0.55 0 -1 -0.20 -1 -0.50 0 -0.90 1.95 -0.50 2.50 0.50 0.35 0.70 0.35 1 0 1 -0.25 0 -0.50 -0.20 -0.50 -0.50z"/>
  <path d="M64.80 125.50 c0.15 -1.25 0.50 -3.50 0.70 -5 l0.35 -2.75 0.05 2.50 c0.05 1.40 -0.25 3.65 -0.65 5 l-0.75 2.50 0.30 -2.25z"/>
  <path d="M108 125.50 c0 -1.25 0.20 -1.50 1.25 -1.50 1.50 0 1.65 0.80 0.25 1.15 -0.65 0.15 -0.90 0.50 -0.70 1.05 0.15 0.45 0.05 0.80 -0.25 0.80 -0.30 0 -0.55 -0.65 -0.55 -1.50z"/>
  <path d="M119.35 125.40 c-0.50 -0.55 -0.85 -1.10 -0.70 -1.20 0.45 -0.45 1.75 0.40 2 1.35 0.30 1.20 -0.15 1.15 -1.30 -0.15z"/>
  <path d="M66.10 113.75 c-0.05 -2.20 -0.20 -5.25 -0.35 -6.75 l-0.20 -2.75 0.50 2.40 c0.25 1.35 0.40 4.40 0.30 6.75 l-0.15 4.35 -0.10 -4z"/>
  <path d="M90.50 75 l0 -6.50 1.30 -0.50 c0.70 -0.30 1.35 -0.50 1.50 -0.50 0.10 0 0.20 3.15 0.20 7 l0 7 -1.50 0 -1.50 0 0 -6.50z"/>
  <path d="M36.80 56.75 c-1.65 -1.65 -0.45 -6.15 1.40 -5.45 0.40 0.15 0.95 0.90 1.30 1.70 0.45 1.15 0.45 1.70 -0.10 2.80 -0.80 1.70 -1.55 2 -2.60 0.95z"/>
  <path d="M59.60 56.90 c-0.95 -0.95 -0.75 -4.80 0.30 -5.35 1.95 -1.05 3.40 1.75 2.30 4.35 -0.70 1.65 -1.60 2 -2.60 1z"/>
  <path d="M21.85 50.65 c-0.60 -0.95 -1.45 -13.60 -1.25 -17.35 0.40 -6.35 2.45 -10 6.80 -12.10 2.10 -1 7.80 -2.15 10.85 -2.15 1.90 -0.05 1.95 0 0.80 0.60 -2.20 1.10 -3.20 3.65 -3.20 8.10 0 4.25 1.30 9.25 2.35 9.25 0.35 0 1.05 0.35 1.60 0.80 0.90 0.75 0.90 0.75 -0.15 0.25 -1.65 -0.80 -3.70 -0.65 -5.85 0.45 -2.35 1.15 -3.20 2.35 -4.60 6.15 -1.25 3.40 -2.35 4.75 -4.55 5.65 -1.85 0.80 -2.50 0.85 -2.80 0.35z"/>
  <path d="M72.45 49.55 c-0.70 -0.50 -1.75 -2.15 -2.40 -3.65 -2.75 -6.40 -3.85 -7.50 -8.15 -8.35 -1.55 -0.30 -1.75 -0.45 -0.80 -0.50 1.50 -0.05 1.70 -0.45 2.10 -4.80 0.15 -1.35 0.40 -3.35 0.60 -4.35 0.25 -1.70 0.15 -2.05 -1.20 -3.30 -0.85 -0.80 -2.75 -2.05 -4.20 -2.75 -1.45 -0.75 -2.30 -1.35 -1.90 -1.35 1.20 0 5.80 2.85 6.90 4.25 l1 1.25 1.75 -1 c4 -2.35 7.35 -2.15 9.95 0.60 2.10 2.30 1.70 2.50 -0.60 0.30 -3.55 -3.30 -5.80 -2.30 -8.50 3.90 -0.60 1.35 -1.60 3.50 -2.25 4.80 -1.10 2.30 -0.95 3.40 0.55 3.40 0.95 0 3.55 3.25 4.20 5.35 1.05 3.30 2.70 5.75 4.25 6.45 0.85 0.35 1.15 0.65 0.70 0.70 -0.45 0 -1.35 -0.45 -2 -0.95z"/>
  <path d="M76.60 48.25 c0 -0.55 0.20 -1.55 0.40 -2.25 0.30 -1 0.40 -1.05 0.40 -0.25 0 0.55 -0.20 1.55 -0.40 2.25 -0.30 1 -0.40 1.05 -0.40 0.25z"/>
  <path d="M44.15 40.95 c-1.15 -0.55 -2.40 -1.40 -2.75 -1.80 -0.35 -0.45 0.35 -0.15 1.55 0.65 2 1.30 2.65 1.45 6.35 1.45 2.25 0 3.85 0.15 3.55 0.35 -1.25 0.80 -6.60 0.40 -8.70 -0.65z"/>
  <path d="M78.10 36 c0 -4.80 0.10 -5.30 0.45 -3.25 0.20 1.40 0.20 4 0 5.75 -0.40 3 -0.40 2.85 -0.45 -2.50z"/>
  <path d="M56.15 39.25 c1.25 -0.95 2.55 -1.75 2.90 -1.75 0.30 0 -0.60 0.80 -2 1.75 -1.40 0.95 -2.70 1.75 -2.85 1.75 -0.20 0 0.70 -0.80 1.95 -1.75z"/>
  <path d="M90.40 33.10 c-0.25 -1.90 0.05 -2.95 0.95 -3.30 1.85 -0.75 2.85 1.95 1.30 3.30 -1.70 1.40 -2.05 1.45 -2.25 0z"/>
  <path d="M40.75 18.95 c-0.30 -0.45 5.25 -0.45 8.25 0 2.35 0.35 2 0.40 -2.65 0.35 -3 0 -5.50 -0.20 -5.60 -0.35z"/>
 </g>
 <g fill="#373237">
  <path d="M186.75 140.50 c0.15 -0.25 1.85 -0.50 3.80 -0.50 l3.45 0 0 -1.65 0 -1.60 -3.75 0.15 c-5.15 0.30 -5.75 -0.25 -5.75 -5.20 0 -4.80 0.40 -5.20 5.25 -5.20 5.15 0 5.25 0.15 5.25 7.45 0 3.90 -0.20 6.05 -0.60 6.45 -0.75 0.75 -8.10 0.85 -7.65 0.10z m7.25 -8.75 l0 -4.30 -4.10 0.15 -4.15 0.15 -0.15 3.45 c-0.10 1.90 -0.05 3.75 0.10 4.15 0.20 0.45 1.40 0.65 4.30 0.65 l4 0 0 -4.25z"/>
  <path d="M108 130.50 l0 -6.50 5.70 0 c5.35 0 5.80 0.05 6.50 1.10 1 1.40 1.05 4.40 0.10 5.65 -0.55 0.75 -1.50 0.95 -5.30 1.10 -2.55 0.10 -5 0 -5.45 -0.20 -0.45 -0.25 1.50 -0.50 4.70 -0.65 l5.50 -0.25 0 -2.75 0 -2.75 -5.50 -0.15 -5.50 -0.15 0.05 6.05 c0.05 3.30 -0.10 6 -0.35 6 -0.25 0 -0.45 -2.90 -0.45 -6.50z"/>
  <path d="M117.25 134.70 c-1 -1.25 -1.70 -2.40 -1.55 -2.60 0.35 -0.30 4.25 3.80 4.30 4.55 0.05 0.90 -1.05 0.15 -2.75 -1.95z"/>
  <path d="M123.90 136.45 c-0.65 -0.35 -0.90 -1.15 -0.90 -2.70 0 -2.10 0.05 -2.20 1.70 -2.50 0.95 -0.20 3.10 -0.25 4.80 -0.15 l3.05 0.15 -0.15 -1.75 -0.15 -1.75 -4.10 -0.15 -4.15 -0.15 0 1.80 c0 0.95 -0.20 1.75 -0.50 1.75 -0.70 0 -0.60 -3.20 0.10 -3.90 0.35 -0.35 2.15 -0.60 4.45 -0.60 4.55 0 5.45 0.60 5.45 3.55 l0 1.95 -4.80 0 -4.75 0 0.15 1.90 0.15 1.85 4.65 0.15 c2.80 0.10 4.50 0.35 4.35 0.60 -0.40 0.65 -8.25 0.60 -9.35 -0.05z"/>
  <path d="M136.35 136.25 c-0.65 -0.60 -0.85 -1.75 -0.85 -4.75 0 -4.80 0.25 -5 5.70 -5 l3.80 0 0 -1.75 c0 -0.95 0.20 -1.75 0.45 -1.75 0.25 0 0.40 3.05 0.40 6.90 l-0.10 6.85 -4.30 0.15 c-3.50 0.15 -4.45 0.05 -5.10 -0.65z m8.55 -4.60 l0.15 -4.15 -4.20 0 c-3.95 0 -4.25 0.05 -4.55 1.15 -0.50 1.95 -0.30 6.15 0.30 6.75 0.45 0.45 1.90 0.60 4.40 0.50 l3.75 -0.15 0.15 -4.10z"/>
  <path d="M153.25 130.50 l0 -6.50 5.90 0 c3.55 0 5.85 0.20 5.85 0.50 0 0.30 -2.15 0.50 -5.50 0.50 l-5.50 0 0 2.50 0 2.50 4.50 0 c2.85 0 4.50 0.20 4.50 0.55 0 0.30 -1.55 0.45 -4.35 0.40 l-4.40 -0.10 -0.05 2.95 c-0.05 1.60 -0.25 2.95 -0.50 3.05 -0.30 0.10 -0.45 -2.55 -0.45 -6.35z"/>
  <path d="M168 136.65 c-1.35 -0.50 -1.50 -1.30 -1.50 -7.50 0 -8.30 0.95 -8.10 1.10 0.25 0.15 6.15 0.20 6.35 1.30 6.50 0.60 0.10 1.10 0.40 1.10 0.65 0 0.50 -0.80 0.55 -2 0.10z"/>
  <path d="M172.95 136.10 c-0.70 -0.45 -0.95 -1.25 -0.95 -2.85 l0 -2.20 4.95 0.10 c4.65 0.10 4.90 0.05 4.80 -0.90 -0.05 -0.55 -0.15 -1.40 -0.20 -1.85 -0.05 -0.80 -0.65 -0.90 -4.80 -0.90 -2.85 0 -4.75 -0.20 -4.75 -0.50 0 -0.75 8.65 -0.65 9.65 0.15 0.60 0.45 0.85 1.60 0.90 5.05 l0.10 4.45 -4.35 0.05 c-2.95 0.05 -4.70 -0.15 -5.35 -0.60z m8.80 -2.10 l0 -1.75 -4.35 -0.15 -4.40 -0.15 0 1.70 c0 0.90 0.15 1.85 0.35 2.05 0.20 0.20 2.15 0.25 4.40 0.20 l4 -0.15 0 -1.75z"/>
  <path d="M203.75 136.65 c-0.95 -0.20 -1 -0.55 -0.90 -6.30 l0.10 -6.10 5.70 -0.15 c4.65 -0.10 5.80 0 6.35 0.65 0.40 0.50 0.65 2.30 0.60 5.25 0 5.10 -0.30 6.35 -1.50 6.65 -1.05 0.30 -9 0.25 -10.35 0z m10.95 -1.45 c0.40 -1 0.40 -8.40 0 -9.40 -0.25 -0.65 -1.25 -0.80 -5.75 -0.80 l-5.45 0 0 5.15 c0 2.85 0.15 5.35 0.35 5.50 0.15 0.20 2.60 0.35 5.45 0.35 4.20 0 5.15 -0.15 5.40 -0.80z"/>
  <path d="M218.95 135.95 c-1.25 -1.25 -1.35 -7.45 -0.15 -8.65 1.10 -1.10 7.80 -1.10 8.90 0 1.10 1.10 1.10 7.80 0 8.90 -1.20 1.20 -7.50 1 -8.75 -0.25z m8.55 -0.90 c0.55 -1.10 0.65 -4.65 0.20 -6.45 -0.30 -1.10 -0.50 -1.15 -4.40 -1 l-4.05 0.15 -0.15 3.45 c-0.10 1.90 -0.05 3.75 0.10 4.15 0.20 0.45 1.35 0.65 4 0.65 3.20 0 3.85 -0.15 4.30 -0.95z"/>
  <path d="M231 131.75 l0 -5.25 7.15 0 c4.90 0 7.35 0.20 7.75 0.60 0.40 0.40 0.55 2.20 0.50 5.35 l-0.10 4.80 -0.25 -4.75 -0.30 -4.75 -2.95 -0.15 c-2.05 -0.10 -3.10 0.05 -3.35 0.50 -0.25 0.35 -0.45 2.50 -0.45 4.80 0 2.25 -0.20 4.10 -0.40 4.10 -0.25 0 -0.40 -2.15 -0.40 -4.75 l0.05 -4.75 -3.25 0 -3.25 0 0.05 4.75 c0.05 2.60 -0.10 4.75 -0.35 4.75 -0.25 0 -0.45 -2.35 -0.45 -5.25z"/>
  <path d="M250.15 136.25 c-0.90 -0.65 -1.15 -1.30 -1.15 -3.05 l0 -2.25 4.75 0.15 4.80 0.15 -0.15 -1.75 -0.15 -1.75 -4.60 -0.15 c-6 -0.20 -6.10 -1.10 -0.20 -1.10 5.85 0 6.05 0.20 6.05 5.95 l0 4.35 -4.10 0.10 c-3.15 0.10 -4.40 -0.05 -5.25 -0.65z m8.35 -2.25 l0 -2 -4.25 0 -4.25 0 0 1.65 c0 0.95 0.15 1.85 0.35 2 0.15 0.20 2.10 0.35 4.25 0.35 l3.90 0 0 -2z"/>
  <path d="M262 131.75 c0 -3.15 0.20 -5.25 0.50 -5.25 0.30 0 0.50 2.10 0.50 5.25 0 3.15 -0.20 5.25 -0.50 5.25 -0.30 0 -0.50 -2.10 -0.50 -5.25z"/>
  <path d="M265.50 131.75 l0 -5.25 4.45 0 c3.40 0 4.65 0.20 5.25 0.80 0.60 0.60 0.80 1.85 0.80 5.25 0 2.65 -0.20 4.45 -0.50 4.45 -0.30 0 -0.50 -1.90 -0.50 -4.75 l0 -4.75 -4.25 0 -4.25 0 0 4.75 c0 2.85 -0.20 4.75 -0.50 4.75 -0.30 0 -0.50 -2.10 -0.50 -5.25z"/>
  <path d="M279.20 136.30 c-0.50 -0.40 -0.80 -0.90 -0.55 -1.10 0.20 -0.20 0.65 -0.10 0.95 0.20 0.35 0.35 2.10 0.60 4.20 0.60 l3.60 0 0.20 -1.50 c0.15 -0.80 0.10 -1.70 -0.10 -1.95 -0.15 -0.30 -2.20 -0.55 -4.50 -0.65 l-4.25 -0.15 -0.15 -1.90 c-0.25 -2.90 0.40 -3.35 4.90 -3.35 2.85 0 4.05 0.20 4.50 0.75 0.35 0.45 0.45 0.95 0.25 1.15 -0.20 0.20 -0.50 0.05 -0.60 -0.25 -0.15 -0.45 -1.50 -0.65 -4.20 -0.65 l-3.95 0 0 1.75 0 1.75 3.55 0 c4.60 0 5.45 0.50 5.45 3 0 1.45 -0.25 2.10 -0.95 2.50 -1.45 0.75 -7.20 0.65 -8.35 -0.20z"/>
  <path d="M90.60 118.90 l0.15 -17.65 0.10 17.15 c0.15 14.65 0.25 17.10 0.90 17.10 0.65 0 0.75 -3.05 0.85 -22 0.15 -20.35 0.10 -22 -0.70 -22 -0.50 0 -0.90 0.50 -1.05 1.25 -0.20 1.20 -0.20 1.20 -0.15 -0.10 0.05 -1 0.40 -1.40 1.45 -1.70 l1.45 -0.40 -0.20 23 -0.15 22.95 -1.35 0 -1.40 0 0.10 -17.60z"/>
  <path d="M34.65 130.40 c-0.65 -0.80 -1.50 -4.55 -2.15 -9.55 -0.45 -3.65 -0.75 -15.75 -0.30 -15.30 0.10 0.10 0.30 3.60 0.50 7.70 0.45 10.85 1.35 15.65 3.20 17.05 0.75 0.60 0.75 0.65 0.05 0.70 -0.45 0 -1.05 -0.30 -1.30 -0.60z"/>
  <path d="M52.80 129.90 c0.60 -1.90 0.40 -11.05 -0.30 -13.15 -0.35 -1.10 -1.05 -2.60 -1.55 -3.35 -1.10 -1.55 -1.25 -2.25 -0.25 -1.45 0.40 0.30 1.20 1.75 1.85 3.20 1.05 2.25 1.20 3.35 1.20 8.75 0 3.35 0.20 6.10 0.40 6.10 0.25 0 0.25 0.25 0.10 0.50 -0.15 0.30 -0.65 0.50 -1.05 0.50 -0.55 0 -0.65 -0.30 -0.40 -1.10z"/>
  <path d="M32.50 104.40 c0 -0.25 1.30 -0.40 2.85 -0.40 1.55 0 2.65 0.15 2.45 0.40 -0.20 0.20 -1.50 0.35 -2.85 0.35 -1.35 0 -2.45 -0.15 -2.45 -0.35z"/>
  <path d="M90.50 81.05 c0 -0.20 0.60 -0.30 1.35 -0.15 1.25 0.25 1.30 0.15 1 -1.40 -0.20 -0.90 -0.35 -3.75 -0.35 -6.35 0 -4.50 -0.05 -4.65 -1 -4.15 -0.80 0.40 -0.90 0.40 -0.70 -0.20 0.15 -0.40 0.80 -0.80 1.45 -0.90 l1.15 -0.25 0.05 6.95 0.10 6.90 -1.55 0 c-0.80 0 -1.50 -0.20 -1.50 -0.45z"/>
  <path d="M36.85 56.60 c-1.15 -1.25 -1.05 -3.75 0.10 -4.80 0.85 -0.80 1 -0.80 1.75 -0.05 1.40 1.40 0.85 5.75 -0.70 5.75 -0.20 0 -0.70 -0.40 -1.15 -0.90z m2.05 -2.25 c0.10 -1.35 -0.05 -1.95 -0.65 -2.20 -1 -0.35 -1.75 0.60 -1.75 2.40 0 2.80 2.15 2.60 2.40 -0.20z"/>
  <path d="M59.90 56.95 c-1.30 -0.75 -1.25 -4.75 0.05 -5.45 2 -1.05 3.40 2.50 2.05 5.05 -0.60 1.10 -0.90 1.15 -2.10 0.40z m2 -2.20 c0.15 -1.85 -0.55 -3 -1.60 -2.60 -0.80 0.30 -1.15 3.35 -0.45 4.05 0.80 0.75 1.90 0 2.05 -1.45z"/>
  <path d="M21.85 49.85 c-0.70 -2.75 -1.45 -13.45 -1.20 -16.90 0.15 -2.05 0.75 -4.75 1.25 -6 1.05 -2.35 3.85 -5.20 6.05 -6 2 -0.80 9 -2.05 10.20 -1.85 0.60 0.10 -0.60 0.50 -2.65 0.85 -8.60 1.45 -11.70 3.30 -13.15 7.95 -1.25 3.85 -1.40 6.60 -0.90 13.15 0.70 8.65 0.90 9.40 2.25 9.05 1.85 -0.45 3.70 -2.60 4.85 -5.80 0.60 -1.65 1.80 -3.75 2.60 -4.65 1.75 -1.85 5.10 -3.20 6.60 -2.60 0.80 0.30 0.65 0.40 -0.65 0.40 -2.25 0.05 -4.90 1.40 -6 3 -0.50 0.70 -1.40 2.65 -2.05 4.30 -1.65 4.15 -2.65 5.20 -5.60 5.95 -1.10 0.25 -1.40 0.10 -1.60 -0.85z"/>
  <path d="M72.45 49.45 l-1.20 -1 1.50 0.85 c1.95 1.20 2 1.20 1.40 1.20 -0.30 0 -1.05 -0.45 -1.70 -1.05z"/>
  <path d="M62 37.55 l-1.25 -0.35 1.35 -0.30 c0.85 -0.15 1.60 0 1.95 0.40 0.65 0.80 0.10 0.85 -2.05 0.25z"/>
  <path d="M90.50 33.85 c0 -0.40 0.45 -0.85 1 -1 0.55 -0.15 1 -0.60 1 -1.05 0 -1.10 -1.35 -1 -1.70 0.10 -0.15 0.50 -0.20 0.30 -0.15 -0.40 0.05 -0.90 0.45 -1.30 1.25 -1.40 1.05 -0.15 1.15 0 1 1.45 -0.15 1.70 -2.40 3.85 -2.40 2.30z"/>
  <path d="M64.80 25.95 c0.45 -0.75 4.20 -2.45 5.40 -2.45 1.25 0 0.80 0.45 -0.70 0.75 -0.60 0.10 -2 0.70 -3.10 1.25 -1.10 0.55 -1.80 0.75 -1.60 0.45z"/>
  <path d="M61.75 23.70 c-0.90 -0.80 -1.10 -1.10 -0.45 -0.75 0.90 0.45 2.65 2.10 2.15 2.05 -0.10 -0.05 -0.85 -0.60 -1.70 -1.30z"/>
 </g>
</svg>