<?xml version="1.0" encoding="UTF-8"?>
<!DOCTYPE svg PUBLIC "-//W3C//DTD SVG 1.1//EN" "http://www.w3.org/Graphics/SVG/1.1/DTD/svg11.dtd">
<svg xmlns="http://www.w3.org/2000/svg" version="1.1" width="320px" height="247px" style="shape-rendering:geometricPrecision; text-rendering:geometricPrecision; image-rendering:optimizeQuality; fill-rule:evenodd; clip-rule:evenodd" xmlns:xlink="http://www.w3.org/1999/xlink">
<g><path style="opacity:0.024" fill="#0766dc" d="M 248.5,84.5 C 246.712,85.6225 244.712,85.7891 242.5,85C 244.473,84.5045 246.473,84.3379 248.5,84.5 Z"/></g>
<g><path style="opacity:0.024" fill="#2c7ed8" d="M 248.5,84.5 C 249.097,83.8614 249.93,83.528 251,83.5C 253.5,84 256,84.5 258.5,85C 255.151,85.3876 251.817,85.2209 248.5,84.5 Z"/></g>
<g><path style="opacity:0.004" fill="#1f3eed" d="M 262.5,87.5 C 261.737,86.7321 260.737,86.2321 259.5,86C 261.635,85.3653 263.635,85.6986 265.5,87C 264.552,87.4828 263.552,87.6495 262.5,87.5 Z"/></g>
<g><path style="opacity:0.008" fill="#1d67dc" d="M 238.5,87.5 C 236.653,87.7658 235.986,87.4325 236.5,86.5C 238.098,85.5153 239.765,85.3486 241.5,86C 240.263,86.2321 239.263,86.7321 238.5,87.5 Z"/></g>
<g><path style="opacity:0.905" fill="#0067ce" d="M 262.5,87.5 C 263.93,88.5375 265.597,89.2041 267.5,89.5C 270.128,91.4884 272.795,93.4884 275.5,95.5C 275.5,96.1667 275.833,96.5 276.5,96.5C 276.5,97.1667 276.833,97.5 277.5,97.5C 277.5,98.1667 277.833,98.5 278.5,98.5C 281.097,102.034 283.43,105.7 285.5,109.5C 285.263,110.791 285.596,111.791 286.5,112.5C 287.833,119.5 287.833,126.5 286.5,133.5C 285.596,134.209 285.263,135.209 285.5,136.5C 283.515,139.798 281.515,143.131 279.5,146.5C 278.833,146.5 278.5,146.833 278.5,147.5C 277.833,147.5 277.5,147.833 277.5,148.5C 276.833,148.5 276.5,148.833 276.5,149.5C 275.833,149.5 275.5,149.833 275.5,150.5C 274.833,150.5 274.5,150.833 274.5,151.5C 273.833,151.5 273.5,151.833 273.5,152.5C 272.833,152.5 272.5,152.833 272.5,153.5C 271.508,153.328 270.842,153.662 270.5,154.5C 268.973,154.427 267.973,155.094 267.5,156.5C 266.508,156.328 265.842,156.662 265.5,157.5C 264.209,157.263 263.209,157.596 262.5,158.5C 254.5,159.833 246.5,159.833 238.5,158.5C 230.855,155.176 224.522,150.176 219.5,143.5C 219.5,142.833 219.167,142.5 218.5,142.5C 218.672,141.508 218.338,140.842 217.5,140.5C 217.672,139.508 217.338,138.842 216.5,138.5C 216.672,137.508 216.338,136.842 215.5,136.5C 215.737,135.209 215.404,134.209 214.5,133.5C 214.784,131.585 214.451,129.919 213.5,128.5C 213.5,124.833 213.5,121.167 213.5,117.5C 214.451,116.081 214.784,114.415 214.5,112.5C 216.07,109.686 217.403,106.686 218.5,103.5C 219.167,103.5 219.5,103.167 219.5,102.5C 224.522,95.8244 230.855,90.8244 238.5,87.5C 246.5,86.1667 254.5,86.1667 262.5,87.5 Z M 261.5,95.5 C 260.167,95.5 258.833,95.5 257.5,95.5C 252.833,94.1667 248.167,94.1667 243.5,95.5C 242.209,95.2627 241.209,95.596 240.5,96.5C 239.5,96.5 238.5,96.5 237.5,96.5C 245.422,92.1698 253.422,91.8365 261.5,95.5 Z M 243.5,95.5 C 248.167,95.5 252.833,95.5 257.5,95.5C 259.214,96.7384 261.214,97.405 263.5,97.5C 263.842,98.3382 264.508,98.6716 265.5,98.5C 265.973,99.9063 266.973,100.573 268.5,100.5C 268.5,101.167 268.833,101.5 269.5,101.5C 269.5,102.167 269.833,102.5 270.5,102.5C 270.5,103.167 270.833,103.5 271.5,103.5C 271.5,104.167 271.833,104.5 272.5,104.5C 272.5,105.167 272.833,105.5 273.5,105.5C 273.427,107.027 274.094,108.027 275.5,108.5C 275.928,111.785 276.928,114.785 278.5,117.5C 278.5,121.167 278.5,124.833 278.5,128.5C 276.928,131.215 275.928,134.215 275.5,137.5C 274.094,137.973 273.427,138.973 273.5,140.5C 272.833,140.5 272.5,140.833 272.5,141.5C 271.833,141.5 271.5,141.833 271.5,142.5C 270.833,142.5 270.5,142.833 270.5,143.5C 269.833,143.5 269.5,143.833 269.5,144.5C 268.833,144.5 268.5,144.833 268.5,145.5C 266.973,145.427 265.973,146.094 265.5,147.5C 264.508,147.328 263.842,147.662 263.5,148.5C 262.5,148.5 261.5,148.5 260.5,148.5C 261.167,147.5 261.833,146.5 262.5,145.5C 263.167,145.5 263.5,145.167 263.5,144.5C 264.906,144.027 265.573,143.027 265.5,141.5C 266.338,141.158 266.672,140.492 266.5,139.5C 267.338,139.158 267.672,138.492 267.5,137.5C 268.404,136.791 268.737,135.791 268.5,134.5C 271.167,129.167 271.167,123.833 268.5,118.5C 268.771,116.62 268.104,115.287 266.5,114.5C 265.581,111.911 263.914,109.911 261.5,108.5C 261.5,107.833 261.167,107.5 260.5,107.5C 260.158,106.662 259.492,106.328 258.5,106.5C 258.158,105.662 257.492,105.328 256.5,105.5C 254.401,104.388 252.067,103.721 249.5,103.5C 248.005,103.989 246.671,104.655 245.5,105.5C 242.833,105.833 242.833,106.167 245.5,106.5C 244.486,107.674 243.153,108.34 241.5,108.5C 240.833,107.167 240.167,107.167 239.5,108.5C 238.833,108.5 238.5,108.833 238.5,109.5C 237.5,109.833 236.833,110.5 236.5,111.5C 235.094,111.973 234.427,112.973 234.5,114.5C 230.5,120.167 230.5,125.833 234.5,131.5C 234.427,133.027 235.094,134.027 236.5,134.5C 237.167,135.833 238.167,136.833 239.5,137.5C 241.394,140.187 242.061,140.187 241.5,137.5C 243.153,137.66 244.486,138.326 245.5,139.5C 242.833,139.833 242.833,140.167 245.5,140.5C 247.261,141.313 248.928,142.313 250.5,143.5C 249.508,143.328 248.842,143.662 248.5,144.5C 243.5,145.833 238.5,145.833 233.5,144.5C 233.158,143.662 232.492,143.328 231.5,143.5C 230.167,141.5 228.5,139.833 226.5,138.5C 226.167,135.833 225.833,135.833 225.5,138.5C 223.896,137.713 223.229,136.38 223.5,134.5C 224.833,133.5 224.833,132.5 223.5,131.5C 222.167,125.833 222.167,120.167 223.5,114.5C 224.833,113.5 224.833,112.5 223.5,111.5C 223.229,109.62 223.896,108.287 225.5,107.5C 225.833,110.167 226.167,110.167 226.5,107.5C 227.906,107.027 228.573,106.027 228.5,104.5C 229.167,104.5 229.5,104.167 229.5,103.5C 230.167,103.5 230.5,103.167 230.5,102.5C 231.5,102.167 232.167,101.5 232.5,100.5C 234.027,100.573 235.027,99.9063 235.5,98.5C 237.403,98.2041 239.07,97.5375 240.5,96.5C 241.791,96.7373 242.791,96.404 243.5,95.5 Z M 268.5,100.5 C 268.5,100.167 268.5,99.8333 268.5,99.5C 271.167,100.167 272.833,101.833 273.5,104.5C 273.167,104.5 272.833,104.5 272.5,104.5C 271.833,104.5 271.5,104.167 271.5,103.5C 270.833,103.5 270.5,103.167 270.5,102.5C 269.833,102.5 269.5,102.167 269.5,101.5C 268.833,101.5 268.5,101.167 268.5,100.5 Z M 230.5,101.5 C 230.5,101.833 230.5,102.167 230.5,102.5C 229.833,102.5 229.5,102.833 229.5,103.5C 229.167,103.5 228.833,103.5 228.5,103.5C 228.5,102.167 229.167,101.5 230.5,101.5 Z M 245.5,106.5 C 245.5,106.167 245.5,105.833 245.5,105.5C 247.167,105.5 248.833,105.5 250.5,105.5C 252.5,105.5 254.5,105.5 256.5,105.5C 256.842,106.338 257.508,106.672 258.5,106.5C 258.5,106.833 258.5,107.167 258.5,107.5C 254.215,106.705 249.881,106.372 245.5,106.5 Z M 258.5,107.5 C 259.167,107.5 259.833,107.5 260.5,107.5C 261.167,107.5 261.5,107.833 261.5,108.5C 261.5,108.833 261.5,109.167 261.5,109.5C 259.973,109.573 258.973,108.906 258.5,107.5 Z M 239.5,108.5 C 240.167,108.5 240.833,108.5 241.5,108.5C 241.027,109.906 240.027,110.573 238.5,110.5C 238.5,110.167 238.5,109.833 238.5,109.5C 239.167,109.5 239.5,109.167 239.5,108.5 Z M 223.5,111.5 C 223.5,112.5 223.5,113.5 223.5,114.5C 222.833,115.833 222.167,117.167 221.5,118.5C 221.171,115.772 221.837,113.438 223.5,111.5 Z M 278.5,113.5 C 280.006,116.356 280.672,119.523 280.5,123C 280.672,126.477 280.006,129.644 278.5,132.5C 278.5,131.167 278.5,129.833 278.5,128.5C 279.833,124.833 279.833,121.167 278.5,117.5C 278.5,116.167 278.5,114.833 278.5,113.5 Z M 246.5,115.5 C 257.528,114.401 260.861,118.901 256.5,129C 253.312,130.316 249.978,130.816 246.5,130.5C 245.833,129.167 244.833,128.167 243.5,127.5C 243.672,126.508 243.338,125.842 242.5,125.5C 242.5,123.833 242.5,122.167 242.5,120.5C 243.338,120.158 243.672,119.492 243.5,118.5C 244.833,117.833 245.833,116.833 246.5,115.5 Z M 243.5,116.5 C 243.5,117.167 243.5,117.833 243.5,118.5C 242.662,118.842 242.328,119.508 242.5,120.5C 242.167,120.5 241.833,120.5 241.5,120.5C 241.229,118.62 241.896,117.287 243.5,116.5 Z M 267.5,118.5 C 267.833,118.5 268.167,118.5 268.5,118.5C 269.833,123.833 269.833,129.167 268.5,134.5C 268.167,134.5 267.833,134.5 267.5,134.5C 268.833,129.167 268.833,123.833 267.5,118.5 Z M 241.5,125.5 C 241.833,125.5 242.167,125.5 242.5,125.5C 242.328,126.492 242.662,127.158 243.5,127.5C 243.5,128.167 243.5,128.833 243.5,129.5C 241.896,128.713 241.229,127.38 241.5,125.5 Z M 221.5,127.5 C 222.167,128.833 222.833,130.167 223.5,131.5C 223.5,132.5 223.5,133.5 223.5,134.5C 221.837,132.562 221.171,130.228 221.5,127.5 Z M 267.5,134.5 C 267.5,135.5 267.5,136.5 267.5,137.5C 266.662,137.842 266.328,138.508 266.5,139.5C 266.167,139.5 265.833,139.5 265.5,139.5C 265.402,137.447 266.069,135.78 267.5,134.5 Z M 254.5,141.5 C 251.713,140.523 248.713,140.19 245.5,140.5C 245.5,140.167 245.5,139.833 245.5,139.5C 249.587,139.52 253.587,139.353 257.5,139C 256.627,140.045 255.627,140.878 254.5,141.5 Z M 272.5,141.5 C 272.833,141.5 273.167,141.5 273.5,141.5C 272.833,144.167 271.167,145.833 268.5,146.5C 268.5,146.167 268.5,145.833 268.5,145.5C 269.167,145.5 269.5,145.167 269.5,144.5C 270.167,144.5 270.5,144.167 270.5,143.5C 271.167,143.5 271.5,143.167 271.5,142.5C 272.167,142.5 272.5,142.167 272.5,141.5 Z M 263.5,142.5 C 263.5,143.167 263.5,143.833 263.5,144.5C 262.833,144.5 262.5,144.833 262.5,145.5C 262.167,145.5 261.833,145.5 261.5,145.5C 261.427,143.973 262.094,142.973 263.5,142.5 Z M 233.5,145.5 C 238.5,146.833 243.5,146.833 248.5,145.5C 243.5,148.167 238.5,148.167 233.5,145.5 Z M 258.5,148.5 C 258.167,149.167 257.833,149.833 257.5,150.5C 256.833,150.5 256.167,150.5 255.5,150.5C 255.973,149.094 256.973,148.427 258.5,148.5 Z M 255.5,150.5 C 256.167,151.833 256.833,151.833 257.5,150.5C 258.833,150.5 260.167,150.5 261.5,150.5C 258.829,152.118 255.829,152.785 252.5,152.5C 253.29,151.599 254.29,150.932 255.5,150.5 Z"/></g>
<g><path style="opacity:0.027" fill="#006cb6" d="M 267.5,88.5 C 268.833,89.1667 268.833,89.1667 267.5,88.5 Z"/></g>
<g><path style="opacity:0.016" fill="#007fbf" d="M 269.5,89.5 C 270.833,90.1667 270.833,90.1667 269.5,89.5 Z"/></g>
<g><path style="opacity:0.004" fill="#234eea" d="M 257.5,95.5 C 258.833,95.5 260.167,95.5 261.5,95.5C 261.842,96.3382 262.508,96.6716 263.5,96.5C 263.5,96.8333 263.5,97.1667 263.5,97.5C 261.214,97.405 259.214,96.7384 257.5,95.5 Z"/></g>
<g><path style="opacity:0.008" fill="#106af2" d="M 275.5,95.5 C 277.268,94.4925 278.601,95.1592 279.5,97.5C 279.376,98.1067 279.043,98.44 278.5,98.5C 277.833,98.5 277.5,98.1667 277.5,97.5C 276.833,97.5 276.5,97.1667 276.5,96.5C 275.833,96.5 275.5,96.1667 275.5,95.5 Z"/></g>
<g><path style="opacity:0.008" fill="#0f62ec" d="M 233.5,98.5 C 234.167,98.5 234.833,98.5 235.5,98.5C 235.027,99.9063 234.027,100.573 232.5,100.5C 232.5,100.167 232.5,99.8333 232.5,99.5C 233.167,99.5 233.5,99.1667 233.5,98.5 Z"/></g>
<g><path style="opacity:0.027" fill="#1f64d9" d="M 265.5,98.5 C 266.167,98.5 266.833,98.5 267.5,98.5C 267.5,99.1667 267.833,99.5 268.5,99.5C 268.5,99.8333 268.5,100.167 268.5,100.5C 266.973,100.573 265.973,99.9063 265.5,98.5 Z"/></g>
<g><path style="opacity:0.02" fill="#1b5cd0" d="M 219.5,102.5 C 218.833,102.5 218.5,102.833 218.5,103.5C 217.287,102.503 217.454,101.503 219,100.5C 219.464,101.094 219.631,101.761 219.5,102.5 Z"/></g>
<g><path style="opacity:0.008" fill="#29729f" d="M 249.5,103.5 C 252.067,103.721 254.401,104.388 256.5,105.5C 254.5,105.5 252.5,105.5 250.5,105.5C 250.167,104.833 249.833,104.167 249.5,103.5 Z"/></g>
<g><path style="opacity:0.018" fill="#174cce" d="M 249.5,103.5 C 249.833,104.167 250.167,104.833 250.5,105.5C 248.833,105.5 247.167,105.5 245.5,105.5C 246.671,104.655 248.005,103.989 249.5,103.5 Z"/></g>
<g><path style="opacity:0.004" fill="#2554e9" d="M 227.5,104.5 C 227.833,104.5 228.167,104.5 228.5,104.5C 228.573,106.027 227.906,107.027 226.5,107.5C 226.5,106.833 226.5,106.167 226.5,105.5C 227.167,105.5 227.5,105.167 227.5,104.5 Z"/></g>
<g><path style="opacity:0.813" fill="#0066cf" d="M 144.5,139.5 C 143.041,139.567 141.708,139.234 140.5,138.5C 139.876,129.968 139.21,121.468 138.5,113C 127.659,112.175 116.992,112.341 106.5,113.5C 105.833,113.5 105.5,113.833 105.5,114.5C 104.671,121.989 104.171,129.656 104,137.5C 103.283,138.044 102.783,138.711 102.5,139.5C 101.417,139.461 100.417,139.127 99.5,138.5C 98.3349,130.187 98.1683,121.853 99,113.5C 99.8333,110 102,107.833 105.5,107C 116.5,106.333 127.5,106.333 138.5,107C 142.742,108.245 145.242,111.078 146,115.5C 146.667,122.5 146.667,129.5 146,136.5C 145.487,137.527 144.987,138.527 144.5,139.5 Z M 106.5,113.5 C 116.992,112.341 127.659,112.175 138.5,113C 139.21,121.468 139.876,129.968 140.5,138.5C 139.883,138.389 139.383,138.056 139,137.5C 138.817,129.588 138.317,121.754 137.5,114C 127.172,113.5 116.839,113.334 106.5,113.5 Z M 105.5,114.5 C 105.802,122.918 105.469,131.252 104.5,139.5C 103.833,139.5 103.167,139.5 102.5,139.5C 102.783,138.711 103.283,138.044 104,137.5C 104.171,129.656 104.671,121.989 105.5,114.5 Z"/></g>
<g><path style="opacity:0.02" fill="#175ee4" d="M 273.5,105.5 C 273.833,105.5 274.167,105.5 274.5,105.5C 274.5,106.167 274.833,106.5 275.5,106.5C 275.5,107.167 275.5,107.833 275.5,108.5C 274.094,108.027 273.427,107.027 273.5,105.5 Z"/></g>
<g><path style="opacity:0.816" fill="#0268ce" d="M 75.5,119.5 C 74.9033,119.735 74.5699,120.235 74.5,121C 75.7044,122.699 77.0378,124.199 78.5,125.5C 78.8887,129.414 78.2221,133.08 76.5,136.5C 75.8333,136.5 75.5,136.833 75.5,137.5C 74.234,138.09 72.9007,138.59 71.5,139C 58.8333,139.667 46.1667,139.667 33.5,139C 32.1941,133.914 31.5274,128.58 31.5,123C 31.5274,117.42 32.1941,112.086 33.5,107C 45.1667,106.333 56.8333,106.333 68.5,107C 74.0024,109.347 76.3357,113.514 75.5,119.5 Z M 67.5,113.5 C 57.8333,113.5 48.1667,113.5 38.5,113.5C 38.6633,115.857 38.4966,118.19 38,120.5C 37.5026,117.854 37.3359,115.187 37.5,112.5C 47.6806,112.173 57.6806,112.506 67.5,113.5 Z M 67.5,114.5 C 67.67,115.822 67.3366,116.989 66.5,118C 67.0944,118.464 67.7611,118.631 68.5,118.5C 67.7375,119.268 66.7375,119.768 65.5,120C 56.8397,120.5 48.1731,120.666 39.5,120.5C 39.5,118.5 39.5,116.5 39.5,114.5C 48.8333,114.5 58.1667,114.5 67.5,114.5 Z M 70.5,131.5 C 71.4345,130.432 71.7678,129.099 71.5,127.5C 72.807,129.223 72.807,131.057 71.5,133C 60.1716,133.5 48.8382,133.667 37.5,133.5C 37.3359,130.813 37.5026,128.146 38,125.5C 38.4966,127.81 38.6633,130.143 38.5,132.5C 49.3464,132.828 60.0131,132.494 70.5,131.5 Z M 71.5,127.5 C 61.1613,127.334 50.828,127.5 40.5,128C 50.4944,128.5 60.4944,128.666 70.5,128.5C 70.5,129.5 70.5,130.5 70.5,131.5C 60.1667,131.5 49.8333,131.5 39.5,131.5C 39.5,129.5 39.5,127.5 39.5,125.5C 49.543,125.551 59.3763,125.551 69,125.5C 69.9947,126.066 70.828,126.733 71.5,127.5 Z"/></g>
<g><path style="opacity:0.956" fill="#0e62d4" d="M 89.5,139.5 C 86.8858,139.723 85.2191,138.556 84.5,136C 84.5,127.333 84.5,118.667 84.5,110C 86.4991,105.653 88.6658,105.486 91,109.5C 91.6667,118.5 91.6667,127.5 91,136.5C 90.4867,137.527 89.9867,138.527 89.5,139.5 Z"/></g>
<g><path style="opacity:0.931" fill="#0067cf" d="M 195.5,110.5 C 195.5,111.167 195.833,111.5 196.5,111.5C 196.5,112.167 196.833,112.5 197.5,112.5C 197.932,113.71 198.599,114.71 199.5,115.5C 199.328,116.492 199.662,117.158 200.5,117.5C 201.833,121.167 201.833,124.833 200.5,128.5C 199.662,128.842 199.328,129.508 199.5,130.5C 198.662,130.842 198.328,131.508 198.5,132.5C 197.833,132.5 197.5,132.833 197.5,133.5C 196.833,133.5 196.5,133.833 196.5,134.5C 195.833,134.5 195.5,134.833 195.5,135.5C 193.125,136.902 190.791,138.235 188.5,139.5C 178.161,139.666 167.828,139.5 157.5,139C 155.65,138.31 154.316,137.144 153.5,135.5C 153.334,127.16 153.5,118.827 154,110.5C 154.374,109.584 154.874,108.75 155.5,108C 166.402,106.38 177.402,106.046 188.5,107C 191.139,107.653 193.473,108.82 195.5,110.5 Z M 187.5,113.5 C 178.105,112.862 169.105,113.529 160.5,115.5C 160.5,121.167 160.5,126.833 160.5,132.5C 169.5,132.5 178.5,132.5 187.5,132.5C 178.348,133.494 169.015,133.827 159.5,133.5C 159.5,126.5 159.5,119.5 159.5,112.5C 169.015,112.173 178.348,112.506 187.5,113.5 Z M 187.5,114.5 C 187.842,115.338 188.508,115.672 189.5,115.5C 193.5,120.5 193.5,125.5 189.5,130.5C 188.508,130.328 187.842,130.662 187.5,131.5C 178.833,131.5 170.167,131.5 161.5,131.5C 161.5,126.167 161.5,120.833 161.5,115.5C 169.984,114.507 178.651,114.174 187.5,114.5 Z"/></g>
<g><path style="opacity:0.004" fill="#183be6" d="M 286.5,112.5 C 286.737,111.209 286.404,110.209 285.5,109.5C 285.413,106.402 285.913,106.068 287,108.5C 287.765,110.066 287.598,111.399 286.5,112.5 Z"/></g>
<g><path style="opacity:0.027" fill="#016ebc" d="M 29.5,107.5 C 30.6585,117.658 30.8252,127.992 30,138.5C 29.5002,128.172 29.3335,117.839 29.5,107.5 Z"/></g>
<g><path style="opacity:0.004" fill="#1f43e1" d="M 195.5,110.5 C 195.897,109.475 196.563,109.308 197.5,110C 198.774,110.977 198.774,111.811 197.5,112.5C 196.833,112.5 196.5,112.167 196.5,111.5C 195.833,111.5 195.5,111.167 195.5,110.5 Z"/></g>
<g><path style="opacity:0.012" fill="#1a50cc" d="M 214.5,112.5 C 213.549,113.919 213.216,115.585 213.5,117.5C 213.167,117.5 212.833,117.5 212.5,117.5C 212.248,114.68 212.748,112.014 214,109.5C 214.483,110.448 214.649,111.448 214.5,112.5 Z"/></g>
<g><path style="opacity:0.027" fill="#016cba" d="M 152.5,135.5 C 151.343,127.344 151.177,119.01 152,110.5C 152.5,118.827 152.666,127.16 152.5,135.5 Z"/></g>
<g><path style="opacity:0.016" fill="#057bc0" d="M 187.5,113.5 C 187.5,113.833 187.5,114.167 187.5,114.5C 178.651,114.174 169.984,114.507 161.5,115.5C 161.167,115.5 160.833,115.5 160.5,115.5C 169.105,113.529 178.105,112.862 187.5,113.5 Z"/></g>
<g><path style="opacity:0.02" fill="#2862c4" d="M 236.5,111.5 C 236.5,112.167 236.5,112.833 236.5,113.5C 235.833,113.5 235.5,113.833 235.5,114.5C 235.167,114.5 234.833,114.5 234.5,114.5C 234.427,112.973 235.094,111.973 236.5,111.5 Z"/></g>
<g><path style="opacity:0.027" fill="#206cc5" d="M 275.5,108.5 C 275.833,108.5 276.167,108.5 276.5,108.5C 276.328,109.492 276.662,110.158 277.5,110.5C 277.263,111.791 277.596,112.791 278.5,113.5C 278.5,114.833 278.5,116.167 278.5,117.5C 276.928,114.785 275.928,111.785 275.5,108.5 Z"/></g>
<g><path style="opacity:0.02" fill="#1f5aad" d="M 75.5,119.5 C 76.3138,117.369 76.8138,115.036 77,112.5C 77.8902,115.706 77.5569,118.706 76,121.5C 75.5357,120.906 75.369,120.239 75.5,119.5 Z"/></g>
<g><path style="opacity:0.008" fill="#127cf2" d="M 146.5,111.5 C 147.222,111.918 147.722,112.584 148,113.5C 148.667,121.5 148.667,129.5 148,137.5C 147.745,128.8 147.245,120.133 146.5,111.5 Z"/></g>
<g><path style="opacity:0.027" fill="#2d6fba" d="M 199.5,132.5 C 199.5,131.833 199.5,131.167 199.5,130.5C 200.338,130.158 200.672,129.492 200.5,128.5C 203.167,124.833 203.167,121.167 200.5,117.5C 200.672,116.508 200.338,115.842 199.5,115.5C 199.393,113.621 199.893,113.288 201,114.5C 204.662,120.986 204.162,126.986 199.5,132.5 Z"/></g>
<g><path style="opacity:0.024" fill="#2377b0" d="M 266.5,114.5 C 268.104,115.287 268.771,116.62 268.5,118.5C 268.167,118.5 267.833,118.5 267.5,118.5C 267.672,117.508 267.338,116.842 266.5,116.5C 266.5,115.833 266.5,115.167 266.5,114.5 Z"/></g>
<g><path style="opacity:0.035" fill="#0161d7" d="M 67.5,114.5 C 67.8333,114.5 68.1667,114.5 68.5,114.5C 68.5,115.833 68.5,117.167 68.5,118.5C 67.7611,118.631 67.0944,118.464 66.5,118C 67.3366,116.989 67.67,115.822 67.5,114.5 Z"/></g>
<g><path style="opacity:0.012" fill="#1762dd" d="M 244.5,115.5 C 245.167,115.5 245.833,115.5 246.5,115.5C 245.833,116.833 244.833,117.833 243.5,118.5C 243.5,117.833 243.5,117.167 243.5,116.5C 244.167,116.5 244.5,116.167 244.5,115.5 Z"/></g>
<g><path style="opacity:0.02" fill="#165ecf" d="M 189.5,115.5 C 190.167,115.5 190.833,115.5 191.5,115.5C 191.5,116.167 191.833,116.5 192.5,116.5C 192.328,117.492 192.662,118.158 193.5,118.5C 193.5,121.5 193.5,124.5 193.5,127.5C 192.662,127.842 192.328,128.508 192.5,129.5C 191.833,129.5 191.5,129.833 191.5,130.5C 190.833,130.5 190.167,130.5 189.5,130.5C 193.5,125.5 193.5,120.5 189.5,115.5 Z"/></g>
<g><path style="opacity:0.016" fill="#186697" d="M 212.5,117.5 C 212.5,121.167 212.5,124.833 212.5,128.5C 211.167,124.833 211.167,121.167 212.5,117.5 Z"/></g>
<g><path style="opacity:0.024" fill="#1f73b9" d="M 223.5,114.5 C 222.167,120.167 222.167,125.833 223.5,131.5C 222.833,130.167 222.167,128.833 221.5,127.5C 221.5,124.5 221.5,121.5 221.5,118.5C 222.167,117.167 222.833,115.833 223.5,114.5 Z"/></g>
<g><path style="opacity:0.008" fill="#2773dc" d="M 268.5,118.5 C 271.167,123.833 271.167,129.167 268.5,134.5C 269.833,129.167 269.833,123.833 268.5,118.5 Z"/></g>
<g><path style="opacity:0.016" fill="#175f9a" d="M 80.5,127.5 C 80.1667,127.5 79.8333,127.5 79.5,127.5C 79.6716,126.508 79.3382,125.842 78.5,125.5C 78.369,124.761 78.5357,124.094 79,123.5C 80.1882,124.563 80.6882,125.897 80.5,127.5 Z"/></g>
<g><path style="opacity:0.004" fill="#101dfa" d="M 71.5,127.5 C 71.7678,129.099 71.4345,130.432 70.5,131.5C 70.5,130.5 70.5,129.5 70.5,128.5C 60.4944,128.666 50.4944,128.5 40.5,128C 50.828,127.5 61.1613,127.334 71.5,127.5 Z"/></g>
<g><path style="opacity:0.004" fill="#0000ff" d="M 79.5,127.5 C 79.8333,127.5 80.1667,127.5 80.5,127.5C 81.5308,132.671 81.1975,132.671 79.5,127.5 Z"/></g>
<g><path style="opacity:0.02" fill="#196dd5" d="M 243.5,127.5 C 244.833,128.167 245.833,129.167 246.5,130.5C 245.833,130.5 245.167,130.5 244.5,130.5C 244.5,129.833 244.167,129.5 243.5,129.5C 243.5,128.833 243.5,128.167 243.5,127.5 Z"/></g>
<g><path style="opacity:0.016" fill="#1673d1" d="M 160.5,115.5 C 160.833,115.5 161.167,115.5 161.5,115.5C 161.5,120.833 161.5,126.167 161.5,131.5C 170.167,131.5 178.833,131.5 187.5,131.5C 187.5,131.833 187.5,132.167 187.5,132.5C 178.5,132.5 169.5,132.5 160.5,132.5C 160.5,126.833 160.5,121.167 160.5,115.5 Z"/></g>
<g><path style="opacity:0.012" fill="#1e6ef2" d="M 234.5,131.5 C 234.833,131.5 235.167,131.5 235.5,131.5C 235.5,132.167 235.833,132.5 236.5,132.5C 236.5,133.167 236.5,133.833 236.5,134.5C 235.094,134.027 234.427,133.027 234.5,131.5 Z"/></g>
<g><path style="opacity:0.016" fill="#246ac8" d="M 278.5,128.5 C 278.5,129.833 278.5,131.167 278.5,132.5C 277.596,133.209 277.263,134.209 277.5,135.5C 276.662,135.842 276.328,136.508 276.5,137.5C 276.167,137.5 275.833,137.5 275.5,137.5C 275.928,134.215 276.928,131.215 278.5,128.5 Z"/></g>
<g><path style="opacity:0.02" fill="#0065cc" d="M 198.5,132.5 C 198.833,132.5 199.167,132.5 199.5,132.5C 199.315,133.17 198.981,133.17 198.5,132.5 Z"/></g>
<g><path style="opacity:0.012" fill="#1951cb" d="M 212.5,128.5 C 212.833,128.5 213.167,128.5 213.5,128.5C 213.216,130.415 213.549,132.081 214.5,133.5C 214.5,134.5 214.5,135.5 214.5,136.5C 212.777,134.22 212.111,131.553 212.5,128.5 Z"/></g>
<g><path style="opacity:0.004" fill="#2846e7" d="M 197.5,133.5 C 197.833,133.5 198.167,133.5 198.5,133.5C 198.332,136.051 197.332,136.718 195.5,135.5C 196.167,135.5 196.5,135.167 196.5,134.5C 197.167,134.5 197.5,134.167 197.5,133.5 Z"/></g>
<g><path style="opacity:0.016" fill="#007fbf" d="M 76.5,136.5 C 77.8333,137.167 77.8333,137.167 76.5,136.5 Z"/></g>
<g><path style="opacity:0.008" fill="#0c8094" d="M 152.5,135.5 C 152.833,135.5 153.167,135.5 153.5,135.5C 153.167,138.167 152.833,138.167 152.5,135.5 Z"/></g>
<g><path style="opacity:0.004" fill="#183ceb" d="M 286.5,133.5 C 287.709,135.435 287.542,137.435 286,139.5C 285.517,138.552 285.351,137.552 285.5,136.5C 286.404,135.791 286.737,134.791 286.5,133.5 Z"/></g>
<g><path style="opacity:0.02" fill="#0065cc" d="M 75.5,137.5 C 75.8333,137.5 76.1667,137.5 76.5,137.5C 76.3147,138.17 75.9813,138.17 75.5,137.5 Z"/></g>
<g><path style="opacity:0.016" fill="#0380f0" d="M 214.5,136.5 C 214.833,136.5 215.167,136.5 215.5,136.5C 215.5,137.167 215.5,137.833 215.5,138.5C 214.662,138.158 214.328,137.492 214.5,136.5 Z"/></g>
<g><path style="opacity:0.016" fill="#1a5d9c" d="M 239.5,137.5 C 240.167,137.5 240.833,137.5 241.5,137.5C 242.061,140.187 241.394,140.187 239.5,137.5 Z"/></g>
<g><path style="opacity:0.012" fill="#0054ff" d="M 89.5,139.5 C 90.8333,140.167 90.8333,140.167 89.5,139.5 Z"/></g>
<g><path style="opacity:0.012" fill="#0054ff" d="M 144.5,139.5 C 145.833,140.167 145.833,140.167 144.5,139.5 Z"/></g>
<g><path style="opacity:0.02" fill="#194c94" d="M 188.5,140.5 C 188.5,140.167 188.5,139.833 188.5,139.5C 192.5,139.833 192.5,140.167 188.5,140.5 Z"/></g>
<g><path style="opacity:0.012" fill="#0255b8" d="M 215.5,138.5 C 215.833,138.5 216.167,138.5 216.5,138.5C 216.5,139.167 216.5,139.833 216.5,140.5C 215.662,140.158 215.328,139.492 215.5,138.5 Z"/></g>
<g><path style="opacity:0.027" fill="#2862cc" d="M 275.5,137.5 C 275.5,138.167 275.5,138.833 275.5,139.5C 274.833,139.5 274.5,139.833 274.5,140.5C 274.167,140.5 273.833,140.5 273.5,140.5C 273.427,138.973 274.094,137.973 275.5,137.5 Z"/></g>
<g><path style="opacity:0.027" fill="#0d66cd" d="M 89.5,140.5 C 88.7494,141.573 87.7494,141.74 86.5,141C 87.448,140.517 88.448,140.351 89.5,140.5 Z"/></g>
<g><path style="opacity:0.027" fill="#2d57e0" d="M 102.5,139.5 C 103.167,139.5 103.833,139.5 104.5,139.5C 103.341,141.377 101.674,141.877 99.5,141C 100.737,140.768 101.737,140.268 102.5,139.5 Z"/></g>
<g><path style="opacity:0.027" fill="#0876cd" d="M 144.5,140.5 C 143.749,141.573 142.749,141.74 141.5,141C 142.448,140.517 143.448,140.351 144.5,140.5 Z"/></g>
<g><path style="opacity:0.027" fill="#036dbc" d="M 188.5,140.5 C 178.342,141.659 168.008,141.825 157.5,141C 167.828,140.5 178.161,140.334 188.5,140.5 Z"/></g>
<g><path style="opacity:0.024" fill="#2069b9" d="M 226.5,138.5 C 228.5,139.833 230.167,141.5 231.5,143.5C 230.833,143.5 230.167,143.5 229.5,143.5C 229.5,142.833 229.167,142.5 228.5,142.5C 228.5,141.833 228.167,141.5 227.5,141.5C 227.5,140.833 227.167,140.5 226.5,140.5C 226.5,139.833 226.5,139.167 226.5,138.5 Z"/></g>
<g><path style="opacity:0.004" fill="#2acaee" d="M 216.5,140.5 C 216.833,140.5 217.167,140.5 217.5,140.5C 217.5,141.167 217.5,141.833 217.5,142.5C 216.662,142.158 216.328,141.492 216.5,140.5 Z"/></g>
<g><path style="opacity:0.008" fill="#1d58dc" d="M 245.5,140.5 C 248.713,140.19 251.713,140.523 254.5,141.5C 253.833,141.5 253.5,141.833 253.5,142.5C 252.833,142.5 252.5,142.833 252.5,143.5C 251.833,143.5 251.167,143.5 250.5,143.5C 248.928,142.313 247.261,141.313 245.5,140.5 Z"/></g>
<g><path style="opacity:0.008" fill="#1b59b0" d="M 264.5,141.5 C 264.833,141.5 265.167,141.5 265.5,141.5C 265.573,143.027 264.906,144.027 263.5,144.5C 263.5,143.833 263.5,143.167 263.5,142.5C 264.167,142.5 264.5,142.167 264.5,141.5 Z"/></g>
<g><path style="opacity:0.012" fill="#1a56c5" d="M 217.5,142.5 C 217.833,142.5 218.167,142.5 218.5,142.5C 219.167,142.5 219.5,142.833 219.5,143.5C 218.699,145.793 218.032,145.46 217.5,142.5 Z"/></g>
<g><path style="opacity:0.02" fill="#1161db" d="M 233.5,145.5 C 233.5,145.167 233.5,144.833 233.5,144.5C 238.5,145.833 243.5,145.833 248.5,144.5C 248.5,144.833 248.5,145.167 248.5,145.5C 243.5,146.833 238.5,146.833 233.5,145.5 Z"/></g>
<g><path style="opacity:0.02" fill="#1466d2" d="M 268.5,145.5 C 268.5,145.833 268.5,146.167 268.5,146.5C 267.833,146.5 267.5,146.833 267.5,147.5C 266.833,147.5 266.167,147.5 265.5,147.5C 265.973,146.094 266.973,145.427 268.5,145.5 Z"/></g>
<g><path style="opacity:0.024" fill="#0054d5" d="M 279.5,146.5 C 280.833,147.167 280.833,147.167 279.5,146.5 Z"/></g>
<g><path style="opacity:0.016" fill="#1856d6" d="M 258.5,148.5 C 259.396,149.506 260.062,149.506 260.5,148.5C 261.5,148.5 262.5,148.5 263.5,148.5C 263.5,148.833 263.5,149.167 263.5,149.5C 262.508,149.328 261.842,149.662 261.5,150.5C 260.167,150.5 258.833,150.5 257.5,150.5C 257.833,149.833 258.167,149.167 258.5,148.5 Z"/></g>
<g><path style="opacity:0.008" fill="#1565f8" d="M 278.5,147.5 C 278.833,147.5 279.167,147.5 279.5,147.5C 279.167,149.833 277.833,151.167 275.5,151.5C 275.5,151.167 275.5,150.833 275.5,150.5C 276.167,150.5 276.5,150.167 276.5,149.5C 277.167,149.5 277.5,149.167 277.5,148.5C 278.167,148.5 278.5,148.167 278.5,147.5 Z"/></g>
<g><path style="opacity:0.02" fill="#0065cc" d="M 274.5,151.5 C 274.833,151.5 275.167,151.5 275.5,151.5C 275.315,152.17 274.981,152.17 274.5,151.5 Z"/></g>
<g><path style="opacity:0.027" fill="#006cb6" d="M 273.5,152.5 C 273.833,152.5 274.167,152.5 274.5,152.5C 274.315,153.17 273.981,153.17 273.5,152.5 Z"/></g>
<g><path style="opacity:0.024" fill="#0054d5" d="M 272.5,153.5 C 272.833,153.5 273.167,153.5 273.5,153.5C 273.315,154.17 272.981,154.17 272.5,153.5 Z"/></g>
<g><path style="opacity:0.012" fill="#0755c5" d="M 270.5,155.5 C 270.5,155.167 270.5,154.833 270.5,154.5C 271.167,154.5 271.833,154.5 272.5,154.5C 272.158,155.338 271.492,155.672 270.5,155.5 Z"/></g>
<g><path style="opacity:0.016" fill="#007fbf" d="M 270.5,155.5 C 269.833,156.167 269.833,156.167 270.5,155.5 Z"/></g>
<g><path style="opacity:0.027" fill="#006cb6" d="M 267.5,156.5 C 268.833,157.167 268.833,157.167 267.5,156.5 Z"/></g>
<g><path style="opacity:0.012" fill="#115ee6" d="M 265.5,158.5 C 265.5,158.167 265.5,157.833 265.5,157.5C 266.167,157.5 266.833,157.5 267.5,157.5C 267.158,158.338 266.492,158.672 265.5,158.5 Z"/></g>
<g><path style="opacity:0.02" fill="#1b66d5" d="M 238.5,158.5 C 239.263,159.268 240.263,159.768 241.5,160C 239.365,160.635 237.365,160.301 235.5,159C 236.448,158.517 237.448,158.351 238.5,158.5 Z"/></g>
<g><path style="opacity:0.012" fill="#1d4ee8" d="M 262.5,158.5 C 263.5,158.5 264.5,158.5 265.5,158.5C 263.881,160.238 261.881,160.738 259.5,160C 260.737,159.768 261.737,159.268 262.5,158.5 Z"/></g>
<g><path style="opacity:0.024" fill="#0766dc" d="M 248.5,161.5 C 246.473,161.662 244.473,161.495 242.5,161C 244.712,160.211 246.712,160.378 248.5,161.5 Z"/></g>
<g><path style="opacity:0.004" fill="#3b88d8" d="M 248.5,161.5 C 251.817,160.779 255.151,160.612 258.5,161C 256,161.5 253.5,162 251,162.5C 249.93,162.472 249.097,162.139 248.5,161.5 Z"/></g>
</svg>
